<svg width="1440" height="1024" viewBox="0 0 1440 1024" fill="none" xmlns="http://www.w3.org/2000/svg">
<g clip-path="url(#clip0)">
<rect width="1440" height="1024" fill="white"/>
<circle cx="1411" cy="24.8712" r="50" fill="#274970"/>
<path d="M1458.46 954.902L1488.05 984.59C1489.35 985.892 1490 987.438 1490 989.229C1490 991.019 1489.35 992.533 1488.05 993.77L1478.87 1002.95C1477.63 1004.25 1476.1 1004.9 1474.28 1004.9C1472.45 1004.9 1470.92 1004.25 1469.69 1002.95L1440 973.36L1410.31 1002.95C1409.08 1004.25 1407.55 1004.9 1405.72 1004.9C1403.9 1004.9 1402.37 1004.25 1401.13 1002.95L1391.95 993.77C1390.65 992.533 1390 991.019 1390 989.229C1390 987.438 1390.65 985.892 1391.95 984.59L1421.54 954.902L1391.95 925.313C1390.65 924.01 1390 922.464 1390 920.674C1390 918.883 1390.65 917.337 1391.95 916.035L1401.13 906.855C1402.37 905.618 1403.9 905 1405.72 905C1407.55 905 1409.08 905.618 1410.31 906.855L1440 936.543L1469.69 906.855C1470.92 905.618 1472.45 905 1474.28 905C1476.1 905 1477.63 905.618 1478.87 906.855L1488.05 916.035C1489.35 917.337 1490 918.883 1490 920.674C1490 922.464 1489.35 924.01 1488.05 925.313L1458.46 954.902Z" fill="#274970"/>
<rect x="-1.36328" y="-2.29456" width="111.752" height="1027.32" transform="rotate(0.267465 -1.36328 -2.29456)" fill="#C63305"/>
</g>
<defs>
<clipPath id="clip0">
<rect width="1440" height="1024" fill="white"/>
</clipPath>
</defs>
</svg>
