<svg width="500" height="404" viewBox="0 0 500 404" fill="none" xmlns="http://www.w3.org/2000/svg">
<g clip-path="url(#clip0)">
<path d="M232.198 0H29.8027V357.485H232.198V0Z" fill="#3F3D56"/>
<path d="M250 365.041C388.071 365.041 500 362.442 500 359.235C500 356.028 388.071 353.428 250 353.428C111.929 353.428 0 356.028 0 359.235C0 362.442 111.929 365.041 250 365.041Z" fill="#3F3D56"/>
<path d="M250 382.462C345.588 382.462 423.077 380.662 423.077 378.441C423.077 376.221 345.588 374.421 250 374.421C154.412 374.421 76.9229 376.221 76.9229 378.441C76.9229 380.662 154.412 382.462 250 382.462Z" fill="#3F3D56"/>
<path d="M250.079 399.141C328.054 399.141 391.266 397.673 391.266 395.862C391.266 394.051 328.054 392.583 250.079 392.583C172.104 392.583 108.893 394.051 108.893 395.862C108.893 397.673 172.104 399.141 250.079 399.141Z" fill="#3F3D56"/>
<path d="M232.198 68.563H29.8027V69.7606H232.198V68.563Z" fill="#D0CDE1"/>
<path d="M232.198 141.617H29.8027V142.814H232.198V141.617Z" fill="#D0CDE1"/>
<path d="M232.198 214.671H29.8027V215.868H232.198V214.671Z" fill="#D0CDE1"/>
<path d="M232.198 287.725H29.8027V288.922H232.198V287.725Z" fill="#D0CDE1"/>
<path d="M122.634 159.345L122.634 159.345L119.066 148.249L118.379 148.857C116.383 150.686 114.015 152.061 111.438 152.89C108.86 153.719 106.134 153.981 103.446 153.659L102.534 153.565L106.103 164.661L106.102 164.661L108.552 172.278L108.552 172.278L116.793 197.905L116.793 197.905L119.242 205.52L121.947 213.932L122.614 213.458C126.995 210.302 132.261 208.609 137.661 208.62L138.479 208.616L135.774 200.205L135.774 200.205L133.325 192.588L133.324 192.589L125.083 166.961L125.083 166.961L122.634 159.345ZM104.23 154.926C109.397 155.325 114.515 153.679 118.481 150.344L121.494 159.712L107.243 164.295L104.23 154.926ZM107.609 165.435L121.86 160.852L123.576 166.188L109.325 170.771L107.609 165.435ZM136.841 207.437C131.751 207.575 126.807 209.165 122.59 212.019L120.382 205.154L134.634 200.571L136.841 207.437ZM134.267 199.431L120.016 204.014L118.3 198.678L132.551 194.095L134.267 199.431ZM132.184 192.955L117.933 197.538L109.692 171.911L123.943 167.328L132.184 192.955Z" fill="#D0CDE1"/>
<path d="M51.9749 86.2911L51.9748 86.2911L48.4064 75.1948L47.7202 75.803C45.7236 77.6314 43.3557 79.007 40.7784 79.8358C38.2012 80.6646 35.4753 80.927 32.7872 80.6051L31.875 80.511L35.4434 91.6072L35.4433 91.6072L37.8926 99.2235L37.8926 99.2235L46.1338 124.85L46.1337 124.85L48.583 132.467L48.5831 132.467L51.2881 140.878L51.9548 140.404C56.3361 137.248 61.6016 135.554 67.0014 135.565L67.8195 135.562L65.1145 127.151L65.1147 127.151L62.6654 119.534L62.6652 119.534L54.424 93.9072L54.4242 93.9071L51.9749 86.2911ZM33.5708 81.8723C38.7383 82.2713 43.8559 80.6257 47.8222 77.2895L50.8349 86.6577L36.5835 91.2406L33.5708 81.8723ZM36.9502 92.3809L51.2013 87.798L52.9173 93.1335L38.6662 97.7166L36.9502 92.3809ZM66.1822 134.382C61.0922 134.521 56.1478 136.111 51.9308 138.965L49.7231 132.1L63.9745 127.517L66.1822 134.382ZM63.6077 126.377L49.3566 130.96L47.6406 125.624L61.8917 121.041L63.6077 126.377ZM61.5252 119.901L47.2738 124.484L39.0327 98.8569L53.284 94.2738L61.5252 119.901Z" fill="#D0CDE1"/>
<path d="M468.678 70.3469C467.055 70.3469 465.468 69.8655 464.118 68.9636C462.769 68.0618 461.717 66.7799 461.095 65.2802C460.474 63.7804 460.312 62.1301 460.628 60.538C460.945 58.9459 461.727 57.4834 462.875 56.3356C464.023 55.1877 465.485 54.406 467.077 54.0893C468.669 53.7727 470.32 53.9352 471.819 54.5564C473.319 55.1776 474.601 56.2296 475.503 57.5794C476.405 58.9291 476.886 60.516 476.886 62.1393C476.884 64.3153 476.018 66.4015 474.479 67.9402C472.941 69.4789 470.854 70.3444 468.678 70.3469ZM468.678 55.2996C467.326 55.2996 466.003 55.7007 464.878 56.4523C463.754 57.2038 462.877 58.272 462.359 59.5218C461.842 60.7716 461.706 62.1469 461.97 63.4736C462.234 64.8004 462.885 66.0191 463.842 66.9757C464.799 67.9322 466.017 68.5836 467.344 68.8475C468.671 69.1114 470.046 68.976 471.296 68.4583C472.546 67.9406 473.614 67.064 474.365 65.9392C475.117 64.8144 475.518 63.492 475.518 62.1393C475.516 60.3259 474.795 58.5874 473.513 57.3051C472.23 56.0229 470.492 55.3016 468.678 55.2996Z" fill="#3F3D56"/>
<path d="M483.5 308.409H469.998V294.907H483.5V308.409ZM471.037 307.37H482.462V295.945H471.037V307.37Z" fill="#3F3D56"/>
<path d="M265.983 96.7511L256.773 86.8772L266.647 77.6675L275.857 87.5414L265.983 96.7511ZM258.241 86.9283L266.034 95.2831L274.389 87.4903L266.596 79.1355L258.241 86.9283Z" fill="#3F3D56"/>
<path d="M411.921 218.056L392.927 241.102L421.038 274.278L439.778 252.245L411.921 218.056Z" fill="#6C63FF"/>
<path opacity="0.1" d="M411.921 218.056L392.927 241.102L421.038 274.278L439.778 252.245L411.921 218.056Z" fill="black"/>
<path d="M393.687 241.355C394.107 240.599 394.628 239.903 395.235 239.287L412.681 221.602C412.681 221.602 418.759 220.589 420.025 223.628L397.739 241.862L393.687 241.355Z" fill="#F2F2F2"/>
<path d="M392.8 240.975L418.632 280.483C418.632 280.483 421.164 282.256 423.697 281.243L450.162 263.388L422.051 220.842L396.725 240.596L392.8 240.975Z" fill="#6C63FF"/>
<path d="M425.504 236.579L408.133 248.273L412.469 254.714L429.84 243.02L425.504 236.579Z" fill="#3F3D56"/>
<path d="M414.533 208.683C414.533 208.683 416.928 226.647 408.545 226.048C400.162 225.449 404.354 209.88 404.354 209.88L414.533 208.683Z" fill="#FFB8B8"/>
<path d="M348.665 144.012L338.485 142.814V141.617L328.905 140.419C328.905 140.419 307.947 179.94 309.144 205.09C310.342 230.239 326.509 340.419 326.509 340.419C326.509 340.419 351.659 338.024 355.252 330.838L351.06 306.287L348.665 276.946C348.665 276.946 364.833 358.982 372.018 358.982C379.204 358.982 400.162 354.79 398.366 351.796C396.569 348.802 375.012 256.587 375.012 256.587L372.617 211.676L367.228 145.808L348.665 144.012Z" fill="#2F2E41"/>
<path d="M357.049 84.1316C366.309 84.1316 373.815 76.625 373.815 67.3651C373.815 58.1052 366.309 50.5986 357.049 50.5986C347.789 50.5986 340.282 58.1052 340.282 67.3651C340.282 76.625 347.789 84.1316 357.049 84.1316Z" fill="#FFB8B8"/>
<path d="M357.647 78.7426C357.647 78.7426 364.234 93.7127 359.444 100.3C354.653 106.886 385.192 89.5211 385.192 89.5211C385.192 89.5211 370.222 75.1498 369.624 68.563L357.647 78.7426Z" fill="#FFB8B8"/>
<path d="M385.192 87.126C385.192 87.126 369.623 96.7068 357.048 93.114L325.91 144.012L377.407 153.593L388.784 88.9224L385.192 87.126Z" fill="#D0CDE1"/>
<path d="M378.006 85.3292C378.006 85.3292 380.401 82.3352 383.395 84.1316C386.389 85.928 405.551 86.5268 406.748 94.3113C407.946 102.096 378.006 220.659 378.006 220.659L373.216 219.461C373.216 219.461 378.605 217.665 357.647 212.275C336.689 206.886 333.695 188.922 338.485 167.365C343.275 145.808 345.072 132.635 345.072 132.635L378.006 85.3292Z" fill="#575A89"/>
<path d="M360.818 89.4653C360.818 89.4653 339.683 98.5028 339.084 101.497C338.486 104.491 315.731 158.383 315.731 158.383L310.941 162.575L313.336 164.371L295.971 202.694C295.971 202.694 296.57 207.485 305.552 207.485H310.941C310.941 207.485 319.923 161.976 325.911 153.593C331.899 145.209 370.576 97.1943 360.818 89.4653Z" fill="#575A89"/>
<path d="M398.965 91.3177C398.965 91.3177 406.749 88.9225 408.545 104.491C410.342 120.06 409.743 130.24 409.743 130.24L417.528 211.677L400.761 213.473L385.791 121.857L398.965 91.3177Z" fill="#575A89"/>
<path d="M331.299 336.227C331.299 336.227 331.299 348.203 325.91 350C320.521 351.796 304.353 366.167 323.515 365.569C342.676 364.97 340.88 355.988 340.88 355.988V353.593L345.67 355.988L355.251 353.593C355.251 353.593 358.245 332.635 355.251 330.838C352.257 329.042 331.299 336.227 331.299 336.227Z" fill="#2F2E41"/>
<path d="M376.21 355.988C376.21 355.988 376.809 373.952 369.623 382.335C362.438 390.718 354.653 402.096 364.234 403.293C373.815 404.491 391.18 397.305 390.581 393.114C389.983 388.922 390.581 387.724 390.581 387.724H393.575L398.366 384.132C398.366 384.132 401.36 354.79 395.971 352.395C390.581 350 376.21 355.988 376.21 355.988Z" fill="#2F2E41"/>
<path d="M324.713 129.641L328.905 123.653C328.905 123.653 336.689 116.467 342.078 120.06C347.467 123.653 331.99 134.074 331.99 134.074H327.666L325.91 135.273L324.713 129.641Z" fill="#FFB8B8"/>
<path d="M347.767 143.713C349.09 143.713 350.162 142.64 350.162 141.318C350.162 139.995 349.09 138.922 347.767 138.922C346.444 138.922 345.372 139.995 345.372 141.318C345.372 142.64 346.444 143.713 347.767 143.713Z" fill="#2F2E41"/>
<path d="M347.168 152.695C348.49 152.695 349.563 151.622 349.563 150.3C349.563 148.977 348.49 147.904 347.168 147.904C345.845 147.904 344.772 148.977 344.772 150.3C344.772 151.622 345.845 152.695 347.168 152.695Z" fill="#2F2E41"/>
<path d="M318.725 137.425L325.91 123.653C325.91 123.653 325.998 136.372 330.445 136.599L321.12 150L318.725 137.425Z" fill="#575A89"/>
<path d="M335.222 62.4161C335.222 62.4161 325.537 34.9796 357.105 37.8798C357.105 37.8798 377.4 29.4664 390.003 54.4055L402.967 80.6009L399.149 79.4741L398.303 83.3006L393.064 85.8935L389.683 81.6968L389.763 87.6576L345.356 101.926C345.356 101.926 363.099 85.542 358.795 63.9308L355.802 68.8531L335.222 62.4161Z" fill="#2F2E41"/>
<path d="M189.085 272.395V279.012C189.105 280.744 188.438 282.413 187.23 283.653C186.021 284.894 184.37 285.604 182.638 285.629H163.795C162.063 285.604 160.412 284.894 159.203 283.653C157.995 282.413 157.328 280.744 157.348 279.012V272.395C157.327 270.664 157.995 268.994 159.203 267.754C160.412 266.513 162.063 265.803 163.795 265.779H169.745V265.27H176.688V265.779H182.638C184.37 265.803 186.021 266.513 187.23 267.754C188.438 268.994 189.105 270.664 189.085 272.395Z" fill="#6C63FF"/>
<path d="M187.887 262.275H180.701V252.096H177.108V246.838C177.38 246.932 177.665 246.979 177.952 246.976C179.881 246.976 182.881 245.365 185.461 243.281C187.831 241.255 189.579 238.6 190.503 235.623L190.725 234.814L189.893 234.862C186.784 235.127 183.815 236.269 181.33 238.156C179.712 239.419 178.29 240.914 177.108 242.593V235.03C178.683 233.97 179.503 230.144 179.503 226.347C179.413 223.23 178.439 220.202 176.695 217.617L176.21 216.94L175.725 217.617C173.981 220.202 173.007 223.23 172.917 226.347C172.917 230.599 173.946 234.892 175.911 235.287V252.096H172.318V262.275H165.132C163.068 262.277 161.089 263.098 159.63 264.558C158.17 266.017 157.35 267.996 157.348 270.06V277.844C157.35 279.908 158.17 281.887 159.63 283.346C161.089 284.806 163.068 285.627 165.132 285.629H187.887C189.951 285.627 191.929 284.806 193.389 283.346C194.848 281.887 195.669 279.908 195.671 277.844V270.06C195.669 267.996 194.848 266.017 193.389 264.558C191.929 263.098 189.951 262.277 187.887 262.275ZM182.078 239.084C184.12 237.542 186.517 236.539 189.048 236.167C188.148 238.562 186.656 240.69 184.713 242.353C181.066 245.287 177.857 246.251 177.336 245.599C176.809 244.952 178.437 242.024 182.078 239.084ZM174.114 226.347C174.191 223.79 174.912 221.294 176.21 219.09C177.509 221.293 178.23 223.79 178.306 226.347C178.306 231.03 177.042 234.132 176.21 234.132C175.378 234.132 174.114 231.03 174.114 226.347V226.347ZM194.473 277.844C194.472 279.591 193.778 281.266 192.543 282.501C191.308 283.736 189.633 284.43 187.887 284.431H165.132C163.385 284.43 161.711 283.736 160.476 282.501C159.241 281.266 158.546 279.591 158.545 277.844V270.06C158.546 268.313 159.241 266.638 160.476 265.403C161.711 264.168 163.385 263.474 165.132 263.473H173.515V253.293H179.503V263.473H187.887C189.633 263.474 191.308 264.168 192.543 265.403C193.778 266.638 194.472 268.313 194.473 270.06V277.844Z" fill="#D0CDE1"/>
<path d="M99.2643 162.275V164.327H84.2943V162.275H83.0967V202.994H84.2943V201.746H99.2643V202.994H100.462V162.275H99.2643ZM99.2643 194.772H84.2943V171.301H99.2643V194.772Z" fill="#6C63FF"/>
<path d="M75.9108 166.467V168.308H60.9408V166.467H59.7432V202.994H60.9408V201.875H75.9108V202.994H77.1084V166.467H75.9108ZM75.9108 195.619H60.9408V174.564H75.9108V195.619Z" fill="#6C63FF"/>
<path d="M52.5573 162.275V164.206H37.5873V162.275H36.3896V200.599H37.5873V199.424H52.5573V200.599H53.7549V162.275H52.5573ZM52.5573 192.86H37.5873V170.77H52.5573V192.86Z" fill="#6C63FF"/>
<path d="M222.617 90.4189V92.4705H207.647V90.4189H206.449V131.137H207.647V129.89H222.617V131.137H223.814V90.4189H222.617ZM222.617 122.915H207.647V99.4449H222.617V122.915Z" fill="#6C63FF"/>
<path d="M199.264 94.6108V96.4512H184.294V94.6108H183.097V131.138H184.294V130.019H199.264V131.138H200.462V94.6108H199.264ZM199.264 123.762H184.294V102.708H199.264V123.762Z" fill="#6C63FF"/>
<path d="M175.911 90.4189V92.3498H160.941V90.4189H159.743V128.742H160.941V127.568H175.911V128.742H177.108V90.4189H175.911ZM175.911 121.004H160.941V98.9139H175.911V121.004Z" fill="#6C63FF"/>
<path d="M99.6236 150.946C97.163 152.077 94.4871 152.662 91.7793 152.662C89.0715 152.662 86.3956 152.077 83.935 150.946L83.0967 150.581V213.994L83.8751 213.743C89.0131 212.078 94.5455 212.078 99.6835 213.743L100.462 213.994V150.581L99.6236 150.946ZM84.2943 197.156V170.234H99.2643V197.156H84.2943ZM99.2643 198.354V203.958H84.2943V198.354H99.2643ZM84.2943 169.036V163.431H99.2643V169.036H84.2943ZM99.2643 212.366C94.3755 210.944 89.1831 210.944 84.2943 212.366V205.156H99.2643V212.366ZM99.2643 162.234H84.2943V152.395C89.0922 154.354 94.4664 154.354 99.2643 152.395V162.234Z" fill="#D0CDE1"/>
<path d="M76.3286 213.744L77.1084 213.992V150.58L76.2687 150.949C73.8083 152.078 71.1331 152.663 68.4258 152.663C65.7185 152.663 63.0432 152.078 60.5829 150.949L59.7432 150.58V213.992L60.5229 213.744C65.6601 212.08 71.1915 212.08 76.3286 213.744ZM75.9108 203.958H60.9408V198.353H75.9108V203.958ZM75.9108 169.038H60.9408V163.433H75.9108V169.038ZM60.9408 152.395C65.7384 154.355 71.1132 154.355 75.9108 152.395V162.236H60.9408V152.395ZM60.9408 170.236H75.9108V197.156H60.9408V170.236ZM60.9408 205.156H75.9108V212.367C71.0227 210.941 65.8289 210.941 60.9408 212.367V205.156Z" fill="#D0CDE1"/>
<path d="M52.9751 213.744L53.7549 213.992V150.58L52.9152 150.949C50.4548 152.078 47.7795 152.663 45.0723 152.663C42.365 152.663 39.6897 152.078 37.2294 150.949L36.3896 150.58V213.992L37.1694 213.744C42.3066 212.08 47.838 212.08 52.9751 213.744ZM52.5573 203.958H37.5873V198.353H52.5573V203.958ZM52.5573 169.038H37.5873V163.433H52.5573V169.038ZM37.5873 152.395C42.3849 154.355 47.7597 154.355 52.5573 152.395V162.236H37.5873V152.395ZM37.5873 170.236H52.5573V197.156H37.5873V170.236ZM37.5873 205.156H52.5573V212.367C47.6692 210.941 42.4754 210.941 37.5873 212.367V205.156Z" fill="#D0CDE1"/>
<path d="M176.329 140.691L177.108 140.938V77.5264L176.269 77.8951C173.808 79.0247 171.133 79.6095 168.426 79.6095C165.719 79.6095 163.043 79.0247 160.583 77.8951L159.743 77.5264V140.938L160.523 140.691C165.66 139.027 171.191 139.027 176.329 140.691ZM175.911 130.905H160.941V125.3H175.911V130.905ZM175.911 95.9846H160.941V90.3796H175.911V95.9846ZM160.941 79.3415C165.738 81.301 171.113 81.301 175.911 79.3415V89.182H160.941V79.3415ZM160.941 97.1822H175.911V124.102H160.941V97.1822ZM160.941 132.102H175.911V139.314C171.023 137.888 165.829 137.888 160.941 139.314V132.102Z" fill="#D0CDE1"/>
<path d="M199.682 140.691L200.462 140.938V77.5264L199.622 77.8951C197.162 79.0247 194.487 79.6095 191.779 79.6095C189.072 79.6095 186.397 79.0247 183.936 77.8951L183.097 77.5264V140.938L183.876 140.691C189.014 139.027 194.545 139.027 199.682 140.691ZM199.264 130.905H184.294V125.3H199.264V130.905ZM199.264 95.9846H184.294V90.3796H199.264V95.9846ZM184.294 79.3415C189.092 81.301 194.467 81.301 199.264 79.3415V89.182H184.294V79.3415ZM184.294 97.1822H199.264V124.102H184.294V97.1822ZM184.294 132.102H199.264V139.314C194.376 137.888 189.182 137.888 184.294 139.314V132.102Z" fill="#D0CDE1"/>
<path d="M223.034 140.691L223.814 140.938V77.5264L222.975 77.8951C220.514 79.0247 217.839 79.6095 215.132 79.6095C212.425 79.6095 209.749 79.0247 207.289 77.8951L206.449 77.5264V140.938L207.229 140.691C212.366 139.027 217.897 139.027 223.034 140.691ZM222.617 130.905H207.647V125.3H222.617V130.905ZM222.617 95.9846H207.647V90.3796H222.617V95.9846ZM207.647 79.3415C212.444 81.301 217.819 81.301 222.617 79.3415V89.182H207.647V79.3415ZM207.647 97.1822H222.617V124.102H207.647V97.1822ZM207.647 139.314V132.102H222.617V139.314C217.729 137.888 212.535 137.888 207.647 139.314Z" fill="#D0CDE1"/>
</g>
<defs>
<clipPath id="clip0">
<rect width="500" height="403.426" fill="white"/>
</clipPath>
</defs>
</svg>
