<svg width="600" height="588" viewBox="0 0 600 588" fill="none" xmlns="http://www.w3.org/2000/svg">
<path opacity="0.1" d="M229.303 121.013H184.295C181.699 121.013 179.594 123.594 179.594 126.777V135.418C179.594 138.602 181.699 141.182 184.295 141.182H229.303C231.899 141.182 234.003 138.602 234.003 135.418V126.777C234.003 123.594 231.899 121.013 229.303 121.013Z" fill="#274970"/>
<path opacity="0.1" d="M286.243 141.182H241.235C238.639 141.182 236.534 143.763 236.534 146.946V155.587C236.534 158.77 238.639 161.351 241.235 161.351H286.243C288.839 161.351 290.943 158.77 290.943 155.587V146.946C290.943 143.763 288.839 141.182 286.243 141.182Z" fill="#274970"/>
<path opacity="0.1" d="M172.363 70.5911H127.355C124.759 70.5911 122.655 73.1715 122.655 76.3547V84.9963C122.655 88.1795 124.759 90.7599 127.355 90.7599H172.363C174.959 90.7599 177.064 88.1795 177.064 84.9963V76.3547C177.064 73.1715 174.959 70.5911 172.363 70.5911Z" fill="#274970"/>
<path opacity="0.1" d="M229.303 90.7598H184.295C181.699 90.7598 179.594 93.3402 179.594 96.5234V105.165C179.594 108.348 181.699 110.929 184.295 110.929H229.303C231.899 110.929 234.003 108.348 234.003 105.165V96.5234C234.003 93.3402 231.899 90.7598 229.303 90.7598Z" fill="#274970"/>
<path opacity="0.1" d="M286.243 110.929H241.235C238.639 110.929 236.534 113.509 236.534 116.692V125.334C236.534 128.517 238.639 131.098 241.235 131.098H286.243C288.839 131.098 290.943 128.517 290.943 125.334V116.692C290.943 113.509 288.839 110.929 286.243 110.929Z" fill="#274970"/>
<path opacity="0.1" d="M349.509 100.844H304.501C301.905 100.844 299.801 103.425 299.801 106.608V115.249C299.801 118.433 301.905 121.013 304.501 121.013H349.509C352.105 121.013 354.21 118.433 354.21 115.249V106.608C354.21 103.425 352.105 100.844 349.509 100.844Z" fill="#274970"/>
<path opacity="0.1" d="M406.449 121.013H361.441C358.845 121.013 356.74 123.594 356.74 126.777V135.418C356.74 138.602 358.845 141.182 361.441 141.182H406.449C409.045 141.182 411.149 138.602 411.149 135.418V126.777C411.149 123.594 409.045 121.013 406.449 121.013Z" fill="#274970"/>
<path opacity="0.1" d="M463.389 141.182H418.381C415.785 141.182 413.68 143.763 413.68 146.946V155.587C413.68 158.77 415.785 161.351 418.381 161.351H463.389C465.985 161.351 468.089 158.77 468.089 155.587V146.946C468.089 143.763 465.985 141.182 463.389 141.182Z" fill="#274970"/>
<path opacity="0.1" d="M349.509 70.5911H304.501C301.905 70.5911 299.801 73.1715 299.801 76.3547V84.9963C299.801 88.1795 301.905 90.7599 304.501 90.7599H349.509C352.105 90.7599 354.21 88.1795 354.21 84.9963V76.3547C354.21 73.1715 352.105 70.5911 349.509 70.5911Z" fill="#274970"/>
<path opacity="0.1" d="M406.449 90.7598H361.441C358.845 90.7598 356.74 93.3402 356.74 96.5234V105.165C356.74 108.348 358.845 110.929 361.441 110.929H406.449C409.045 110.929 411.149 108.348 411.149 105.165V96.5234C411.149 93.3402 409.045 90.7598 406.449 90.7598Z" fill="#274970"/>
<path opacity="0.1" d="M463.389 110.929H418.381C415.785 110.929 413.68 113.509 413.68 116.692V125.334C413.68 128.517 415.785 131.098 418.381 131.098H463.389C465.985 131.098 468.089 128.517 468.089 125.334V116.692C468.089 113.509 465.985 110.929 463.389 110.929Z" fill="#274970"/>
<path opacity="0.1" d="M172.363 30.2532H127.355C124.759 30.2532 122.655 32.8336 122.655 36.0168V44.6584C122.655 47.8416 124.759 50.422 127.355 50.422H172.363C174.959 50.422 177.064 47.8416 177.064 44.6584V36.0168C177.064 32.8336 174.959 30.2532 172.363 30.2532Z" fill="#274970"/>
<path opacity="0.1" d="M229.303 50.4221H184.295C181.699 50.4221 179.594 53.0026 179.594 56.1858V64.8273C179.594 68.0105 181.699 70.591 184.295 70.591H229.303C231.899 70.591 234.003 68.0105 234.003 64.8273V56.1858C234.003 53.0026 231.899 50.4221 229.303 50.4221Z" fill="#274970"/>
<path opacity="0.1" d="M286.243 70.5911H241.235C238.639 70.5911 236.534 73.1715 236.534 76.3547V84.9963C236.534 88.1795 238.639 90.7599 241.235 90.7599H286.243C288.839 90.7599 290.943 88.1795 290.943 84.9963V76.3547C290.943 73.1715 288.839 70.5911 286.243 70.5911Z" fill="#274970"/>
<path opacity="0.1" d="M172.363 0H127.355C124.759 0 122.655 2.58047 122.655 5.76364V14.4052C122.655 17.5884 124.759 20.1689 127.355 20.1689H172.363C174.959 20.1689 177.064 17.5884 177.064 14.4052V5.76364C177.064 2.58047 174.959 0 172.363 0Z" fill="#274970"/>
<path opacity="0.1" d="M229.303 20.1689H184.295C181.699 20.1689 179.594 22.7494 179.594 25.9326V34.5742C179.594 37.7573 181.699 40.3378 184.295 40.3378H229.303C231.899 40.3378 234.003 37.7573 234.003 34.5742V25.9326C234.003 22.7494 231.899 20.1689 229.303 20.1689Z" fill="#274970"/>
<path opacity="0.1" d="M286.243 40.3376H241.235C238.639 40.3376 236.534 42.9181 236.534 46.1013V54.7429C236.534 57.926 238.639 60.5065 241.235 60.5065H286.243C288.839 60.5065 290.943 57.926 290.943 54.7429V46.1013C290.943 42.9181 288.839 40.3376 286.243 40.3376Z" fill="#274970"/>
<path opacity="0.1" d="M349.509 30.2532H304.501C301.905 30.2532 299.801 32.8336 299.801 36.0168V44.6584C299.801 47.8416 301.905 50.422 304.501 50.422H349.509C352.105 50.422 354.21 47.8416 354.21 44.6584V36.0168C354.21 32.8336 352.105 30.2532 349.509 30.2532Z" fill="#274970"/>
<path opacity="0.1" d="M406.449 50.4221H361.441C358.845 50.4221 356.74 53.0026 356.74 56.1858V64.8273C356.74 68.0105 358.845 70.591 361.441 70.591H406.449C409.045 70.591 411.149 68.0105 411.149 64.8273V56.1858C411.149 53.0026 409.045 50.4221 406.449 50.4221Z" fill="#274970"/>
<path opacity="0.1" d="M463.389 70.5911H418.381C415.785 70.5911 413.68 73.1715 413.68 76.3547V84.9963C413.68 88.1795 415.785 90.7599 418.381 90.7599H463.389C465.985 90.7599 468.089 88.1795 468.089 84.9963V76.3547C468.089 73.1715 465.985 70.5911 463.389 70.5911Z" fill="#274970"/>
<path opacity="0.1" d="M349.509 0H304.501C301.905 0 299.801 2.58047 299.801 5.76364V14.4052C299.801 17.5884 301.905 20.1689 304.501 20.1689H349.509C352.105 20.1689 354.21 17.5884 354.21 14.4052V5.76364C354.21 2.58047 352.105 0 349.509 0Z" fill="#274970"/>
<path opacity="0.1" d="M406.449 20.1689H361.441C358.845 20.1689 356.74 22.7494 356.74 25.9326V34.5742C356.74 37.7573 358.845 40.3378 361.441 40.3378H406.449C409.045 40.3378 411.149 37.7573 411.149 34.5742V25.9326C411.149 22.7494 409.045 20.1689 406.449 20.1689Z" fill="#274970"/>
<path opacity="0.1" d="M463.389 40.3376H418.381C415.785 40.3376 413.68 42.9181 413.68 46.1013V54.7429C413.68 57.926 415.785 60.5065 418.381 60.5065H463.389C465.985 60.5065 468.089 57.926 468.089 54.7429V46.1013C468.089 42.9181 465.985 40.3376 463.389 40.3376Z" fill="#274970"/>
<path opacity="0.1" d="M172.363 460.005H127.355C124.759 460.005 122.655 462.586 122.655 465.769V474.411C122.655 477.594 124.759 480.174 127.355 480.174H172.363C174.959 480.174 177.064 477.594 177.064 474.411V465.769C177.064 462.586 174.959 460.005 172.363 460.005Z" fill="#274970"/>
<path opacity="0.1" d="M229.303 480.174H184.295C181.699 480.174 179.594 482.755 179.594 485.938V494.579C179.594 497.762 181.699 500.343 184.295 500.343H229.303C231.899 500.343 234.003 497.762 234.003 494.579V485.938C234.003 482.755 231.899 480.174 229.303 480.174Z" fill="#274970"/>
<path opacity="0.1" d="M286.243 500.343H241.235C238.639 500.343 236.534 502.923 236.534 506.107V514.748C236.534 517.932 238.639 520.512 241.235 520.512H286.243C288.839 520.512 290.943 517.932 290.943 514.748V506.107C290.943 502.923 288.839 500.343 286.243 500.343Z" fill="#274970"/>
<path opacity="0.1" d="M172.363 429.752H127.355C124.759 429.752 122.655 432.332 122.655 435.516V444.157C122.655 447.34 124.759 449.921 127.355 449.921H172.363C174.959 449.921 177.064 447.34 177.064 444.157V435.516C177.064 432.332 174.959 429.752 172.363 429.752Z" fill="#274970"/>
<path opacity="0.1" d="M229.303 449.921H184.295C181.699 449.921 179.594 452.501 179.594 455.685V464.326C179.594 467.509 181.699 470.09 184.295 470.09H229.303C231.899 470.09 234.003 467.509 234.003 464.326V455.685C234.003 452.501 231.899 449.921 229.303 449.921Z" fill="#274970"/>
<path opacity="0.1" d="M286.243 470.09H241.235C238.639 470.09 236.534 472.67 236.534 475.853V484.495C236.534 487.678 238.639 490.259 241.235 490.259H286.243C288.839 490.259 290.943 487.678 290.943 484.495V475.853C290.943 472.67 288.839 470.09 286.243 470.09Z" fill="#274970"/>
<path opacity="0.1" d="M349.509 460.005H304.501C301.905 460.005 299.801 462.586 299.801 465.769V474.411C299.801 477.594 301.905 480.174 304.501 480.174H349.509C352.105 480.174 354.21 477.594 354.21 474.411V465.769C354.21 462.586 352.105 460.005 349.509 460.005Z" fill="#274970"/>
<path opacity="0.1" d="M406.449 480.174H361.441C358.845 480.174 356.74 482.755 356.74 485.938V494.579C356.74 497.762 358.845 500.343 361.441 500.343H406.449C409.045 500.343 411.149 497.762 411.149 494.579V485.938C411.149 482.755 409.045 480.174 406.449 480.174Z" fill="#274970"/>
<path opacity="0.1" d="M463.389 500.343H418.381C415.785 500.343 413.68 502.923 413.68 506.107V514.748C413.68 517.932 415.785 520.512 418.381 520.512H463.389C465.985 520.512 468.089 517.932 468.089 514.748V506.107C468.089 502.923 465.985 500.343 463.389 500.343Z" fill="#274970"/>
<path opacity="0.1" d="M349.509 429.752H304.501C301.905 429.752 299.801 432.332 299.801 435.516V444.157C299.801 447.34 301.905 449.921 304.501 449.921H349.509C352.105 449.921 354.21 447.34 354.21 444.157V435.516C354.21 432.332 352.105 429.752 349.509 429.752Z" fill="#274970"/>
<path opacity="0.1" d="M406.449 449.921H361.441C358.845 449.921 356.74 452.501 356.74 455.685V464.326C356.74 467.509 358.845 470.09 361.441 470.09H406.449C409.045 470.09 411.149 467.509 411.149 464.326V455.685C411.149 452.501 409.045 449.921 406.449 449.921Z" fill="#274970"/>
<path opacity="0.1" d="M463.389 470.09H418.381C415.785 470.09 413.68 472.67 413.68 475.853V484.495C413.68 487.678 415.785 490.259 418.381 490.259H463.389C465.985 490.259 468.089 487.678 468.089 484.495V475.853C468.089 472.67 465.985 470.09 463.389 470.09Z" fill="#274970"/>
<path opacity="0.1" d="M172.363 389.414H127.355C124.759 389.414 122.655 391.995 122.655 395.178V403.819C122.655 407.003 124.759 409.583 127.355 409.583H172.363C174.959 409.583 177.064 407.003 177.064 403.819V395.178C177.064 391.995 174.959 389.414 172.363 389.414Z" fill="#274970"/>
<path opacity="0.1" d="M229.303 409.583H184.295C181.699 409.583 179.594 412.164 179.594 415.347V423.988C179.594 427.172 181.699 429.752 184.295 429.752H229.303C231.899 429.752 234.003 427.172 234.003 423.988V415.347C234.003 412.164 231.899 409.583 229.303 409.583Z" fill="#274970"/>
<path opacity="0.1" d="M286.243 429.752H241.235C238.639 429.752 236.534 432.332 236.534 435.516V444.157C236.534 447.34 238.639 449.921 241.235 449.921H286.243C288.839 449.921 290.943 447.34 290.943 444.157V435.516C290.943 432.332 288.839 429.752 286.243 429.752Z" fill="#274970"/>
<path opacity="0.1" d="M172.363 359.161H127.355C124.759 359.161 122.655 361.741 122.655 364.925V373.566C122.655 376.749 124.759 379.33 127.355 379.33H172.363C174.959 379.33 177.064 376.749 177.064 373.566V364.925C177.064 361.741 174.959 359.161 172.363 359.161Z" fill="#274970"/>
<path opacity="0.1" d="M229.303 379.33H184.295C181.699 379.33 179.594 381.91 179.594 385.094V393.735C179.594 396.918 181.699 399.499 184.295 399.499H229.303C231.899 399.499 234.003 396.918 234.003 393.735V385.094C234.003 381.91 231.899 379.33 229.303 379.33Z" fill="#274970"/>
<path opacity="0.1" d="M286.243 399.499H241.235C238.639 399.499 236.534 402.079 236.534 405.262V413.904C236.534 417.087 238.639 419.668 241.235 419.668H286.243C288.839 419.668 290.943 417.087 290.943 413.904V405.262C290.943 402.079 288.839 399.499 286.243 399.499Z" fill="#274970"/>
<path opacity="0.1" d="M349.509 389.414H304.501C301.905 389.414 299.801 391.995 299.801 395.178V403.819C299.801 407.003 301.905 409.583 304.501 409.583H349.509C352.105 409.583 354.21 407.003 354.21 403.819V395.178C354.21 391.995 352.105 389.414 349.509 389.414Z" fill="#274970"/>
<path opacity="0.1" d="M406.449 409.583H361.441C358.845 409.583 356.74 412.164 356.74 415.347V423.988C356.74 427.172 358.845 429.752 361.441 429.752H406.449C409.045 429.752 411.149 427.172 411.149 423.988V415.347C411.149 412.164 409.045 409.583 406.449 409.583Z" fill="#274970"/>
<path opacity="0.1" d="M463.389 429.752H418.381C415.785 429.752 413.68 432.332 413.68 435.516V444.157C413.68 447.34 415.785 449.921 418.381 449.921H463.389C465.985 449.921 468.089 447.34 468.089 444.157V435.516C468.089 432.332 465.985 429.752 463.389 429.752Z" fill="#274970"/>
<path opacity="0.1" d="M349.509 359.161H304.501C301.905 359.161 299.801 361.741 299.801 364.925V373.566C299.801 376.749 301.905 379.33 304.501 379.33H349.509C352.105 379.33 354.21 376.749 354.21 373.566V364.925C354.21 361.741 352.105 359.161 349.509 359.161Z" fill="#274970"/>
<path opacity="0.1" d="M406.449 379.33H361.441C358.845 379.33 356.74 381.91 356.74 385.094V393.735C356.74 396.918 358.845 399.499 361.441 399.499H406.449C409.045 399.499 411.149 396.918 411.149 393.735V385.094C411.149 381.91 409.045 379.33 406.449 379.33Z" fill="#274970"/>
<path opacity="0.1" d="M463.389 399.499H418.381C415.785 399.499 413.68 402.079 413.68 405.262V413.904C413.68 417.087 415.785 419.668 418.381 419.668H463.389C465.985 419.668 468.089 417.087 468.089 413.904V405.262C468.089 402.079 465.985 399.499 463.389 399.499Z" fill="#274970"/>
<path opacity="0.1" d="M305.178 588C458.395 588 582.602 575.497 582.602 560.074C582.602 544.651 458.395 532.148 305.178 532.148C151.962 532.148 27.7549 544.651 27.7549 560.074C27.7549 575.497 151.962 588 305.178 588Z" fill="#274970"/>
<path d="M53.555 144.906C79.7157 158.807 94.7478 187.57 94.7478 187.57C94.7478 187.57 67.3598 193.776 41.1928 179.883C15.0258 165.99 0 137.218 0 137.218C0 137.218 27.388 131.005 53.555 144.906Z" fill="#274970"/>
<path d="M133.84 91.5355C141.932 75.2453 155.711 67.488 155.711 67.488C155.711 67.488 156.344 86.0589 148.278 102.303C140.211 118.546 126.4 126.296 126.4 126.296C126.4 126.296 125.742 107.733 133.84 91.5355Z" fill="#274970"/>
<path d="M74.3571 108.966C80.1459 134.301 96.1017 150.98 96.1017 150.98C96.1017 150.98 102.675 126.567 96.8862 101.224C91.0974 75.8815 75.1352 59.2112 75.1352 59.2112C75.1352 59.2112 68.5618 83.6233 74.3571 108.966Z" fill="#46455B"/>
<path d="M531.855 107.826H79.7661C77.2468 107.826 75.2046 110.33 75.2046 113.419V385.373C75.2046 388.462 77.2468 390.966 79.7661 390.966H531.855C534.375 390.966 536.417 388.462 536.417 385.373V113.419C536.417 110.33 534.375 107.826 531.855 107.826Z" fill="#3F3D56"/>
<path opacity="0.1" d="M75.2046 373.9H536.417V385.373C536.417 386.856 535.936 388.279 535.081 389.327C534.226 390.376 533.065 390.966 531.855 390.966H79.7661C78.5563 390.966 77.3961 390.376 76.5406 389.327C75.6852 388.279 75.2046 386.856 75.2046 385.373V373.9Z" fill="black"/>
<path d="M152.706 352.955H121.706C120.832 352.955 120.124 353.823 120.124 354.894V371.96C120.124 373.031 120.832 373.9 121.706 373.9H152.706C153.58 373.9 154.288 373.031 154.288 371.96V354.894C154.288 353.823 153.58 352.955 152.706 352.955Z" fill="#274970"/>
<path d="M185.921 370.797H165.043C164.344 370.797 163.778 371.491 163.778 372.348C163.778 373.205 164.344 373.9 165.043 373.9H185.921C186.62 373.9 187.186 373.205 187.186 372.348C187.186 371.491 186.62 370.797 185.921 370.797Z" fill="#274970"/>
<path d="M142.995 163.197C159.691 166.975 176.722 163.197 193.349 160.637L243.879 152.88C245.923 152.562 248.896 151.065 250.099 154.129C250.776 155.843 250.32 159.559 250.371 161.529C250.503 166.959 250.491 172.389 250.371 177.82C250.143 188.199 249.523 198.555 248.732 208.887C247.195 229.11 245.018 249.225 243.93 269.526C243.373 279.858 243.095 290.222 243.342 300.555C243.399 303.022 243.481 305.488 243.601 307.947C243.734 310.701 244.74 314.789 242.291 316.628C240.893 317.683 238.141 317.629 236.541 317.939C234.01 318.428 231.479 318.815 228.898 319.133C211.886 321.22 194.652 320.351 177.576 320.227L126.014 319.901L113.437 319.816C112.298 319.816 108.192 320.654 107.49 318.994C107.192 318.288 107.983 314.983 108.122 314.099C108.316 312.641 108.527 311.185 108.755 309.732C110.223 299.531 111.956 289.392 113.702 279.261C117.454 257.541 121.294 235.712 122.838 213.526C123.604 202.395 123.098 191.162 124.034 180.054C124.47 174.895 124.989 163.383 130.588 162.926C135.333 162.538 140.217 162.926 144.975 162.926C145.227 162.926 145.468 162.803 145.646 162.585C145.824 162.367 145.924 162.071 145.924 161.762C145.924 161.453 145.824 161.157 145.646 160.939C145.468 160.721 145.227 160.598 144.975 160.598C140.483 160.598 135.985 160.451 131.493 160.56C128.507 160.629 126.432 161.498 125.008 164.865C121.37 173.506 121.744 185.034 121.63 194.467C121.358 217.048 118.53 239.148 114.848 261.233C112.994 272.349 110.995 283.427 109.154 294.551C108.287 299.864 107.458 305.194 106.699 310.538C106.345 313.083 104.554 318.691 106.129 321.026C107.705 323.361 112.551 322.104 114.721 322.12L129.816 322.229L158.742 322.43C177.431 322.562 196.183 323.206 214.865 322.531C223.786 322.205 233.213 321.755 241.899 319.141C244.487 318.365 245.733 316.907 245.834 313.525C245.986 308.281 245.29 302.874 245.202 297.607C244.569 252.537 253.205 208.096 252.319 163.011C252.262 159.947 253.205 152.221 250.472 150.367C249.244 149.529 247.65 149.986 246.359 150.173C243.892 150.522 241.431 150.948 238.964 151.305L206.919 156.208C196.676 157.759 186.44 159.435 176.178 160.862C165.315 162.414 154.345 163.337 143.52 160.862C142.324 160.591 141.812 162.833 143.014 163.104L142.995 163.197Z" fill="#274970"/>
<path d="M122.851 190.619L249.27 183.017C250.491 182.939 250.497 180.612 249.27 180.69L122.851 188.292C121.636 188.362 121.63 190.689 122.851 190.619Z" fill="#274970"/>
<path d="M161.798 171.436C161.444 171.895 161.187 172.453 161.05 173.062C160.912 173.671 160.898 174.311 161.009 174.928C161.119 175.545 161.35 176.12 161.683 176.602C162.016 177.084 162.44 177.46 162.917 177.696C164.619 178.65 166.619 177.851 168.308 177.331C170.838 176.555 173.369 175.865 175.969 175.299C181.629 174.07 187.361 173.416 193.108 173.344C195.727 173.305 198.328 173.452 200.947 173.592C202.845 173.685 204.888 173.871 206.495 172.428C208.33 170.784 208.925 167.572 207.128 165.571C204.597 162.74 199.144 164.384 196.221 164.679C185.615 165.759 175.078 167.687 164.676 170.45C163.487 170.761 163.987 173.01 165.182 172.692C172.045 170.877 178.96 169.419 185.927 168.317C189.352 167.8 192.783 167.363 196.221 167.006C197.841 166.843 199.46 166.696 201.08 166.579C201.712 166.533 202.383 166.448 203.028 166.471C205.034 166.525 205.268 166.083 204.066 169.054C202.997 171.684 203.338 171.381 201.485 171.296C200.7 171.296 199.916 171.187 199.131 171.141C197.524 171.058 195.917 171.014 194.31 171.009C190.89 171.009 187.477 171.211 184.074 171.614C181.189 171.955 178.31 172.436 175.457 173.057C173.673 173.445 171.901 173.895 170.136 174.391C169.358 174.616 168.573 174.849 167.795 175.089C167.422 175.213 167.042 175.322 166.669 175.438C165.286 176.028 164.107 175.252 163.133 173.111C163.98 172.033 162.645 170.381 161.791 171.467L161.798 171.436Z" fill="#274970"/>
<path d="M184.713 204.543C175.558 204.109 165.67 207.142 159.64 216.179C154.921 223.246 152.232 235.371 157.23 243.33C162.601 251.863 174.382 250.358 181.486 246.72C189.002 242.841 197.227 234.843 199.486 224.836C202.301 212.339 193.159 202.891 183.637 202.751C182.416 202.751 182.416 205.079 183.637 205.079C189.066 205.156 194.393 208.011 196.923 214.209C199.574 220.741 197.29 227.598 193.76 232.826C188.104 241.15 179.259 247.426 170.25 247.247C164.841 247.146 158.862 244.873 157.186 237.876C155.807 232.206 156.857 226.008 159.261 220.981C164.461 210.121 175.046 206.444 184.751 206.909C185.972 206.964 185.972 204.636 184.751 204.582L184.713 204.543Z" fill="#274970"/>
<path d="M175.621 221.78C175.231 221.602 174.81 221.549 174.399 221.625C173.987 221.7 173.597 221.902 173.267 222.212C172.936 222.522 172.674 222.929 172.506 223.396C172.338 223.863 172.269 224.374 172.306 224.883C172.496 227.908 175.216 228.761 177.26 228.583C179.025 228.397 181.087 227.598 180.467 224.89C180.353 224.411 180.156 223.968 179.89 223.59C179.624 223.213 179.294 222.91 178.924 222.703C178.357 222.428 177.743 222.334 177.139 222.431C176.905 222.431 174.761 223.393 175.672 222.237L174.179 221.997C174.344 222.197 174.471 222.441 174.55 222.709C174.629 222.978 174.658 223.265 174.634 223.548C174.637 223.751 174.683 223.95 174.767 224.124C174.851 224.299 174.971 224.444 175.114 224.544C175.258 224.645 175.42 224.699 175.585 224.7C175.751 224.7 175.913 224.649 176.058 224.549C176.275 224.438 176.513 224.403 176.745 224.448C176.978 224.494 177.195 224.617 177.373 224.806C177.551 224.995 177.683 225.24 177.753 225.516C177.824 225.791 177.83 226.085 177.772 226.364C177.721 226.633 177.749 226.915 177.851 227.161C177.953 227.407 178.123 227.601 178.33 227.708C178.537 227.816 178.769 227.83 178.984 227.749C179.199 227.668 179.384 227.496 179.506 227.264C180.138 225.868 180.904 223.091 179.955 221.632C179.322 220.647 178.101 220.942 177.342 221.516C176.873 221.923 176.437 222.382 176.039 222.889C175.273 223.719 174.773 224.107 175.058 222.517C175.533 219.623 177.785 217.319 179.841 216.164L178.449 214.853C177.719 218.215 176.415 221.348 174.621 224.045L176.241 224.867C176.195 223.802 176.418 222.745 176.88 221.842C177.342 220.938 178.021 220.231 178.822 219.817H177.892L178.386 220.81C178.202 222.276 180.031 222.905 180.214 221.423C180.455 219.507 179.468 217.017 177.639 217.955C175.457 219.073 174.324 222.137 174.368 224.867C174.368 225.798 175.444 226.52 175.994 225.697C178.006 222.7 179.475 219.212 180.303 215.465C180.347 215.243 180.337 215.01 180.275 214.794C180.213 214.579 180.101 214.39 179.952 214.251C179.804 214.112 179.626 214.029 179.44 214.012C179.254 213.994 179.068 214.044 178.905 214.154C177.009 215.205 175.408 216.915 174.299 219.073C173.527 220.624 172.559 223.044 173.344 224.828C173.472 225.114 173.646 225.365 173.854 225.568C174.062 225.771 174.301 225.921 174.557 226.01C174.813 226.098 175.081 226.124 175.345 226.085C175.609 226.046 175.864 225.943 176.096 225.783C176.681 225.357 177.215 224.835 177.684 224.231C177.918 223.975 178.177 223.533 178.487 223.455C178.765 223.223 178.753 223.355 178.443 223.867C178.439 224.67 178.248 225.456 177.892 226.132L179.626 227.024C179.782 226.299 179.764 225.535 179.573 224.823C179.383 224.111 179.028 223.482 178.553 223.012C178.077 222.542 177.5 222.251 176.892 222.174C176.285 222.097 175.672 222.238 175.128 222.579L176.557 223.587C176.587 222.6 176.334 221.631 175.843 220.849C175.768 220.698 175.667 220.57 175.546 220.473C175.425 220.377 175.289 220.315 175.146 220.292C175.003 220.269 174.858 220.285 174.722 220.34C174.585 220.395 174.46 220.486 174.356 220.608C173.394 221.842 173.211 223.975 174.419 225.115C175.324 225.961 175.767 225.115 176.76 224.922C180.132 224.386 178.164 226.248 176.975 226.31C176.443 226.38 175.905 226.333 175.387 226.17C174.067 225.622 173.985 224.916 175.14 224.053C176.273 224.619 176.76 222.369 175.646 221.811L175.621 221.78Z" fill="#274970"/>
<path d="M174.096 226.031C174.875 229.134 171.661 230.158 170.136 231.228C169.066 231.964 168.133 232.965 167.397 234.168C165.802 236.79 165.207 240.126 164.682 243.268C164.442 244.734 166.27 245.354 166.517 243.888C166.807 241.58 167.345 239.328 168.118 237.194C169.257 234.417 170.889 233.486 173.015 232.058C175.14 230.631 176.678 228.42 175.925 225.41C175.571 223.983 173.736 224.596 174.096 226.031Z" fill="#274970"/>
<path d="M177.26 224.472C176.807 224.548 176.394 224.83 176.102 225.26C175.809 225.69 175.658 226.239 175.678 226.799C175.678 227.722 176.178 228.312 176.519 229.048C177.33 230.556 177.949 232.207 178.354 233.943C178.658 235.611 178.955 238.598 178.247 240.149C176.937 243.027 174.571 242.476 172.553 242.476C170.655 242.476 169.187 243.252 169.25 240.009C169.288 238.187 170.326 236.34 171.148 234.905L169.415 234.626C169.78 236.995 169.973 239.399 169.99 241.809C169.99 242.887 171.338 243.485 171.756 242.391C172.773 239.767 173.58 237.029 174.166 234.215L172.3 233.905L172.629 239.8C172.634 240.052 172.705 240.294 172.832 240.492C172.959 240.69 173.134 240.833 173.333 240.899C173.531 240.965 173.741 240.951 173.932 240.86C174.123 240.768 174.285 240.603 174.394 240.39C174.615 240.09 174.778 239.731 174.868 239.342C174.932 238.978 174.349 236.519 174.115 237.395L175.975 237.706L176.108 232.105L174.21 232.415C174.611 233.994 174.732 235.661 174.565 237.302C174.444 238.598 176.222 238.892 176.463 237.612L177.652 230.088L175.918 230.359C176.33 231.4 176.444 232.581 176.241 233.711C176.102 235.2 178 235.184 178.139 233.711C178.3 232.166 178.098 230.597 177.557 229.188C177.461 228.994 177.321 228.838 177.154 228.74C176.987 228.642 176.8 228.605 176.616 228.635C176.432 228.664 176.26 228.759 176.119 228.907C175.978 229.054 175.876 229.249 175.824 229.467L174.628 236.992L176.494 237.302C176.684 235.453 176.539 233.575 176.07 231.802C176.007 231.535 175.868 231.305 175.677 231.153C175.487 231.001 175.259 230.937 175.034 230.974C174.809 231.01 174.603 231.145 174.451 231.352C174.3 231.56 174.215 231.827 174.21 232.105L174.077 237.706C174.077 239.063 175.615 239.257 175.944 238.016L176.045 237.636C176.089 237.438 176.09 237.229 176.047 237.03C176.005 236.832 175.922 236.65 175.805 236.503C173.837 233.881 173.438 238.055 172.755 239.21L174.527 239.8L174.198 233.905C174.128 232.648 172.61 232.26 172.331 233.594C171.797 236.218 171.055 238.772 170.117 241.22L171.888 241.809C171.868 239.19 171.656 236.578 171.256 234.005C171.091 232.935 169.946 232.981 169.522 233.726C168.257 235.96 166.068 240.84 167.757 243.516C169.231 245.843 173.869 244.943 175.849 244.796C178.974 244.579 180.107 242.15 180.448 238.536C180.611 236.805 180.532 235.052 180.214 233.354C180.043 232.438 178.316 226.636 177.797 226.752C179 226.481 178.487 224.231 177.291 224.503L177.26 224.472Z" fill="#274970"/>
<path d="M173.584 229.7L168.402 238.086L170.041 239.257L173.837 232.524L172.104 231.624L170.212 240.475C170.161 240.744 170.189 241.026 170.291 241.272C170.393 241.518 170.563 241.711 170.77 241.819C170.977 241.927 171.209 241.941 171.424 241.86C171.639 241.778 171.824 241.607 171.945 241.375C172.806 239.626 173.773 237.959 174.837 236.387L173.255 235.254C172.83 237.258 172.011 239.104 170.87 240.63L172.458 241.763C172.555 240.691 172.788 239.644 173.147 238.66C173.635 237.318 172.091 236.131 171.509 237.481C170.974 238.71 170.362 239.887 169.68 241.002L171.414 241.282L171.8 239.071L170.066 238.792L170.345 240.731C170.39 240.926 170.477 241.103 170.595 241.245C170.714 241.387 170.86 241.489 171.02 241.541C171.18 241.592 171.348 241.592 171.508 241.54C171.669 241.488 171.815 241.385 171.933 241.243C173.537 239.207 174.824 236.828 175.729 234.223H174.096C174.526 235.193 174.827 236.24 174.989 237.326C175.216 238.722 176.728 238.202 176.849 237.015C177.12 234.417 177.26 231.8 177.266 229.18H175.368V234.06C175.368 235.324 177.057 235.697 177.234 234.37C177.36 233.193 177.676 232.059 178.165 231.034H176.501C176.902 231.828 177.12 232.739 177.133 233.672C177.133 233.98 177.233 234.276 177.411 234.495C177.589 234.713 177.831 234.835 178.082 234.835C178.334 234.835 178.575 234.713 178.753 234.495C178.931 234.276 179.031 233.98 179.031 233.672L179.272 232.12H177.443C177.627 233.493 178.323 241.227 175.849 240.32C175.431 240.196 175.311 240.227 175.488 240.405L176.051 238.931L177.374 235.495L175.602 234.905C175.716 236.503 175.836 238.784 175.052 240.149C174.419 241.258 172.471 241.701 171.477 241.049C170.822 240.476 170.261 239.754 169.826 238.924L168.529 240.475C169.579 241.414 171.281 243.718 172.635 243.849C173.666 243.95 174.533 242.903 175.21 242.065C176.248 240.75 177.058 239.189 177.59 237.478C178.122 235.767 178.364 233.942 178.304 232.113C178.304 231.804 178.204 231.508 178.026 231.29C177.848 231.072 177.606 230.949 177.355 230.949C177.103 230.949 176.862 231.072 176.684 231.29C176.506 231.508 176.406 231.804 176.406 232.113V234.766C176.406 235.074 176.506 235.37 176.684 235.588C176.862 235.807 177.103 235.929 177.355 235.929C177.606 235.929 177.848 235.807 178.026 235.588C178.204 235.37 178.304 235.074 178.304 234.766V228.257C178.304 227.949 178.204 227.653 178.026 227.435C177.848 227.216 177.606 227.094 177.355 227.094C177.103 227.094 176.862 227.216 176.684 227.435C176.506 227.653 176.406 227.949 176.406 228.257C176.402 229.817 176.292 231.374 176.077 232.912L177.943 233.222C177.794 231.369 177.725 229.507 177.734 227.645C177.731 227.366 177.647 227.097 177.496 226.889C177.345 226.68 177.139 226.544 176.913 226.507C176.688 226.469 176.459 226.532 176.268 226.684C176.078 226.836 175.938 227.067 175.874 227.334C175.59 228.816 175.242 230.274 174.906 231.725L176.64 231.446L176.507 230.825C176.418 229.343 174.52 229.336 174.609 230.825C174.63 231.453 174.764 232.068 175.001 232.625C175.368 233.571 176.513 233.237 176.735 232.345C177.095 230.887 177.418 229.429 177.703 227.955L175.836 227.645C175.827 229.507 175.896 231.369 176.045 233.222C176.14 234.417 177.709 234.929 177.905 233.532C178.158 231.78 178.291 230.005 178.304 228.226H176.406V234.735H178.304V232.082H176.406C176.517 235.008 175.688 237.871 174.096 240.056C173.85 240.4 173.584 240.721 173.299 241.018C172.85 241.545 172.439 241.468 172.078 240.778C171.18 240.32 170.25 239.141 169.465 238.45C168.681 237.76 167.605 239.125 168.162 240.041C169.617 242.414 171.787 245.06 174.489 243.919C177.329 242.686 177.715 237.969 177.5 234.866C177.431 233.835 176.172 233.137 175.735 234.285C175.102 235.921 174.47 237.551 173.837 239.195C173.616 239.769 173.204 240.56 173.268 241.243C173.476 242.988 175.204 242.701 176.267 242.6C180.385 242.22 179.734 235.06 179.259 231.461C179.101 230.266 177.684 230.453 177.431 231.461C177.23 232.17 177.125 232.914 177.121 233.664H179.019C178.95 232.33 178.645 231.031 178.127 229.855C178.042 229.682 177.922 229.538 177.778 229.439C177.634 229.339 177.472 229.286 177.307 229.286C177.142 229.286 176.98 229.339 176.836 229.439C176.693 229.538 176.573 229.682 176.488 229.855C175.922 231.053 175.54 232.367 175.362 233.734L177.26 234.044V229.165C177.26 228.856 177.16 228.56 176.982 228.342C176.804 228.124 176.562 228.001 176.311 228.001C176.059 228.001 175.818 228.124 175.64 228.342C175.462 228.56 175.362 228.856 175.362 229.165C175.355 231.785 175.216 234.401 174.944 237L176.811 236.689C176.596 235.421 176.231 234.198 175.729 233.059C175.644 232.886 175.524 232.742 175.38 232.642C175.237 232.543 175.074 232.49 174.909 232.49C174.744 232.49 174.582 232.543 174.439 232.642C174.295 232.742 174.175 232.886 174.09 233.059C173.265 235.489 172.079 237.709 170.592 239.606L172.18 240.118L171.901 238.179C171.756 237.147 170.566 237.116 170.168 237.9C169.853 238.483 169.64 239.139 169.541 239.828C169.442 240.516 169.459 241.222 169.592 241.902C169.75 243.004 170.889 242.887 171.325 242.182C172.007 241.069 172.618 239.894 173.154 238.668L171.515 237.488C171.078 238.648 170.779 239.878 170.629 241.142C170.516 242.166 171.509 243.237 172.217 242.275C173.578 240.45 174.562 238.253 175.09 235.867C175.324 234.812 174.134 233.812 173.502 234.735C172.338 236.445 171.28 238.26 170.338 240.165L172.072 241.065L174.002 232.245C174.053 231.976 174.025 231.694 173.922 231.448C173.82 231.202 173.651 231.008 173.444 230.901C173.236 230.793 173.005 230.779 172.79 230.86C172.575 230.941 172.39 231.113 172.268 231.345L168.472 238.086C167.763 239.335 169.389 240.413 170.111 239.257L175.273 230.879C176.007 229.685 174.362 228.552 173.635 229.7H173.584Z" fill="#274970"/>
<path d="M254.299 257.696C261.891 252.002 267.927 243.508 274.633 236.402C281.909 228.7 289.545 221.524 297.409 214.729C312.682 201.541 328.72 189.743 344.745 177.975C344.953 177.814 345.101 177.56 345.16 177.267C345.218 176.975 345.181 176.666 345.057 176.405C344.934 176.145 344.732 175.954 344.496 175.872C344.259 175.79 344.006 175.823 343.79 175.966C327.764 187.733 311.72 199.509 296.447 212.72C289.241 218.925 282.206 225.504 275.462 232.485C268.123 240.087 261.588 249.551 253.319 255.687C252.275 256.463 253.23 258.48 254.274 257.696H254.299Z" fill="#274970"/>
<path d="M369.248 141.841C361.024 142.865 352.166 145.433 347.105 154.253C342.733 161.84 342.828 175.074 346.934 182.862C351.597 191.713 361.125 192.031 368.527 189.168C375.929 186.306 383.591 181.287 383.521 170.442C383.483 164.624 381.769 158.566 379.877 153.291C378.245 148.738 375.353 144.758 370.975 145.262C369.767 145.402 369.754 147.729 370.975 147.59C376.84 146.922 378.726 155.463 380.117 160.854C381.383 165.889 382.553 171.846 380.567 176.85C378.58 181.853 373.791 184.405 369.697 186.236C365.269 188.207 360.404 189.409 355.779 187.788C346.618 184.646 344.087 170.411 346.725 160.311C349.762 148.676 360.517 145.255 369.28 144.169C370.482 144.021 370.495 141.694 369.28 141.841H369.248Z" fill="#274970"/>
<path d="M381.902 231.826C373.677 232.85 364.82 235.417 359.758 244.237C355.387 251.824 355.481 265.058 359.587 272.846C364.25 281.697 373.778 282.015 381.18 279.153C388.582 276.29 396.244 271.271 396.174 260.427C396.136 254.609 394.422 248.55 392.53 243.275C390.898 238.722 388.007 234.742 383.629 235.247C382.42 235.386 382.408 237.713 383.629 237.574C389.494 236.907 391.379 245.447 392.771 250.839C394.036 255.873 395.206 261.831 393.22 266.834C391.233 271.837 386.444 274.39 382.351 276.22C377.922 278.191 373.057 279.393 368.432 277.772C359.271 274.63 356.74 260.395 359.379 250.296C362.415 238.66 373.171 235.239 381.933 234.153C383.135 234.005 383.148 231.678 381.933 231.826H381.902Z" fill="#274970"/>
<path d="M356.842 164.5L362.833 172.878C362.951 173.018 363.098 173.119 363.257 173.169C363.417 173.22 363.584 173.219 363.744 173.167C363.903 173.114 364.048 173.012 364.166 172.871C364.283 172.729 364.369 172.553 364.415 172.358C365.68 168.278 365.439 164.05 365.737 159.761C366.065 155.327 366.973 150.987 368.426 146.907C371.344 138.632 376.293 131.677 382.585 127.009C383.628 126.234 382.673 124.217 381.629 125C375.426 129.58 370.45 136.283 367.312 144.285C365.776 148.179 364.711 152.326 364.149 156.596C363.516 161.63 364.092 166.905 362.573 171.738L364.161 171.218L358.202 162.856C357.392 161.731 356.057 163.383 356.861 164.5H356.842Z" fill="#274970"/>
<path d="M257.356 266.764C289.988 265.544 322.63 265.285 355.279 265.988C356.501 265.988 356.501 263.661 355.279 263.661C322.638 262.948 289.997 263.206 257.356 264.437C256.135 264.484 256.128 266.811 257.356 266.764Z" fill="#274970"/>
<path d="M362.099 243.818C373.255 249.187 383.985 255.798 394.156 263.568C395.194 264.344 396.149 262.35 395.112 261.559C384.807 253.693 373.934 247.004 362.631 241.576C361.498 241.026 361.005 243.275 362.131 243.818H362.099Z" fill="#274970"/>
<path d="M382.357 233.276C371.045 249.446 364.492 269.807 363.751 291.091C363.7 292.588 365.598 292.588 365.648 291.091C366.367 270.418 372.723 250.639 383.698 234.921C384.489 233.788 383.154 232.136 382.357 233.276Z" fill="#274970"/>
<path d="M129.323 258.317L200.036 257.184L208.166 257.052C209.627 257.052 211.088 256.99 212.55 256.982C214.606 256.982 215.992 259.077 215.954 261.637C215.859 267.067 213.075 266.873 209.431 267.067L200.643 267.555L164.86 269.487C158.451 269.836 152.036 270.263 145.627 270.534C139.844 270.751 128.848 268.44 131.417 258.123C131.771 256.688 129.943 256.075 129.582 257.502C128.317 262.575 130.557 267.726 134.163 270.387C139.281 274.157 146.025 272.877 151.675 272.567L195.607 270.123L206.274 269.541C209.007 269.386 212.809 270.069 215.321 268.51C218.269 266.687 218.788 259.449 216.928 256.401C215.973 254.849 214.631 254.709 213.132 254.64C209.197 254.453 205.192 254.772 201.251 254.834L179.348 255.19L129.298 255.966C128.077 255.966 128.077 258.293 129.298 258.293L129.323 258.317Z" fill="#274970"/>
<path d="M415.022 543.396C413.427 544.621 411.605 545.312 409.96 546.39C408.315 547.468 406.715 549.09 406.246 551.324C406.072 552.017 406.101 552.764 406.329 553.434C406.738 554.243 407.364 554.852 408.1 555.156C411.442 556.975 415.051 557.94 418.707 557.991C422.364 558.041 425.99 557.177 429.364 555.451C430.551 554.751 431.778 554.155 433.034 553.666C434.581 553.279 436.155 553.082 437.734 553.077C439.394 552.958 441.045 552.699 442.675 552.301C443.495 552.189 444.272 551.794 444.915 551.161C445.502 550.332 445.855 549.292 445.921 548.197C446.67 542.154 445.541 535.986 442.758 530.914C442.407 530.203 441.937 529.593 441.378 529.122C440.698 528.691 439.949 528.445 439.183 528.401C436.02 527.928 432.705 527.059 429.51 526.966C427.219 526.904 426.068 528.238 424.448 530.17C421.101 534.273 419.147 540.239 415.022 543.396Z" fill="#323444"/>
<path d="M461.643 542.822C461.643 546.623 462.016 550.649 463.895 553.682C464.754 554.993 465.795 556.109 466.97 556.979C470.943 560.082 476.207 561.222 480.395 558.592C481.072 558.22 481.65 557.623 482.065 556.87C482.698 555.52 482.363 553.837 482.008 552.347L475.947 526.593C472.031 527.33 466.274 527.85 462.794 530.286C460.27 532.047 461.643 539.424 461.643 542.822Z" fill="#323444"/>
<path d="M411.466 384.24C411.099 385.66 409.771 386.319 409.043 387.514C408.189 388.918 408.278 390.865 408.588 392.571C408.971 395.088 409.935 397.417 411.365 399.281C412.091 400.205 412.987 400.902 413.977 401.315C414.968 401.728 416.024 401.845 417.059 401.655C419.096 401.182 420.855 398.971 420.925 396.434C420.888 395.281 420.687 394.144 420.33 393.075L416.015 377.778C415.998 377.67 415.961 377.568 415.909 377.478C415.857 377.389 415.789 377.314 415.711 377.258C415.549 377.214 415.378 377.25 415.237 377.359C414.218 377.949 412.175 378.569 411.58 379.865C410.985 381.16 411.897 382.836 411.466 384.24Z" fill="#FBB3B2"/>
<path d="M409.448 383.472C411.023 383.17 412.402 382.037 413.876 381.292C415.35 380.548 417.198 380.261 418.438 381.502C418.792 381.859 419.134 382.347 419.596 382.34C418.967 378.546 418.017 374.844 416.761 371.293C416.717 371.123 416.631 370.974 416.515 370.867C416.342 370.781 416.149 370.781 415.977 370.867L411.719 372.232C410.144 372.736 409.96 372.581 410.08 374.481C410.112 375.327 410.466 383.472 409.448 383.472Z" fill="#323444"/>
<path d="M408.979 273.009C408.347 274.203 408.347 275.693 408.347 277.097C408.347 283.962 408.404 290.866 409.232 297.661C409.429 299.29 409.675 300.919 409.802 302.564C409.945 304.853 409.975 307.151 409.89 309.445L409.258 339.31C409.182 342.964 409.03 346.889 407.189 349.759C406.631 350.721 406.368 351.895 406.449 353.071C406.93 360.565 407.942 367.996 408.948 375.404C410.567 374.509 412.337 374.096 414.112 374.2C415.887 374.303 417.616 374.921 419.159 376.002C422.351 363.695 424.117 350.9 424.404 337.991C424.549 331.638 424.328 325.246 425.125 318.97C426.46 308.405 425.916 297.568 424.935 286.941C424.625 283.574 423.967 280.107 422.208 277.5C420.543 275.22 418.326 273.654 415.882 273.032C413.541 272.28 411.447 273.055 408.979 273.009Z" fill="#5B5583"/>
<path opacity="0.1" d="M408.979 273.009C408.347 274.203 408.347 275.693 408.347 277.097C408.347 283.962 408.404 290.866 409.232 297.661C409.429 299.29 409.675 300.919 409.802 302.564C409.945 304.853 409.975 307.151 409.89 309.445L409.258 339.31C409.182 342.964 409.03 346.889 407.189 349.759C406.631 350.721 406.368 351.895 406.449 353.071C406.93 360.565 407.942 367.996 408.948 375.404C410.567 374.509 412.337 374.096 414.112 374.2C415.887 374.303 417.616 374.921 419.159 376.002C422.351 363.695 424.117 350.9 424.404 337.991C424.549 331.638 424.328 325.246 425.125 318.97C426.46 308.405 425.916 297.568 424.935 286.941C424.625 283.574 423.967 280.107 422.208 277.5C420.543 275.22 418.326 273.654 415.882 273.032C413.541 272.28 411.447 273.055 408.979 273.009Z" fill="black"/>
<path d="M416.711 359.619C412.467 386.28 414.784 413.886 423.366 438.929C424.108 440.783 424.628 442.758 424.91 444.793C425.258 448.594 423.828 452.248 423.012 455.925C421.114 464.287 422.209 473.193 423.423 481.749C423.929 485.317 424.45 488.883 424.986 492.446C425.511 495.921 426.017 499.699 424.701 502.848C425.834 508.635 426.504 514.368 427.637 520.155C427.757 520.613 427.794 521.097 427.744 521.575C427.516 522.332 427.114 522.992 426.587 523.475C425.742 524.524 425.136 525.825 424.826 527.249C424.517 528.673 424.515 530.172 424.821 531.597C427.713 529.052 431.743 529.945 435.045 531.597C438.348 533.249 441.6 535.475 445.168 535.475C444.649 530.34 444.149 524.949 445.693 520.132C446.591 517.339 448.173 514.702 448.129 511.715C448.084 509.039 446.75 506.65 446.427 504.004C446.307 502.359 446.358 500.701 446.579 499.071C447.426 489.576 446.465 479.988 445.503 470.508C445.394 468.639 445.035 466.805 444.44 465.078C443.991 463.961 443.32 462.891 443.333 461.642C443.333 460.191 444.288 459.012 444.643 457.631C445.275 455.087 444.111 451.627 445.864 450.053C450.482 445.895 448.711 435.965 448.61 428.945C448.529 422.889 448.319 416.839 447.977 410.793C450.885 420.818 452.074 431.471 451.469 442.086C451.267 445.561 450.893 449.215 452.001 452.426C452.848 454.893 454.531 456.926 454.987 459.54C455.272 461.153 455.069 462.821 455.132 464.466C455.196 466.11 455.651 467.902 456.809 468.732C456.897 476.21 457.442 484.208 457.536 491.686C457.475 495.509 457.729 499.329 458.296 503.089C458.58 504.285 458.737 505.521 458.764 506.766C458.621 508.327 458.284 509.852 457.764 511.288C456.662 515.291 456.373 519.564 456.925 523.735C457.476 527.906 458.85 531.848 460.928 535.22C462.421 531.969 465.533 530.247 468.57 529.976C471.607 529.704 474.606 530.643 477.548 531.589C477.098 527.057 477.833 522.466 479.648 518.479C480.135 517.581 480.508 516.598 480.755 515.563C481.097 513.592 480.3 511.63 479.87 509.683C479.167 506.58 479.414 503.236 479.578 499.994C480.131 489.134 479.738 478.233 478.408 467.475C478.203 465.356 477.797 463.274 477.2 461.27C476.972 460.556 476.694 459.873 476.504 459.152C476.205 457.858 476.035 456.524 475.998 455.18L475.27 442.769C474.758 434.073 477.086 425.485 478.712 416.999C479.439 413.198 480.23 409.405 480.717 405.541C481.382 400.282 481.489 394.906 482.463 389.717C483.336 385.062 484.912 380.524 485.241 375.754C485.747 368.361 483.242 361.216 480.812 354.437C479.8 351.644 475.972 351.923 473.511 351.427C456.056 347.913 437.671 347.89 421.209 355.81C419.506 356.674 417.973 357.973 416.711 359.619Z" fill="#3C354C"/>
<path d="M429.295 221.935L431.231 231.166C431.757 233.283 432.048 235.478 432.097 237.69C432.117 238.497 431.972 239.297 431.674 240.017C431.355 240.608 430.947 241.119 430.471 241.522C429.149 242.756 428.232 245.634 426.72 246.487C427.498 248.147 428.573 247.069 429.978 247.899C432.452 249.373 434.717 251.49 437.399 252.219C439.93 252.902 442.587 252.258 445.099 251.444C448.661 250.257 452.203 248.62 455.069 245.758C457.935 242.895 459.568 240.366 459.555 235.844C456.392 236.302 453.576 232.384 452.178 228.862C451.693 227.524 451.337 226.121 451.115 224.681L449.42 215.535C447.572 216.032 446.067 217.653 444.302 218.499C442.536 219.344 440.449 219.422 438.487 219.53C435.006 219.725 431.544 220.275 428.137 221.175C427.669 221.291 427.08 221.656 427.194 222.214" fill="#FBB3B2"/>
<path opacity="0.1" d="M429.295 221.935L431.231 231.166C431.757 233.283 432.048 235.478 432.097 237.69C432.117 238.497 431.972 239.297 431.674 240.017C431.355 240.608 430.947 241.119 430.471 241.522C429.149 242.756 428.232 245.634 426.72 246.487C427.498 248.147 428.573 247.069 429.978 247.899C432.452 249.373 434.717 251.49 437.399 252.219C439.93 252.902 442.587 252.258 445.099 251.444C448.661 250.257 452.203 248.62 455.069 245.758C457.935 242.895 459.568 240.366 459.555 235.844C456.392 236.302 453.576 232.384 452.178 228.862C451.693 227.524 451.337 226.121 451.115 224.681L449.42 215.535C447.572 216.032 446.067 217.653 444.302 218.499C442.536 219.344 440.449 219.422 438.487 219.53C435.006 219.725 431.544 220.275 428.137 221.175C427.669 221.291 427.08 221.656 427.194 222.214" fill="black"/>
<path d="M437.608 227.024C446.86 227.024 454.361 217.827 454.361 206.483C454.361 195.138 446.86 185.941 437.608 185.941C428.356 185.941 420.855 195.138 420.855 206.483C420.855 217.827 428.356 227.024 437.608 227.024Z" fill="#FBB3B2"/>
<path d="M442.22 240.343C443.116 237.97 444.409 235.856 446.016 234.137C448.376 231.6 451.602 229.545 452.159 225.759L457.271 233.059C457.549 233.397 457.765 233.805 457.904 234.253C457.968 234.674 457.959 235.107 457.876 235.523C457.793 235.939 457.639 236.329 457.423 236.666C456.158 239.141 454.165 240.909 452.279 242.701C447.958 246.898 443.821 251.372 439.886 256.106C439.712 256.353 439.48 256.526 439.221 256.602C438.977 256.61 438.736 256.526 438.532 256.362C435.136 254.176 432.131 251.18 429.693 247.549C429.51 247.278 429.282 246.968 428.985 246.991C428.805 247.031 428.64 247.137 428.51 247.293C426.808 249 424.948 251.04 422.766 250.776C425.594 248.286 427.194 244.128 427.789 239.916C427.907 238.475 428.148 237.052 428.51 235.673C428.698 234.983 429.021 234.36 429.451 233.86C429.882 233.359 430.406 232.996 430.978 232.803C429.598 235.386 430.541 239.047 432.395 241.134C434.196 243.009 436.355 244.292 438.671 244.865C440.822 245.362 441.455 242.375 442.22 240.343Z" fill="#323444"/>
<path d="M420.425 361.728C422.81 362.45 425.068 363.676 427.384 364.583C431.604 366.204 436.046 366.776 440.448 366.266C441.803 366.23 443.121 365.716 444.244 364.785C444.542 364.49 444.814 364.141 445.13 363.869C445.659 363.48 446.233 363.19 446.832 363.008C452.633 360.782 457.492 355.98 462.206 351.279C462.357 351.124 462.528 350.93 462.516 350.682C462.494 350.513 462.427 350.358 462.326 350.24L459.846 346.749C453.342 348.107 446.68 347.595 440.081 347.393C438.727 347.319 437.369 347.363 436.02 347.525C434.716 347.711 433.432 348.114 432.148 348.456C427.27 349.759 422.285 350.255 417.343 351.109C416.998 351.14 416.662 351.267 416.363 351.481C416.155 351.679 415.977 351.92 415.838 352.195L414.104 355.181C413.431 356.186 412.936 357.351 412.649 358.602C412.244 360.929 413.092 361.705 414.705 361.403C416.611 361.061 418.553 361.171 420.425 361.728Z" fill="#323444"/>
<path d="M439.815 252.553C437.88 250.121 435.686 248.021 433.293 246.308C432.326 245.555 431.253 245.029 430.129 244.757C429.564 244.62 428.981 244.637 428.421 244.806C427.862 244.974 427.339 245.291 426.89 245.734C426.327 246.347 425.973 247.2 425.429 247.844C424.744 248.55 423.959 249.094 423.113 249.45C420.233 250.959 417.503 252.867 414.977 255.136C413.6 256.317 412.359 257.721 411.289 259.31C408.423 263.809 407.992 269.929 408.068 275.639C408.125 279.61 411.232 282.558 413.37 285.529C415.376 288.453 417.191 291.565 418.798 294.838C419.95 297.072 421.152 299.492 421.006 302.153C420.886 304.333 419.849 306.381 420.013 308.553C420.07 309.328 420.272 310.042 420.329 310.794C420.443 312.346 419.944 313.897 419.817 315.449C419.646 317.644 420.228 319.824 420.26 322.035C420.237 323.548 420.08 325.054 419.792 326.526C418.577 333.616 417.052 340.745 417.362 347.983L413.857 348.758C414.189 349.157 414.44 349.647 414.589 350.187C414.738 350.726 414.782 351.302 414.716 351.866C414.65 352.43 414.476 352.968 414.21 353.434C413.943 353.901 413.59 354.284 413.18 354.553C418.653 356.795 424.568 355.662 430.37 355.655C435.172 355.655 439.955 356.43 444.75 356.322C449.546 356.213 454.493 355.15 458.447 351.823C459.523 350.923 460.51 349.868 461.642 349.084C463.159 348.12 464.794 347.465 466.482 347.145C469.61 346.414 472.789 346.065 475.972 346.105C477.529 346.105 479.224 346.183 480.464 345.035C481.831 343.763 482.179 341.459 482.362 339.372C482.546 337.169 482.659 334.958 482.691 332.747C482.744 331.026 482.67 329.302 482.47 327.597C482.28 326.35 482.033 325.117 481.729 323.904L479.344 313.603C478.357 309.352 479.73 304.689 480.021 300.283C480.091 299.244 480.104 298.034 479.452 297.367C479.218 297.126 478.895 296.963 478.819 296.591C478.785 296.414 478.781 296.231 478.807 296.052C478.833 295.873 478.889 295.703 478.971 295.551C480.236 292.449 482.134 289.71 483.868 286.91C486.779 281.998 489.482 276.905 491.966 271.651C491.188 260.658 487.413 250.307 481.249 242.267C479.983 240.584 478.535 238.97 476.763 238.21C475.605 237.776 474.405 237.539 473.195 237.504C468.235 237.093 463.072 236.728 458.751 233.672C458.441 233.408 458.09 233.226 457.72 233.137C456.765 233.005 456.069 234.161 455.449 235.076C453.854 237.403 451.507 238.737 449.445 240.452C445.598 243.655 442.593 248.062 439.815 252.553Z" fill="#5B5583"/>
<path d="M492.397 274.824C493.384 278.656 493.289 282.752 493.611 286.747C493.802 289.158 494.147 291.547 494.643 293.891C494.869 295.18 495.275 296.411 495.845 297.529C496.414 298.553 497.23 299.383 497.591 300.539C497.788 301.322 497.876 302.141 497.85 302.96L497.926 308.312C498.088 311.149 497.736 313.994 496.895 316.643L494.168 326.813C492.694 332.321 491.182 337.914 488.525 342.708C488.15 343.519 487.583 344.171 486.899 344.577C486.363 344.751 485.814 344.855 485.26 344.888C484.296 345.098 483.421 345.715 482.787 346.631C482.153 347.547 481.8 348.705 481.787 349.907C481.154 348.772 480.364 347.782 479.452 346.982L473.904 341.552C472.006 339.659 470.026 337.735 467.723 336.642C470.82 335.456 473.57 333.193 475.639 330.127C477.707 327.062 479.006 323.326 479.376 319.374C479.374 318.197 479.591 317.035 480.009 315.976C480.471 315.061 481.325 314.363 481.388 313.284C481.464 311.927 480.211 310.903 480.211 309.545C480.211 308.646 480.756 307.901 480.996 307.055C481.221 306.011 481.221 304.912 480.996 303.867L480.23 298.654C480.185 298.132 480.056 297.626 479.851 297.165C479.564 296.723 479.247 296.313 478.902 295.939C477.586 294.132 478.168 291.285 478.902 289.059C480.587 284.117 482.758 279.446 485.368 275.15C486.296 273.707 487.156 272.2 487.943 270.635C488.613 269.208 488.765 267.23 489.474 265.981C490.385 268.913 491.618 271.806 492.397 274.824Z" fill="#5B5583"/>
<path d="M467.526 336.96C467.244 337.217 467 337.531 466.805 337.89C466.06 339.038 465.067 339.906 463.939 340.396C464.572 340.955 465.147 341.505 465.742 342.072C470.142 346.238 474.171 350.963 477.763 356.167C478.161 354.421 480.546 354.545 481.129 352.877C481.266 352.4 481.309 351.89 481.255 351.388C481.134 348.775 480.829 346.18 480.344 343.631C480.152 342.319 479.72 341.077 479.079 340C478.193 338.689 476.814 338.061 475.498 337.518C473.505 336.665 469.551 335.462 467.526 336.96Z" fill="#323444"/>
<path d="M459.618 343.057C457.72 344.779 456.056 346.936 453.924 348.115C452.418 348.952 450.704 349.317 449.388 350.566C450.103 352.497 451.963 353.498 453.69 353.421C455.419 353.212 457.076 352.467 458.504 351.256C459.637 350.403 460.965 349.41 462.199 350.007C462.389 351.186 461.567 352.296 461.567 353.49C461.567 354.685 462.376 355.554 463.173 356.182C466.969 359.184 471.854 358.936 476.377 358.587C476.637 358.599 476.892 358.506 477.105 358.323C477.203 358.183 477.277 358.02 477.324 357.844C477.371 357.669 477.389 357.483 477.377 357.299C477.434 356.073 477.459 354.856 477.465 353.63C477.593 352.642 477.489 351.629 477.164 350.711C476.839 349.794 476.307 349.008 475.631 348.448C473.176 345.861 470.528 343.562 467.722 341.583C464.939 339.605 462.117 340.776 459.618 343.057Z" fill="#FBB3B2"/>
<path d="M443.491 197.895C440.682 198.306 438.639 200.998 438.923 203.923C439.208 206.847 441.713 208.864 444.522 208.445C447.331 208.026 449.375 205.342 449.09 202.426C448.806 199.509 446.3 197.484 443.491 197.895ZM444.447 207.638C442.068 207.988 439.948 206.273 439.702 203.806C439.455 201.34 441.195 199.059 443.567 198.71C445.94 198.361 448.065 200.075 448.312 202.542C448.559 205.009 446.819 207.289 444.447 207.638Z" fill="#3C354C"/>
<path d="M429.801 199.912C426.992 200.323 424.948 203.015 425.233 205.932C425.518 208.848 428.023 210.873 430.832 210.462C433.641 210.051 435.685 207.359 435.4 204.434C435.115 201.51 432.61 199.501 429.801 199.912ZM430.756 209.647C428.377 209.996 426.258 208.282 426.018 205.823C425.777 203.364 427.504 201.076 429.883 200.719C432.262 200.362 434.381 202.084 434.622 204.551C434.862 207.018 433.129 209.298 430.756 209.647Z" fill="#3C354C"/>
<path d="M419.633 201.409L425.739 203.007L425.138 204.978L419.38 202.906L419.633 201.409Z" fill="#3C354C"/>
<path d="M453.665 196.398L448.034 199.726L449.002 201.464L454.196 197.779L453.665 196.398Z" fill="#3C354C"/>
<path d="M434.837 202.511L439.12 201.883L438.899 203.186L435.223 203.488L434.837 202.511Z" fill="#3C354C"/>
<path d="M426.53 200.75C426.933 199.687 427.148 198.532 427.162 197.36C427.177 196.659 427.275 195.963 427.453 195.297C427.764 194.45 428.237 193.707 428.832 193.132C430.806 191.084 433.634 190.029 436.424 189.882C439.467 189.71 442.493 190.512 445.206 192.209C446.035 192.685 446.777 193.361 447.389 194.195C448.274 195.522 448.464 197.236 449.356 198.547C449.965 199.342 450.731 199.932 451.58 200.258C452.429 200.584 453.332 200.636 454.202 200.409C454.512 199.059 454.107 197.632 454.266 196.251C454.515 195.068 454.852 193.915 455.272 192.806C456.252 189.261 454.822 185.15 451.874 183.032C450.843 182.257 449.622 181.752 448.85 180.705C448.078 179.658 447.895 178.572 447.363 177.525C445.952 174.755 442.302 173.46 439.525 174.74C438.651 175.143 437.88 175.756 436.994 176.19C435.349 177.021 433.476 177.168 431.667 177.447C429.883 177.649 428.139 178.21 426.504 179.107C424.942 180.054 423.632 181.574 423.271 183.389C423.101 184.227 423.139 185.096 422.968 185.926C422.095 190.138 416.458 192.186 416.141 196.483C416.027 198.035 416.717 199.524 417.577 200.789C418.172 201.65 419.596 203.954 420.602 204.287C421.607 204.621 422.373 203.449 423.335 203.046C424.853 202.464 425.77 202.34 426.53 200.75Z" fill="#CBCEDA"/>
<path d="M497.9 473.968C497.9 512.941 517.842 544.482 542.484 544.482L497.9 473.968Z" fill="#46455B"/>
<path d="M542.484 544.49C542.484 505.075 564.742 473.185 592.243 473.185L542.484 544.49Z" fill="#274970"/>
<path d="M514.059 477.506C514.059 514.531 526.775 544.489 542.484 544.489L514.059 477.506Z" fill="#274970"/>
<path d="M542.484 544.49C542.484 494.129 568.208 453.373 599.994 453.373L542.484 544.49Z" fill="#46455B"/>
<path opacity="0.1" d="M540.555 557.956C546.677 557.956 551.639 556.928 551.639 555.66C551.639 554.392 546.677 553.364 540.555 553.364C534.433 553.364 529.471 554.392 529.471 555.66C529.471 556.928 534.433 557.956 540.555 557.956Z" fill="#274970"/>
<path d="M533.108 544.986C533.108 544.986 539.435 544.746 541.333 543.085C543.231 541.425 551.057 539.432 551.532 542.1C552.006 544.769 561.021 555.373 553.891 555.443C546.761 555.513 537.303 554.077 535.405 552.658C533.507 551.238 533.108 544.986 533.108 544.986Z" fill="#A8A8A8"/>
<path opacity="0.2" d="M554.024 554.512C546.888 554.582 537.442 553.147 535.538 551.727C534.089 550.649 533.513 546.762 533.317 544.978H533.108C533.108 544.978 533.507 551.231 535.411 552.65C537.316 554.07 546.761 555.505 553.898 555.435C555.96 555.435 556.669 554.512 556.631 553.185C556.346 553.992 555.593 554.496 554.024 554.512Z" fill="black"/>
<path d="M14.2285 496.744C14.2285 527.773 30.0894 552.844 49.6957 552.844L14.2285 496.744Z" fill="#46455B"/>
<path d="M49.6958 552.844C49.6958 521.489 67.4104 496.115 89.2816 496.115L49.6958 552.844Z" fill="#274970"/>
<path d="M27.0781 499.567C27.0781 529.045 37.2008 552.86 49.6959 552.86L27.0781 499.567Z" fill="#274970"/>
<path d="M49.6958 552.844C49.6958 512.778 70.1625 480.353 95.4501 480.353L49.6958 552.844Z" fill="#46455B"/>
<path opacity="0.1" d="M48.1587 563.565C53.0295 563.565 56.978 562.745 56.978 561.734C56.978 560.723 53.0295 559.903 48.1587 559.903C43.2879 559.903 39.3394 560.723 39.3394 561.734C39.3394 562.745 43.2879 563.565 48.1587 563.565Z" fill="#274970"/>
<path d="M42.2368 553.24C42.2368 553.24 47.2665 553.046 48.7786 551.688C50.2906 550.331 56.5224 548.779 56.8957 550.913C57.2689 553.046 64.456 561.47 58.7937 561.525C53.1313 561.579 45.5963 560.439 44.0842 559.314C42.5721 558.189 42.2368 553.24 42.2368 553.24Z" fill="#A8A8A8"/>
<path opacity="0.2" d="M58.8759 560.85C53.1819 560.904 45.6785 559.764 44.1664 558.631C43.015 557.778 42.5595 554.683 42.4013 553.263H42.2368C42.2368 553.263 42.5531 558.235 44.0652 559.368C45.5773 560.5 53.0997 561.633 58.7747 561.579C60.4133 561.579 60.9827 560.85 60.951 559.787C60.7233 560.407 60.0969 560.803 58.8759 560.85Z" fill="black"/>
<path opacity="0.1" d="M96.7085 410H51.7007C49.1046 410 47 412.58 47 415.764V424.405C47 427.588 49.1046 430.169 51.7007 430.169H96.7085C99.3046 430.169 101.409 427.588 101.409 424.405V415.764C101.409 412.58 99.3046 410 96.7085 410Z" fill="#274970"/>
</svg>
