<svg width="500" height="361" viewBox="0 0 500 361" fill="none" xmlns="http://www.w3.org/2000/svg">
<g clip-path="url(#clip0)">
<path d="M21.6688 181.94C27.0842 171.025 30.147 161.519 28.5099 160.706C26.8727 159.894 21.1555 168.083 15.74 178.998C10.3246 189.912 7.26176 199.419 8.89893 200.231C10.5361 201.043 16.2533 192.854 21.6688 181.94Z" fill="#E0E0E0"/>
<path d="M296.381 318.374C301.796 307.459 305.284 298.164 304.172 297.612C303.06 297.06 297.768 305.46 292.352 316.375C286.937 327.289 283.449 336.585 284.561 337.137C285.673 337.688 290.965 329.288 296.381 318.374Z" fill="#E0E0E0"/>
<path d="M148.758 263.197L138.551 254.769L110.457 288.792L120.664 297.22L148.758 263.197Z" fill="#F55F44"/>
<path opacity="0.05" d="M125.287 299.934L139.785 303.343L149.884 260.392L135.386 256.983L125.287 299.934Z" fill="black"/>
<path d="M126.9 300.313L139.785 303.343L149.884 260.392L136.999 257.362L126.9 300.313Z" fill="#F55F44"/>
<path d="M28.9997 159.718L8.4082 201.219L284.093 338.006L304.685 296.505L28.9997 159.718Z" fill="url(#paint0_linear)"/>
<path d="M284.584 337.018C279.188 334.429 4.94629 198.27 8.89876 200.231C24.12 176.999 28.5097 160.707 28.5097 160.707L304.195 297.493C304.195 297.493 294.513 314.484 284.584 337.018Z" fill="#F5F5F5"/>
<path opacity="0.05" d="M171.787 231.796L149.061 220.52L129.45 260.045L152.176 271.321L171.787 231.796Z" fill="black"/>
<path d="M170.799 231.306L150.049 221.01L130.438 260.535L151.188 270.831L170.799 231.306Z" fill="#F55F44"/>
<path opacity="0.05" d="M166.846 229.345L153.013 222.481L133.402 262.006L147.235 268.87L166.846 229.345Z" fill="black"/>
<path d="M165.858 228.855L154.001 222.972L134.39 262.496L146.247 268.38L165.858 228.855Z" fill="#F55F44"/>
<path d="M164.262 356.333C165.278 356.333 166.101 355.51 166.101 354.494C166.101 353.478 165.278 352.655 164.262 352.655C163.246 352.655 162.423 353.478 162.423 354.494C162.423 355.51 163.246 356.333 164.262 356.333Z" fill="#DBDBDB"/>
<g opacity="0.5">
<path opacity="0.5" d="M20.3634 302.994H18.4775V313.681H20.3634V302.994Z" fill="#47E6B1"/>
<path opacity="0.5" d="M24.7637 309.28V307.395H14.0771V309.28H24.7637Z" fill="#47E6B1"/>
</g>
<g opacity="0.5">
<path opacity="0.5" d="M495.6 169.727H493.714V180.414H495.6V169.727Z" fill="#47E6B1"/>
<path opacity="0.5" d="M500 176.013V174.127H489.314V176.013H500Z" fill="#47E6B1"/>
</g>
<g opacity="0.5">
<path opacity="0.5" d="M31.6788 37.0884H29.793V47.7749H31.6788V37.0884Z" fill="#47E6B1"/>
<path opacity="0.5" d="M36.0791 43.3746V41.4888H25.3926V43.3746H36.0791Z" fill="#47E6B1"/>
</g>
<g opacity="0.5">
<path opacity="0.5" d="M439.024 20.7446H437.138V31.4312H439.024V20.7446Z" fill="#47E6B1"/>
<path opacity="0.5" d="M443.424 27.0309V25.145H432.737V27.0309H443.424Z" fill="#47E6B1"/>
</g>
<path opacity="0.5" d="M7.7255 159.327C7.2058 159.101 6.78747 158.691 6.55013 158.177C6.3128 157.662 6.27304 157.078 6.43841 156.536C6.46518 156.453 6.48203 156.366 6.48864 156.279C6.50376 156.031 6.43847 155.784 6.30244 155.576C6.16641 155.368 5.96687 155.208 5.73338 155.122C5.49989 155.036 5.24486 155.028 5.00607 155.098C4.76729 155.168 4.55745 155.313 4.40763 155.512C4.35611 155.582 4.31309 155.659 4.27945 155.739C4.05311 156.259 3.64358 156.677 3.1288 156.915C2.61403 157.152 2.02995 157.192 1.48776 157.026C1.40464 157 1.31864 156.983 1.23157 156.976C0.98316 156.961 0.736486 157.026 0.528085 157.162C0.319684 157.298 0.160641 157.498 0.0745097 157.731C-0.0116221 157.965 -0.0202578 158.22 0.0498775 158.459C0.120013 158.697 0.265187 158.907 0.463905 159.057C0.534412 159.109 0.610752 159.152 0.69134 159.185C1.21104 159.412 1.62938 159.821 1.86671 160.336C2.10404 160.851 2.1438 161.435 1.97843 161.977C1.95167 162.06 1.93481 162.146 1.9282 162.233C1.91307 162.482 1.97837 162.728 2.1144 162.937C2.25044 163.145 2.44998 163.304 2.68347 163.39C2.91696 163.476 3.17198 163.485 3.41077 163.415C3.64955 163.345 3.85939 163.2 4.00921 163.001C4.06073 162.93 4.10376 162.854 4.13739 162.773C4.36373 162.254 4.77326 161.835 5.28804 161.598C5.80282 161.361 6.38689 161.321 6.92908 161.486C7.01221 161.513 7.0982 161.53 7.18527 161.537C7.43369 161.552 7.68036 161.486 7.88877 161.35C8.09717 161.214 8.25622 161.015 8.34235 160.781C8.42848 160.548 8.43712 160.293 8.36698 160.054C8.29685 159.815 8.15166 159.605 7.95294 159.456C7.88243 159.404 7.80609 159.361 7.7255 159.327Z" fill="#4D8AF0"/>
<path opacity="0.5" d="M115.848 35.4894C115.328 35.2631 114.91 34.8536 114.672 34.3388C114.435 33.824 114.395 33.2399 114.561 32.6977C114.587 32.6146 114.604 32.5286 114.611 32.4416C114.626 32.1931 114.561 31.9465 114.425 31.7381C114.288 31.5297 114.089 31.3706 113.855 31.2845C113.622 31.1983 113.367 31.1897 113.128 31.2598C112.889 31.33 112.68 31.4752 112.53 31.6739C112.478 31.7444 112.435 31.8207 112.402 31.9013C112.175 32.421 111.766 32.8394 111.251 33.0767C110.736 33.314 110.152 33.3538 109.61 33.1884C109.527 33.1616 109.441 33.1448 109.354 33.1382C109.105 33.1231 108.859 33.1884 108.65 33.3244C108.442 33.4604 108.283 33.66 108.197 33.8934C108.11 34.1269 108.102 34.382 108.172 34.6207C108.242 34.8595 108.387 35.0694 108.586 35.2192C108.657 35.2707 108.733 35.3137 108.813 35.3474C109.333 35.5737 109.751 35.9832 109.989 36.498C110.226 37.0128 110.266 37.5969 110.101 38.1391C110.074 38.2222 110.057 38.3082 110.05 38.3952C110.035 38.6437 110.1 38.8903 110.236 39.0987C110.373 39.3071 110.572 39.4662 110.806 39.5523C111.039 39.6385 111.294 39.6471 111.533 39.577C111.772 39.5068 111.981 39.3616 112.131 39.1629C112.183 39.0924 112.226 39.0161 112.259 38.9355C112.486 38.4158 112.895 37.9974 113.41 37.7601C113.925 37.5228 114.509 37.483 115.051 37.6484C115.134 37.6751 115.22 37.692 115.307 37.6986C115.556 37.7137 115.802 37.6485 116.011 37.5124C116.219 37.3764 116.378 37.1768 116.464 36.9433C116.551 36.7099 116.559 36.4548 116.489 36.2161C116.419 35.9773 116.274 35.7674 116.075 35.6176C116.005 35.5661 115.928 35.5231 115.848 35.4894Z" fill="#4D8AF0"/>
<path opacity="0.5" d="M247.858 356.714C247.339 356.487 246.92 356.078 246.683 355.563C246.446 355.048 246.406 354.464 246.571 353.922C246.598 353.839 246.615 353.753 246.621 353.666C246.637 353.417 246.571 353.171 246.435 352.962C246.299 352.754 246.1 352.595 245.866 352.509C245.633 352.422 245.378 352.414 245.139 352.484C244.9 352.554 244.69 352.699 244.54 352.898C244.489 352.968 244.446 353.045 244.412 353.125C244.186 353.645 243.776 354.063 243.262 354.301C242.747 354.538 242.163 354.578 241.621 354.413C241.537 354.386 241.451 354.369 241.364 354.362C241.116 354.347 240.869 354.412 240.661 354.549C240.453 354.685 240.293 354.884 240.207 355.118C240.121 355.351 240.113 355.606 240.183 355.845C240.253 356.084 240.398 356.293 240.597 356.443C240.667 356.495 240.744 356.538 240.824 356.571C241.344 356.798 241.762 357.207 242 357.722C242.237 358.237 242.277 358.821 242.111 359.363C242.084 359.446 242.068 359.532 242.061 359.619C242.046 359.868 242.111 360.114 242.247 360.323C242.383 360.531 242.583 360.69 242.816 360.776C243.05 360.863 243.305 360.871 243.544 360.801C243.782 360.731 243.992 360.586 244.142 360.387C244.194 360.317 244.237 360.24 244.27 360.16C244.497 359.64 244.906 359.222 245.421 358.984C245.936 358.747 246.52 358.707 247.062 358.872C247.145 358.899 247.231 358.916 247.318 358.923C247.567 358.938 247.813 358.873 248.022 358.737C248.23 358.601 248.389 358.401 248.475 358.167C248.561 357.934 248.57 357.679 248.5 357.44C248.43 357.201 248.285 356.992 248.086 356.842C248.015 356.79 247.939 356.747 247.858 356.714Z" fill="#4D8AF0"/>
<path opacity="0.5" d="M477.369 282.878C479.452 282.878 481.141 281.19 481.141 279.107C481.141 277.024 479.452 275.335 477.369 275.335C475.286 275.335 473.598 277.024 473.598 279.107C473.598 281.19 475.286 282.878 477.369 282.878Z" fill="#F55F44"/>
<path opacity="0.5" d="M394.392 306.766C396.475 306.766 398.164 305.077 398.164 302.994C398.164 300.911 396.475 299.223 394.392 299.223C392.309 299.223 390.62 300.911 390.62 302.994C390.62 305.077 392.309 306.766 394.392 306.766Z" fill="#4D8AF0"/>
<path opacity="0.5" d="M64.9953 343.854C67.0784 343.854 68.7671 342.166 68.7671 340.083C68.7671 338 67.0784 336.311 64.9953 336.311C62.9123 336.311 61.2236 338 61.2236 340.083C61.2236 342.166 62.9123 343.854 64.9953 343.854Z" fill="#47E6B1"/>
<path opacity="0.5" d="M258.611 7.54343C260.694 7.54343 262.382 5.85477 262.382 3.77171C262.382 1.68865 260.694 0 258.611 0C256.528 0 254.839 1.68865 254.839 3.77171C254.839 5.85477 256.528 7.54343 258.611 7.54343Z" fill="#F55F44"/>
<path d="M128.801 224.731L113.714 247.361C113.714 247.361 118.743 270.62 230.008 269.992C341.274 269.363 350.075 247.361 350.075 247.361L329.33 217.188L265.84 173.813L128.801 224.731Z" fill="#6C63FF"/>
<path opacity="0.15" d="M128.801 224.731L113.714 247.361C113.714 247.361 118.743 270.62 230.008 269.992C341.274 269.363 350.075 247.361 350.075 247.361L329.33 217.188L265.84 173.813L128.801 224.731Z" fill="black"/>
<path d="M449.71 140.81L251.695 228.189L10.3057 140.81L231.58 40.2314L340.199 90.3135L344.09 92.1114L449.71 140.81Z" fill="#6C63FF"/>
<path opacity="0.15" d="M449.71 140.81L251.695 228.189L10.3057 140.81L231.58 40.2314L340.199 90.3135L344.09 92.1114L449.71 140.81Z" fill="black"/>
<path d="M348.189 161.757L344.417 161.983L340.199 90.314L344.09 92.1118L348.189 161.757Z" fill="#F5F5F5"/>
<path d="M131.315 140.496L113.714 247.362C113.714 247.362 240.066 206.501 350.075 247.362L333.73 134.21C333.73 134.21 186.005 115.98 131.315 140.496Z" fill="#6C63FF"/>
<path d="M347.874 183.557C357.943 183.557 366.104 177.928 366.104 170.984C366.104 164.041 357.943 158.412 347.874 158.412C337.806 158.412 329.645 164.041 329.645 170.984C329.645 177.928 337.806 183.557 347.874 183.557Z" fill="#F5F5F5"/>
</g>
<defs>
<linearGradient id="paint0_linear" x1="146.251" y1="269.612" x2="166.842" y2="228.112" gradientUnits="userSpaceOnUse">
<stop stop-color="#808080" stop-opacity="0.25"/>
<stop offset="0.53514" stop-color="#808080" stop-opacity="0.12"/>
<stop offset="1" stop-color="#808080" stop-opacity="0.1"/>
</linearGradient>
<clipPath id="clip0">
<rect width="500" height="360.851" fill="white"/>
</clipPath>
</defs>
</svg>
