<svg width="500" height="391" viewBox="0 0 500 391" fill="none" xmlns="http://www.w3.org/2000/svg">
<g clip-path="url(#clip0)">
<path d="M168.089 345.305C97.0857 325.253 22.278 303.745 3.41263 217.33C-15.4527 130.915 68.1976 -34.3154 99.7716 32.368C131.594 99.5754 213.224 138.542 264.448 160.343C420.311 226.68 349.829 396.631 168.089 345.305Z" fill="#F2F2F2"/>
<path d="M168.278 344.619C129.846 333.764 89.6617 322.871 56.8837 299.08C40.593 287.256 26.9042 272.145 17.4509 254.326C8.04709 236.657 2.62533 217.144 1.56638 197.156C0.707664 179.389 2.84604 161.521 6.46874 144.147C10.2843 125.987 15.7144 108.205 22.6941 91.0119C28.8994 75.668 36.2776 60.6455 45.5129 46.8824C52.1267 37.0258 60.1018 26.5247 70.6919 20.6626C78.4447 16.3712 86.8392 16.6224 93.0863 23.3386C98.0552 28.6807 100.517 35.9034 104.048 42.1648C109.446 51.6474 115.736 60.594 122.831 68.8832C151.068 102.128 189.375 125.708 228.186 144.677C236.74 148.859 245.397 152.829 254.117 156.653C262.952 160.527 271.861 164.189 280.403 168.697C296.07 176.965 310.783 187.348 322.851 200.388C341.5 220.538 353.119 247.672 348.757 275.4C344.594 301.868 326.811 323.704 303.934 336.815C272.841 354.634 235.03 356.908 200.264 351.614C189.469 349.94 178.787 347.604 168.278 344.619C168.099 344.576 167.909 344.604 167.75 344.698C167.591 344.792 167.475 344.944 167.426 345.122C167.377 345.3 167.399 345.491 167.487 345.653C167.576 345.815 167.724 345.936 167.9 345.992C188.842 351.878 210.524 355.548 232.32 355.531C249.991 355.517 267.795 353.064 284.508 347.196C298.319 342.346 311.369 335.145 322.311 325.368C332.04 316.673 339.964 305.963 344.992 293.899C349.845 282.236 351.853 269.586 350.849 256.993C349.761 243.49 345.271 230.442 338.413 218.797C330.316 205.046 319.098 193.331 306.494 183.632C298.91 177.834 290.866 172.663 282.442 168.171C273.647 163.446 264.459 159.637 255.325 155.638C236.678 147.474 218.309 138.632 200.62 128.545C180.87 117.283 161.882 104.48 144.893 89.3261C127.817 74.0952 112.731 56.3492 102.295 35.8886C97.9139 27.3005 92.8565 16.6658 81.7608 16.1996C72.0625 15.7921 63.4062 23.2549 57.1504 29.8136C46.9232 40.5359 39.0614 53.5276 32.2931 66.63C23.9506 82.9255 17.1055 99.945 11.8421 117.479C6.42178 135.316 2.45803 153.686 0.773357 172.269C-0.820494 189.85 -0.111667 207.419 4.41625 224.533C9.87391 245.162 19.6484 264.479 33.9268 280.41C47.1431 295.157 63.6339 306.55 81.2279 315.462C99.5707 324.753 119.08 331.533 138.712 337.522C148.402 340.478 158.151 343.238 167.9 345.992C168.079 346.035 168.269 346.006 168.428 345.912C168.587 345.818 168.703 345.666 168.752 345.488C168.801 345.31 168.779 345.12 168.691 344.958C168.602 344.795 168.455 344.674 168.278 344.619Z" fill="#F2F2F2"/>
<path d="M311.128 72.4906C311.143 104.405 292.175 115.557 268.773 115.568C268.23 115.568 267.689 115.562 267.15 115.551C266.066 115.528 264.992 115.479 263.93 115.404C242.808 113.919 226.391 102.212 226.377 72.5318C226.362 41.8159 265.6 3.03408 268.543 0.166527C268.545 0.166527 268.546 0.166528 268.548 0.163922C268.66 0.0546371 268.717 0 268.717 0C268.717 0 311.112 40.5784 311.128 72.4906Z" fill="#6C63FF"/>
<path d="M267.229 110.687L282.717 89.0248L267.191 113.064L267.151 115.55C266.066 115.528 264.993 115.479 263.931 115.404L265.585 83.4751L265.572 83.2281L265.601 83.1812L265.758 80.1642L250.17 56.0803L265.804 77.904L265.843 78.5438L267.093 54.4205L253.746 29.5318L267.255 50.1811L268.544 0.166442L268.549 0L268.549 0.163837L268.35 39.6056L281.614 23.9629L268.294 43.0023L267.953 64.6023L280.341 43.8677L267.905 67.778L267.716 79.7887L285.695 50.9264L267.648 83.9787L267.229 110.687Z" fill="#3F3D56"/>
<path d="M313.585 67.27H111.053V358.683H313.585C314.911 358.684 316.224 358.423 317.449 357.916C318.673 357.408 319.786 356.665 320.724 355.727C321.661 354.79 322.405 353.677 322.912 352.452C323.419 351.227 323.68 349.914 323.68 348.588V77.3651C323.68 76.0393 323.419 74.7265 322.912 73.5016C322.405 72.2767 321.661 71.1637 320.724 70.2263C319.786 69.2888 318.673 68.5452 317.449 68.038C316.224 67.5307 314.911 67.2698 313.585 67.27V67.27ZM121.969 353.463C120.936 353.463 119.927 353.157 119.068 352.583C118.21 352.009 117.541 351.194 117.146 350.24C116.75 349.286 116.647 348.236 116.848 347.223C117.05 346.211 117.547 345.28 118.277 344.55C119.007 343.82 119.938 343.323 120.95 343.122C121.963 342.92 123.013 343.023 123.967 343.419C124.921 343.814 125.736 344.483 126.31 345.341C126.883 346.2 127.19 347.209 127.19 348.242C127.19 348.928 127.055 349.607 126.793 350.24C126.531 350.874 126.146 351.45 125.661 351.934C125.177 352.419 124.601 352.804 123.967 353.066C123.334 353.328 122.655 353.463 121.969 353.463V353.463ZM121.969 335.427C120.936 335.427 119.927 335.121 119.068 334.547C118.21 333.974 117.541 333.158 117.146 332.204C116.75 331.251 116.647 330.201 116.848 329.188C117.05 328.175 117.547 327.245 118.277 326.515C119.007 325.785 119.938 325.288 120.95 325.086C121.963 324.885 123.013 324.988 123.967 325.383C124.921 325.778 125.736 326.448 126.31 327.306C126.883 328.165 127.19 329.174 127.19 330.207C127.19 330.892 127.055 331.571 126.793 332.205C126.531 332.839 126.146 333.414 125.661 333.899C125.177 334.384 124.601 334.768 123.967 335.031C123.334 335.293 122.655 335.428 121.969 335.427V335.427ZM121.969 317.392C120.936 317.392 119.927 317.086 119.068 316.512C118.21 315.938 117.541 315.123 117.146 314.169C116.75 313.215 116.647 312.165 116.848 311.153C117.05 310.14 117.547 309.21 118.277 308.48C119.007 307.749 119.938 307.252 120.95 307.051C121.963 306.849 123.013 306.953 123.967 307.348C124.921 307.743 125.736 308.412 126.31 309.271C126.883 310.129 127.19 311.139 127.19 312.171C127.19 312.857 127.055 313.536 126.793 314.17C126.531 314.803 126.146 315.379 125.661 315.864C125.177 316.349 124.601 316.733 123.967 316.995C123.334 317.258 122.655 317.392 121.969 317.392V317.392ZM121.969 299.357C120.936 299.357 119.927 299.05 119.068 298.477C118.21 297.903 117.541 297.088 117.146 296.134C116.75 295.18 116.647 294.13 116.848 293.117C117.05 292.105 117.547 291.174 118.277 290.444C119.007 289.714 119.938 289.217 120.95 289.015C121.963 288.814 123.013 288.917 123.967 289.312C124.921 289.708 125.736 290.377 126.31 291.235C126.883 292.094 127.19 293.103 127.19 294.136C127.19 294.822 127.055 295.501 126.793 296.134C126.531 296.768 126.146 297.343 125.661 297.828C125.177 298.313 124.601 298.698 123.967 298.96C123.334 299.222 122.655 299.357 121.969 299.357V299.357ZM121.969 281.321C120.936 281.321 119.927 281.015 119.068 280.441C118.21 279.868 117.541 279.052 117.146 278.098C116.75 277.144 116.647 276.095 116.848 275.082C117.05 274.069 117.547 273.139 118.277 272.409C119.007 271.679 119.938 271.182 120.95 270.98C121.963 270.779 123.013 270.882 123.967 271.277C124.921 271.672 125.736 272.341 126.31 273.2C126.883 274.059 127.19 275.068 127.19 276.101C127.19 276.786 127.055 277.465 126.793 278.099C126.531 278.732 126.146 279.308 125.661 279.793C125.177 280.278 124.601 280.662 123.967 280.925C123.334 281.187 122.655 281.322 121.969 281.321V281.321ZM121.969 263.286C120.936 263.286 119.927 262.98 119.068 262.406C118.21 261.832 117.541 261.017 117.146 260.063C116.75 259.109 116.647 258.059 116.848 257.047C117.05 256.034 117.547 255.104 118.277 254.373C119.007 253.643 119.938 253.146 120.95 252.945C121.963 252.743 123.013 252.847 123.967 253.242C124.921 253.637 125.736 254.306 126.31 255.165C126.883 256.023 127.19 257.033 127.19 258.065C127.19 258.751 127.055 259.43 126.793 260.063C126.531 260.697 126.146 261.273 125.661 261.758C125.177 262.243 124.601 262.627 123.967 262.889C123.334 263.152 122.655 263.286 121.969 263.286V263.286ZM121.969 245.251C120.936 245.251 119.927 244.944 119.068 244.371C118.21 243.797 117.541 242.982 117.146 242.028C116.75 241.074 116.647 240.024 116.848 239.011C117.05 237.999 117.547 237.068 118.277 236.338C119.007 235.608 119.938 235.111 120.95 234.909C121.963 234.708 123.013 234.811 123.967 235.206C124.921 235.602 125.736 236.271 126.31 237.129C126.883 237.988 127.19 238.997 127.19 240.03C127.19 240.715 127.055 241.395 126.793 242.028C126.531 242.662 126.146 243.237 125.661 243.722C125.177 244.207 124.601 244.592 123.967 244.854C123.334 245.116 122.655 245.251 121.969 245.251V245.251ZM121.969 227.215C120.936 227.215 119.927 226.909 119.068 226.335C118.21 225.762 117.541 224.946 117.146 223.992C116.75 223.038 116.647 221.989 116.848 220.976C117.05 219.963 117.547 219.033 118.277 218.303C119.007 217.573 119.938 217.075 120.95 216.874C121.963 216.673 123.013 216.776 123.967 217.171C124.921 217.566 125.736 218.235 126.31 219.094C126.883 219.952 127.19 220.962 127.19 221.994C127.19 222.68 127.055 223.359 126.793 223.993C126.531 224.626 126.146 225.202 125.661 225.687C125.177 226.172 124.601 226.556 123.967 226.819C123.334 227.081 122.655 227.216 121.969 227.215V227.215ZM121.969 209.18C120.936 209.18 119.927 208.874 119.068 208.3C118.21 207.726 117.541 206.911 117.146 205.957C116.75 205.003 116.647 203.953 116.848 202.941C117.05 201.928 117.547 200.998 118.277 200.267C119.007 199.537 119.938 199.04 120.95 198.839C121.963 198.637 123.013 198.741 123.967 199.136C124.921 199.531 125.736 200.2 126.31 201.059C126.883 201.917 127.19 202.926 127.19 203.959C127.19 204.645 127.055 205.324 126.793 205.957C126.531 206.591 126.146 207.167 125.661 207.652C125.177 208.136 124.601 208.521 123.967 208.783C123.334 209.045 122.655 209.18 121.969 209.18V209.18ZM121.969 191.144C120.936 191.144 119.927 190.838 119.068 190.265C118.21 189.691 117.541 188.876 117.146 187.922C116.75 186.968 116.647 185.918 116.848 184.905C117.05 183.892 117.547 182.962 118.277 182.232C119.007 181.502 119.938 181.005 120.95 180.803C121.963 180.602 123.013 180.705 123.967 181.1C124.921 181.495 125.736 182.165 126.31 183.023C126.883 183.882 127.19 184.891 127.19 185.924C127.19 186.609 127.055 187.288 126.793 187.922C126.531 188.556 126.146 189.131 125.661 189.616C125.177 190.101 124.601 190.486 123.967 190.748C123.334 191.01 122.655 191.145 121.969 191.144V191.144ZM121.969 173.109C120.936 173.109 119.927 172.803 119.068 172.229C118.21 171.656 117.541 170.84 117.146 169.886C116.75 168.932 116.647 167.883 116.848 166.87C117.05 165.857 117.547 164.927 118.277 164.197C119.007 163.467 119.938 162.969 120.95 162.768C121.963 162.566 123.013 162.67 123.967 163.065C124.921 163.46 125.736 164.129 126.31 164.988C126.883 165.846 127.19 166.856 127.19 167.888C127.19 168.574 127.055 169.253 126.793 169.887C126.531 170.52 126.146 171.096 125.661 171.581C125.177 172.066 124.601 172.45 123.967 172.712C123.334 172.975 122.655 173.109 121.969 173.109V173.109ZM121.969 155.074C120.936 155.074 119.927 154.768 119.068 154.194C118.21 153.62 117.541 152.805 117.146 151.851C116.75 150.897 116.647 149.847 116.848 148.834C117.05 147.822 117.547 146.891 118.277 146.161C119.007 145.431 119.938 144.934 120.95 144.733C121.963 144.531 123.013 144.634 123.967 145.03C124.921 145.425 125.736 146.094 126.31 146.952C126.883 147.811 127.19 148.82 127.19 149.853C127.19 150.539 127.055 151.218 126.793 151.851C126.531 152.485 126.146 153.061 125.661 153.545C125.177 154.03 124.601 154.415 123.967 154.677C123.334 154.939 122.655 155.074 121.969 155.074V155.074ZM121.969 137.038C120.936 137.038 119.927 136.732 119.068 136.159C118.21 135.585 117.541 134.769 117.146 133.816C116.75 132.862 116.647 131.812 116.848 130.799C117.05 129.786 117.547 128.856 118.277 128.126C119.007 127.396 119.938 126.899 120.95 126.697C121.963 126.496 123.013 126.599 123.967 126.994C124.921 127.389 125.736 128.059 126.31 128.917C126.883 129.776 127.19 130.785 127.19 131.818C127.19 132.503 127.055 133.182 126.793 133.816C126.531 134.45 126.146 135.025 125.661 135.51C125.177 135.995 124.601 136.38 123.967 136.642C123.334 136.904 122.655 137.039 121.969 137.038V137.038ZM121.969 119.003C120.936 119.003 119.927 118.697 119.068 118.123C118.21 117.55 117.541 116.734 117.146 115.78C116.75 114.826 116.647 113.776 116.848 112.764C117.05 111.751 117.547 110.821 118.277 110.091C119.007 109.36 119.938 108.863 120.95 108.662C121.963 108.46 123.013 108.564 123.967 108.959C124.921 109.354 125.736 110.023 126.31 110.882C126.883 111.74 127.19 112.75 127.19 113.782C127.19 114.468 127.055 115.147 126.793 115.781C126.531 116.414 126.146 116.99 125.661 117.475C125.177 117.96 124.601 118.344 123.967 118.606C123.334 118.869 122.655 119.003 121.969 119.003V119.003ZM121.969 100.968C120.936 100.968 119.927 100.661 119.068 100.088C118.21 99.5141 117.541 98.6988 117.146 97.7448C116.75 96.7908 116.647 95.7411 116.848 94.7284C117.05 93.7157 117.547 92.7854 118.277 92.0553C119.007 91.3251 119.938 90.8279 120.95 90.6265C121.963 90.425 123.013 90.5284 123.967 90.9235C124.921 91.3187 125.736 91.9879 126.31 92.8464C126.883 93.705 127.19 94.7143 127.19 95.7469C127.19 96.4326 127.055 97.1117 126.793 97.7453C126.531 98.3788 126.146 98.9545 125.661 99.4394C125.177 99.9243 124.601 100.309 123.967 100.571C123.334 100.833 122.655 100.968 121.969 100.968V100.968ZM121.969 82.9323C120.936 82.9323 119.927 82.6261 119.068 82.0524C118.21 81.4788 117.541 80.6634 117.146 79.7094C116.75 78.7555 116.647 77.7058 116.848 76.693C117.05 75.6803 117.547 74.75 118.277 74.0199C119.007 73.2898 119.938 72.7925 120.95 72.5911C121.963 72.3897 123.013 72.493 123.967 72.8882C124.921 73.2833 125.736 73.9525 126.31 74.811C126.883 75.6696 127.19 76.679 127.19 77.7115C127.19 78.3973 127.055 79.0763 126.793 79.7099C126.531 80.3435 126.146 80.9192 125.661 81.404C125.177 81.8889 124.601 82.2735 123.967 82.5357C123.334 82.7979 122.655 82.9327 121.969 82.9323V82.9323Z" fill="#3F3D56"/>
<path d="M112.002 257.59C109.941 257.59 99.6621 257.487 99.6621 255.454C99.6621 253.594 108.377 253.353 111.048 253.324L111.058 254.273C105.278 254.337 101.537 254.967 100.718 255.454C101.59 255.974 105.758 256.641 112.002 256.641C117.992 256.641 122.071 256.027 123.163 255.518C122.663 255.343 121.405 255.045 118.245 254.665L118.359 253.722C123.913 254.39 124.342 254.862 124.342 255.454C124.342 257.487 114.063 257.59 112.002 257.59Z" fill="black"/>
<path d="M112.002 261.862C109.941 261.862 99.6621 261.759 99.6621 259.726C99.6621 257.866 108.377 257.625 111.048 257.595L111.058 258.544C105.278 258.608 101.537 259.238 100.718 259.726C101.59 260.245 105.758 260.912 112.002 260.912C117.843 260.912 121.868 260.329 123.077 259.828C121.995 259.541 119.337 259.23 117.795 259.051L116.821 258.936L116.935 257.993L117.905 258.108C123.71 258.785 124.342 259.034 124.342 259.726C124.342 261.759 114.063 261.862 112.002 261.862Z" fill="black"/>
<path d="M112.002 240.03C109.941 240.03 99.6621 239.927 99.6621 237.894C99.6621 236.034 108.377 235.793 111.048 235.763L111.058 236.712C105.278 236.776 101.537 237.406 100.718 237.894C101.59 238.413 105.758 239.08 112.002 239.08C117.992 239.08 122.071 238.467 123.163 237.958C122.663 237.783 121.405 237.484 118.245 237.104L118.359 236.161C123.913 236.83 124.342 237.301 124.342 237.894C124.342 239.927 114.063 240.03 112.002 240.03Z" fill="black"/>
<path d="M112.002 244.301C109.941 244.301 99.6621 244.198 99.6621 242.165C99.6621 240.305 108.377 240.064 111.048 240.035L111.058 240.984C105.278 241.048 101.537 241.678 100.718 242.165C101.59 242.685 105.758 243.352 112.002 243.352C117.843 243.352 121.868 242.768 123.077 242.267C121.995 241.98 119.337 241.67 117.795 241.49L116.821 241.376L116.935 240.433L117.905 240.547C123.71 241.224 124.342 241.474 124.342 242.165C124.342 244.198 114.063 244.301 112.002 244.301Z" fill="black"/>
<path d="M112.002 221.519C109.941 221.519 99.6621 221.416 99.6621 219.384C99.6621 217.524 108.377 217.283 111.048 217.253L111.058 218.202C105.278 218.266 101.537 218.896 100.718 219.384C101.59 219.903 105.758 220.57 112.002 220.57C117.992 220.57 122.071 219.956 123.163 219.448C122.663 219.272 121.405 218.974 118.245 218.594L118.359 217.651C123.913 218.319 124.342 218.791 124.342 219.384C124.342 221.416 114.063 221.519 112.002 221.519Z" fill="black"/>
<path d="M112.002 225.791C109.941 225.791 99.6621 225.688 99.6621 223.655C99.6621 221.795 108.377 221.554 111.048 221.524L111.058 222.474C105.278 222.538 101.537 223.167 100.718 223.655C101.59 224.175 105.758 224.842 112.002 224.842C117.843 224.842 121.868 224.258 123.077 223.757C121.995 223.47 119.337 223.16 117.795 222.98L116.821 222.865L116.935 221.923L117.905 222.037C123.71 222.714 124.342 222.964 124.342 223.655C124.342 225.688 114.063 225.791 112.002 225.791Z" fill="black"/>
<path d="M112.002 203.484C109.941 203.484 99.6621 203.381 99.6621 201.348C99.6621 199.488 108.377 199.247 111.048 199.218L111.058 200.167C105.278 200.231 101.537 200.861 100.718 201.348C101.59 201.868 105.758 202.535 112.002 202.535C117.992 202.535 122.071 201.921 123.163 201.412C122.663 201.237 121.405 200.939 118.245 200.559L118.359 199.616C123.913 200.284 124.342 200.756 124.342 201.348C124.342 203.381 114.063 203.484 112.002 203.484Z" fill="black"/>
<path d="M112.002 207.756C109.941 207.756 99.6621 207.653 99.6621 205.62C99.6621 203.76 108.377 203.519 111.048 203.489L111.058 204.438C105.278 204.502 101.537 205.132 100.718 205.62C101.59 206.14 105.758 206.806 112.002 206.806C117.843 206.806 121.868 206.223 123.077 205.722C121.995 205.435 119.337 205.124 117.795 204.945L116.821 204.83L116.935 203.887L117.905 204.002C123.71 204.679 124.342 204.928 124.342 205.62C124.342 207.653 114.063 207.756 112.002 207.756Z" fill="black"/>
<path d="M112.002 185.449C109.941 185.449 99.6621 185.346 99.6621 183.313C99.6621 181.453 108.377 181.212 111.048 181.183L111.058 182.132C105.278 182.196 101.537 182.826 100.718 183.313C101.59 183.833 105.758 184.5 112.002 184.5C117.992 184.5 122.072 183.886 123.164 183.377C122.664 183.202 121.406 182.903 118.246 182.523L118.359 181.581C123.913 182.248 124.342 182.72 124.342 183.313C124.342 185.346 114.063 185.449 112.002 185.449Z" fill="black"/>
<path d="M112.002 189.72C109.941 189.72 99.6621 189.617 99.6621 187.585C99.6621 185.725 108.377 185.484 111.048 185.454L111.058 186.403C105.278 186.467 101.537 187.097 100.718 187.585C101.59 188.104 105.758 188.771 112.002 188.771C117.844 188.771 121.869 188.187 123.077 187.687C121.995 187.399 119.332 187.089 117.788 186.909L116.822 186.795L116.935 185.852L117.897 185.966C123.709 186.643 124.342 186.893 124.342 187.585C124.342 189.617 114.063 189.72 112.002 189.72Z" fill="black"/>
<path d="M112.002 167.414C109.941 167.414 99.6621 167.311 99.6621 165.278C99.6621 163.418 108.377 163.177 111.048 163.147L111.058 164.097C105.278 164.161 101.537 164.791 100.718 165.278C101.59 165.797 105.758 166.464 112.002 166.464C117.992 166.464 122.072 165.851 123.164 165.342C122.664 165.167 121.406 164.868 118.246 164.488L118.359 163.546C123.913 164.213 124.342 164.684 124.342 165.278C124.342 167.311 114.063 167.414 112.002 167.414Z" fill="black"/>
<path d="M112.002 171.685C109.941 171.685 99.6621 171.582 99.6621 169.549C99.6621 167.69 108.377 167.449 111.048 167.419L111.058 168.368C105.278 168.432 101.537 169.062 100.718 169.549C101.59 170.069 105.758 170.736 112.002 170.736C117.844 170.736 121.869 170.152 123.077 169.651C121.995 169.364 119.332 169.053 117.788 168.873L116.822 168.76L116.935 167.817L117.897 167.93C123.709 168.608 124.342 168.857 124.342 169.549C124.342 171.582 114.063 171.685 112.002 171.685Z" fill="black"/>
<path d="M112.002 149.378C109.941 149.378 99.6621 149.275 99.6621 147.242C99.6621 145.382 108.377 145.141 111.048 145.112L111.058 146.061C105.278 146.125 101.537 146.755 100.718 147.242C101.59 147.762 105.758 148.429 112.002 148.429C117.992 148.429 122.072 147.815 123.164 147.306C122.664 147.131 121.406 146.832 118.246 146.452L118.359 145.51C123.913 146.177 124.342 146.649 124.342 147.242C124.342 149.275 114.063 149.378 112.002 149.378Z" fill="black"/>
<path d="M112.002 153.65C109.941 153.65 99.6621 153.547 99.6621 151.514C99.6621 149.654 108.377 149.413 111.048 149.383L111.058 150.333C105.278 150.396 101.537 151.026 100.718 151.514C101.59 152.033 105.758 152.7 112.002 152.7C117.844 152.7 121.869 152.117 123.077 151.616C121.995 151.328 119.332 151.018 117.788 150.838L116.822 150.724L116.935 149.782L117.897 149.895C123.709 150.572 124.342 150.822 124.342 151.514C124.342 153.547 114.063 153.65 112.002 153.65Z" fill="black"/>
<path d="M112.002 131.343C109.941 131.343 99.6621 131.24 99.6621 129.207C99.6621 127.347 108.377 127.106 111.048 127.077L111.058 128.026C105.278 128.09 101.537 128.72 100.718 129.207C101.59 129.727 105.758 130.394 112.002 130.394C117.992 130.394 122.072 129.78 123.164 129.271C122.664 129.096 121.406 128.797 118.246 128.417L118.359 127.475C123.913 128.142 124.342 128.614 124.342 129.207C124.342 131.24 114.063 131.343 112.002 131.343Z" fill="black"/>
<path d="M112.002 135.614C109.941 135.614 99.6621 135.511 99.6621 133.479C99.6621 131.619 108.377 131.378 111.048 131.348L111.058 132.297C105.278 132.361 101.537 132.991 100.718 133.479C101.59 133.998 105.758 134.665 112.002 134.665C117.844 134.665 121.869 134.081 123.077 133.581C121.995 133.293 119.332 132.983 117.788 132.803L116.822 132.689L116.935 131.747L117.897 131.86C123.709 132.537 124.342 132.787 124.342 133.479C124.342 135.511 114.063 135.614 112.002 135.614Z" fill="black"/>
<path d="M112.002 113.307C109.941 113.307 99.6621 113.204 99.6621 111.171C99.6621 109.312 108.377 109.071 111.048 109.041L111.058 109.99C105.278 110.054 101.537 110.684 100.718 111.171C101.59 111.691 105.758 112.358 112.002 112.358C117.992 112.358 122.072 111.744 123.164 111.235C122.664 111.06 121.406 110.761 118.246 110.382L118.359 109.439C123.913 110.106 124.342 110.578 124.342 111.171C124.342 113.204 114.063 113.307 112.002 113.307Z" fill="black"/>
<path d="M112.002 117.579C109.941 117.579 99.6621 117.476 99.6621 115.443C99.6621 113.584 108.377 113.343 111.048 113.313L111.058 114.262C105.278 114.326 101.537 114.956 100.718 115.443C101.59 115.963 105.758 116.63 112.002 116.63C117.844 116.63 121.869 116.046 123.077 115.545C121.995 115.258 119.332 114.947 117.788 114.767L116.822 114.654L116.935 113.711L117.897 113.824C123.709 114.502 124.342 114.751 124.342 115.443C124.342 117.476 114.063 117.579 112.002 117.579Z" fill="black"/>
<path d="M112.002 95.2721C109.941 95.2721 99.6621 95.1692 99.6621 93.1363C99.6621 91.2765 108.377 91.0355 111.048 91.0059L111.058 91.9551C105.278 92.019 101.537 92.6489 100.718 93.1363C101.59 93.6559 105.758 94.3228 112.002 94.3228C117.992 94.3228 122.072 93.7089 123.164 93.2003C122.664 93.0251 121.406 92.7261 118.246 92.3465L118.359 91.4042C123.913 92.0712 124.342 92.5428 124.342 93.1363C124.342 95.1692 114.063 95.2721 112.002 95.2721Z" fill="black"/>
<path d="M112.002 99.5435C109.941 99.5435 99.6621 99.4406 99.6621 97.4078C99.6621 95.548 108.377 95.307 111.048 95.2773L111.058 96.2266C105.278 96.2905 101.537 96.9204 100.718 97.4078C101.59 97.9273 105.758 98.5943 112.002 98.5943C117.844 98.5943 121.869 98.0105 123.077 97.5097C121.995 97.2221 119.332 96.9118 117.788 96.7318L116.822 96.618L116.935 95.6757L117.897 95.7888C123.709 96.4664 124.342 96.7158 124.342 97.4078C124.342 99.4406 114.063 99.5435 112.002 99.5435Z" fill="black"/>
<path d="M112.002 77.2369C109.941 77.2369 99.6621 77.134 99.6621 75.1011C99.6621 73.2414 108.377 73.0004 111.048 72.9707L111.058 73.9199C105.278 73.9839 101.537 74.6138 100.718 75.1011C101.59 75.6207 105.758 76.2877 112.002 76.2877C117.992 76.2877 122.072 75.6738 123.164 75.1651C122.664 74.9899 121.406 74.691 118.246 74.3114L118.359 73.3691C123.913 74.036 124.342 74.5076 124.342 75.1011C124.342 77.134 114.063 77.2369 112.002 77.2369Z" fill="black"/>
<path d="M112.002 81.5084C109.941 81.5084 99.6621 81.4055 99.6621 79.3726C99.6621 77.5129 108.377 77.2719 111.048 77.2422L111.058 78.1914C105.278 78.2554 101.537 78.8853 100.718 79.3726C101.59 79.8922 105.758 80.5592 112.002 80.5592C117.844 80.5592 121.869 79.9754 123.077 79.4746C121.995 79.187 119.332 78.8767 117.788 78.6966L116.822 78.5828L116.935 77.6406L117.897 77.7537C123.709 78.4313 124.342 78.6806 124.342 79.3726C124.342 81.4055 114.063 81.5084 112.002 81.5084Z" fill="black"/>
<path d="M112.002 276.1C109.941 276.1 99.6621 275.998 99.6621 273.965C99.6621 272.105 108.377 271.864 111.048 271.834L111.058 272.783C105.278 272.847 101.537 273.477 100.718 273.965C101.59 274.484 105.758 275.151 112.002 275.151C117.992 275.151 122.071 274.537 123.163 274.029C122.663 273.853 121.405 273.555 118.245 273.175L118.359 272.232C123.913 272.9 124.342 273.372 124.342 273.965C124.342 275.998 114.063 276.1 112.002 276.1Z" fill="black"/>
<path d="M112.002 280.372C109.941 280.372 99.6621 280.269 99.6621 278.236C99.6621 276.376 108.377 276.135 111.048 276.105L111.058 277.055C105.278 277.119 101.537 277.749 100.718 278.236C101.59 278.756 105.758 279.423 112.002 279.423C117.843 279.423 121.868 278.839 123.077 278.338C121.995 278.051 119.337 277.741 117.795 277.561L116.821 277.446L116.935 276.504L117.905 276.618C123.71 277.295 124.342 277.545 124.342 278.236C124.342 280.269 114.063 280.372 112.002 280.372Z" fill="black"/>
<path d="M112.002 293.661C109.941 293.661 99.6621 293.558 99.6621 291.525C99.6621 289.665 108.377 289.424 111.048 289.395L111.058 290.344C105.278 290.408 101.537 291.038 100.718 291.525C101.59 292.045 105.758 292.712 112.002 292.712C117.992 292.712 122.071 292.098 123.163 291.589C122.663 291.414 121.405 291.115 118.245 290.735L118.359 289.793C123.913 290.461 124.342 290.932 124.342 291.525C124.342 293.558 114.063 293.661 112.002 293.661Z" fill="black"/>
<path d="M112.002 297.932C109.941 297.932 99.6621 297.83 99.6621 295.797C99.6621 293.937 108.377 293.696 111.048 293.666L111.058 294.615C105.278 294.679 101.537 295.309 100.718 295.797C101.59 296.316 105.758 296.983 112.002 296.983C117.843 296.983 121.868 296.4 123.077 295.899C121.995 295.612 119.337 295.301 117.795 295.121L116.821 295.007L116.935 294.064L117.905 294.179C123.71 294.856 124.342 295.105 124.342 295.797C124.342 297.83 114.063 297.932 112.002 297.932Z" fill="black"/>
<path d="M112.002 312.171C109.941 312.171 99.6621 312.068 99.6621 310.035C99.6621 308.175 108.377 307.934 111.048 307.905L111.058 308.854C105.278 308.918 101.537 309.548 100.718 310.035C101.59 310.555 105.758 311.222 112.002 311.222C117.992 311.222 122.071 310.608 123.163 310.099C122.663 309.924 121.405 309.626 118.245 309.246L118.359 308.303C123.913 308.971 124.342 309.443 124.342 310.035C124.342 312.068 114.063 312.171 112.002 312.171Z" fill="black"/>
<path d="M112.002 316.443C109.941 316.443 99.6621 316.34 99.6621 314.307C99.6621 312.447 108.377 312.206 111.048 312.176L111.058 313.126C105.278 313.189 101.537 313.819 100.718 314.307C101.59 314.827 105.758 315.493 112.002 315.493C117.843 315.493 121.868 314.91 123.077 314.409C121.995 314.122 119.337 313.811 117.795 313.632L116.821 313.517L116.935 312.574L117.905 312.689C123.71 313.366 124.342 313.615 124.342 314.307C124.342 316.34 114.063 316.443 112.002 316.443Z" fill="black"/>
<path d="M112.002 329.732C109.941 329.732 99.6621 329.629 99.6621 327.596C99.6621 325.736 108.377 325.495 111.048 325.465L111.058 326.415C105.278 326.479 101.537 327.108 100.718 327.596C101.59 328.116 105.758 328.783 112.002 328.783C117.992 328.783 122.071 328.169 123.163 327.66C122.663 327.485 121.405 327.186 118.245 326.806L118.359 325.863C123.913 326.532 124.342 327.003 124.342 327.596C124.342 329.629 114.063 329.732 112.002 329.732Z" fill="black"/>
<path d="M112.002 334.003C109.941 334.003 99.6621 333.9 99.6621 331.867C99.6621 330.007 108.377 329.766 111.048 329.737L111.058 330.686C105.278 330.75 101.537 331.38 100.718 331.867C101.59 332.387 105.758 333.054 112.002 333.054C117.843 333.054 121.868 332.47 123.077 331.969C121.995 331.683 119.337 331.372 117.795 331.192L116.821 331.078L116.935 330.135L117.905 330.249C123.71 330.927 124.342 331.176 124.342 331.867C124.342 333.9 114.063 334.003 112.002 334.003Z" fill="black"/>
<path d="M112.002 347.767C109.941 347.767 99.6621 347.664 99.6621 345.631C99.6621 343.771 108.377 343.53 111.048 343.5L111.058 344.45C105.278 344.514 101.537 345.144 100.718 345.631C101.59 346.151 105.758 346.818 112.002 346.818C117.992 346.818 122.071 346.204 123.163 345.695C122.663 345.52 121.405 345.221 118.245 344.841L118.359 343.899C123.913 344.567 124.342 345.038 124.342 345.631C124.342 347.664 114.063 347.767 112.002 347.767Z" fill="black"/>
<path d="M112.002 352.039C109.941 352.039 99.6621 351.936 99.6621 349.903C99.6621 348.043 108.377 347.802 111.048 347.772L111.058 348.722C105.278 348.786 101.537 349.416 100.718 349.903C101.59 350.423 105.758 351.09 112.002 351.09C117.843 351.09 121.868 350.506 123.077 350.005C121.995 349.718 119.337 349.408 117.795 349.228L116.821 349.113L116.935 348.171L117.905 348.285C123.71 348.962 124.342 349.212 124.342 349.903C124.342 351.936 114.063 352.039 112.002 352.039Z" fill="black"/>
<path d="M500 357.971H23.0117V358.92H500V357.971Z" fill="#3F3D56"/>
<path d="M45.7286 77.2306C44.6021 77.2306 43.501 76.8966 42.5644 76.2708C41.6278 75.6449 40.8978 74.7555 40.4667 73.7148C40.0357 72.6741 39.9229 71.5289 40.1426 70.4241C40.3624 69.3193 40.9048 68.3045 41.7013 67.508C42.4979 66.7115 43.5127 66.169 44.6175 65.9493C45.7223 65.7295 46.8674 65.8423 47.9081 66.2734C48.9488 66.7045 49.8383 67.4344 50.4641 68.371C51.0899 69.3076 51.424 70.4088 51.424 71.5352C51.4223 73.0452 50.8217 74.4929 49.754 75.5606C48.6862 76.6283 47.2386 77.2289 45.7286 77.2306V77.2306ZM45.7286 66.7891C44.7899 66.7891 43.8723 67.0674 43.0918 67.5889C42.3113 68.1105 41.7029 68.8517 41.3437 69.719C40.9845 70.5862 40.8905 71.5405 41.0736 72.4612C41.2568 73.3818 41.7088 74.2275 42.3725 74.8913C43.0363 75.555 43.882 76.0071 44.8027 76.1902C45.7233 76.3733 46.6776 76.2793 47.5449 75.9201C48.4121 75.5609 49.1533 74.9525 49.6749 74.172C50.1964 73.3915 50.4747 72.4739 50.4747 71.5352C50.4733 70.2769 49.9728 69.0705 49.083 68.1808C48.1933 67.291 46.9869 66.7905 45.7286 66.7891V66.7891Z" fill="#3F3D56"/>
<path d="M66.2023 225.554H53.8623V213.214H66.2023V225.554ZM54.8115 224.605H65.2531V214.163H54.8115V224.605Z" fill="#3F3D56"/>
<path d="M183.896 52.0142L175.669 42.8173L184.866 34.5898L193.093 43.7868L183.896 52.0142ZM177.009 42.8919L183.971 50.6739L191.753 43.7122L184.791 35.9302L177.009 42.8919Z" fill="#3F3D56"/>
<path d="M285.474 144.869H166.346V198.975H285.474V144.869Z" fill="#6C63FF"/>
<path d="M178.608 181.136C186.31 178.897 194.357 178.086 202.352 178.745C210.628 179.451 218.629 181.931 226.802 183.291C234.318 184.544 241.921 185.201 249.54 185.256C256.123 185.301 264.181 185.821 270.01 182.223C270.788 181.742 270.074 180.51 269.291 180.993C265.904 183.085 262.036 183.422 258.146 183.632C254.225 183.844 250.3 183.892 246.369 183.776C238.426 183.547 230.517 182.653 222.723 181.104C215.358 179.637 208.095 177.622 200.564 177.194C193.028 176.789 185.477 177.657 178.229 179.763C178.053 179.818 177.905 179.939 177.816 180.101C177.728 180.264 177.706 180.454 177.755 180.632C177.804 180.81 177.921 180.962 178.08 181.056C178.239 181.15 178.428 181.178 178.608 181.136V181.136Z" fill="#F2F2F2"/>
<path d="M178.608 166.423C186.31 164.184 194.357 163.374 202.352 164.033C210.628 164.738 218.629 167.218 226.802 168.578C234.318 169.831 241.921 170.488 249.54 170.543C256.123 170.588 264.181 171.108 270.01 167.51C270.788 167.03 270.074 165.797 269.291 166.281C265.904 168.372 262.036 168.709 258.146 168.919C254.225 169.131 250.3 169.179 246.369 169.063C238.426 168.834 230.517 167.94 222.723 166.391C215.358 164.924 208.095 162.909 200.564 162.481C193.028 162.076 185.477 162.944 178.229 165.05C178.053 165.105 177.905 165.226 177.816 165.389C177.728 165.551 177.706 165.741 177.755 165.919C177.804 166.097 177.921 166.249 178.08 166.343C178.239 166.437 178.428 166.466 178.608 166.423V166.423Z" fill="#F2F2F2"/>
<path opacity="0.2" d="M323.681 292.052V348.588C323.681 349.914 323.42 351.227 322.913 352.452C322.406 353.677 321.662 354.79 320.725 355.727C319.787 356.665 318.674 357.408 317.45 357.915C316.225 358.423 314.912 358.684 313.586 358.683H237.249L323.681 292.052Z" fill="black"/>
<path opacity="0.2" d="M323.68 77.3646V131.38L222.905 67.2695H313.585C314.911 67.2693 316.224 67.5303 317.449 68.0375C318.674 68.5447 319.787 69.2883 320.724 70.2258C321.661 71.1632 322.405 72.2762 322.912 73.5011C323.419 74.726 323.68 76.0388 323.68 77.3646V77.3646Z" fill="black"/>
<path d="M349.602 189.352H348.652V359.098H349.602V189.352Z" fill="#3F3D56"/>
<path d="M349.31 344.55C359.533 344.55 367.82 325.638 367.82 302.31C367.82 278.981 359.533 260.069 349.31 260.069C339.087 260.069 330.8 278.981 330.8 302.31C330.8 325.638 339.087 344.55 349.31 344.55Z" fill="#3F3D56"/>
<path d="M349.31 248.204C359.533 248.204 367.82 229.292 367.82 205.963C367.82 182.634 359.533 163.722 349.31 163.722C339.087 163.722 330.8 182.634 330.8 205.963C330.8 229.292 339.087 248.204 349.31 248.204Z" fill="#3F3D56"/>
<path d="M349.765 171.452L348.855 171.18C348.913 170.988 354.493 151.864 345.33 139.554C340.155 132.601 331.274 129.075 318.935 129.075V128.126C331.593 128.126 340.73 131.781 346.094 138.99C355.541 151.687 349.823 171.256 349.765 171.452Z" fill="#3F3D56"/>
<path d="M318.935 140.466C325.488 140.466 330.8 135.154 330.8 128.601C330.8 122.048 325.488 116.735 318.935 116.735C312.382 116.735 307.069 122.048 307.069 128.601C307.069 135.154 312.382 140.466 318.935 140.466Z" fill="#6C63FF"/>
<path d="M318.827 131.892C320.834 131.892 322.461 130.265 322.461 128.258C322.461 126.251 320.834 124.624 318.827 124.624C316.82 124.624 315.193 126.251 315.193 128.258C315.193 130.265 316.82 131.892 318.827 131.892Z" fill="#D0CDE1"/>
<path d="M451.098 131.425L413.163 138.767V108.786L448.039 110.01L451.098 131.425Z" fill="#2F2E41"/>
<path d="M451.403 178.231L450.18 191.08L456.91 228.403C456.91 228.403 456.91 253.489 463.029 249.817C469.147 246.146 463.64 228.403 463.64 228.403V189.244L462.417 178.231H451.403Z" fill="#A0616A"/>
<path d="M395.725 180.066L395.113 189.244L377.534 232.918C377.534 232.918 363.546 245.759 371.682 251.459C379.817 257.16 384.712 237.58 384.712 237.58L403.679 200.257L405.515 180.066L395.725 180.066Z" fill="#A0616A"/>
<path d="M386.547 263.278L387.771 287.752C387.771 287.752 382.876 312.226 388.382 333.029L391.442 355.056L400.008 353.832L403.067 325.687C403.067 325.687 404.902 301.213 404.29 298.154L408.573 268.785L386.547 263.278Z" fill="#A0616A"/>
<path d="M426.93 270.62L436.719 304.272C436.719 304.272 437.943 318.956 445.285 333.029C452.627 347.101 453.851 354.444 453.851 354.444L463.641 353.22L459.97 325.687C459.97 325.687 455.687 294.482 452.016 290.811L448.344 271.232L426.93 270.62Z" fill="#A0616A"/>
<path d="M428.153 128.945C436.263 128.945 442.838 122.371 442.838 114.261C442.838 106.151 436.263 99.5767 428.153 99.5767C420.043 99.5767 413.469 106.151 413.469 114.261C413.469 122.371 420.043 128.945 428.153 128.945Z" fill="#A0616A"/>
<path d="M422.646 125.612C422.646 125.612 428.153 136.625 422.646 139.685C417.14 142.744 414.692 143.968 414.692 143.968C414.692 143.968 407.35 171.501 423.87 169.053C440.39 166.606 451.403 137.849 451.403 137.849C451.403 137.849 440.39 134.79 437.943 121.941L422.646 125.612Z" fill="#A0616A"/>
<path d="M418.517 156.893C417.482 156.242 416.634 155.334 416.053 154.258C415.472 153.183 415.178 151.976 415.201 150.753C415.191 148.553 415.891 146.408 417.198 144.638L419.535 141.397C419.535 141.397 407.962 138.461 400.008 151.31C392.054 164.159 381.041 181.902 390.83 183.738C400.62 185.573 403.679 185.573 403.679 185.573C403.679 185.573 403.067 192.916 396.337 199.646C389.607 206.376 361.462 257.16 374.922 263.278C388.383 269.397 453.239 282.858 455.687 273.068C458.134 263.278 443.45 202.093 443.45 202.093L448.344 182.514C448.344 182.514 486.891 183.738 481.996 175.784C477.101 167.83 468.535 137.237 452.627 137.237H449.794C449.794 137.237 437.08 152.026 428.045 157.058C426.592 157.901 424.937 158.331 423.258 158.302C421.579 158.273 419.939 157.786 418.517 156.893V156.893Z" fill="#2F2E41"/>
<path d="M452.627 353.22L450.792 364.845L450.18 379.53L454.463 380.142L455.686 372.188L458.134 385.036C458.134 385.036 462.417 391.767 469.759 390.543C477.101 389.319 468.535 374.635 468.535 374.635L464.864 351.997L452.627 353.22Z" fill="#2F2E41"/>
<path d="M401.844 351.996L403.679 363.621L404.291 378.306L400.008 378.918L398.784 370.963L396.337 383.812C396.337 383.812 392.054 390.543 384.712 389.319C377.37 388.095 385.936 373.411 385.936 373.411L389.607 350.772L401.844 351.996Z" fill="#2F2E41"/>
<path d="M422.341 166.3C423.693 166.3 424.788 165.204 424.788 163.852C424.788 162.501 423.693 161.405 422.341 161.405C420.989 161.405 419.894 162.501 419.894 163.852C419.894 165.204 420.989 166.3 422.341 166.3Z" fill="#6C63FF"/>
<path d="M419.587 182.514C420.939 182.514 422.034 181.418 422.034 180.067C422.034 178.715 420.939 177.619 419.587 177.619C418.235 177.619 417.14 178.715 417.14 180.067C417.14 181.418 418.235 182.514 419.587 182.514Z" fill="#6C63FF"/>
<path d="M417.14 199.034C418.491 199.034 419.587 197.938 419.587 196.587C419.587 195.235 418.491 194.139 417.14 194.139C415.788 194.139 414.692 195.235 414.692 196.587C414.692 197.938 415.788 199.034 417.14 199.034Z" fill="#6C63FF"/>
<path d="M416.528 216.166C417.88 216.166 418.976 215.07 418.976 213.718C418.976 212.367 417.88 211.271 416.528 211.271C415.177 211.271 414.081 212.367 414.081 213.718C414.081 215.07 415.177 216.166 416.528 216.166Z" fill="#6C63FF"/>
<path d="M412.857 230.85C414.208 230.85 415.304 229.754 415.304 228.402C415.304 227.051 414.208 225.955 412.857 225.955C411.505 225.955 410.409 227.051 410.409 228.402C410.409 229.754 411.505 230.85 412.857 230.85Z" fill="#6C63FF"/>
<path d="M411.022 247.37C412.373 247.37 413.469 246.274 413.469 244.922C413.469 243.571 412.373 242.475 411.022 242.475C409.67 242.475 408.574 243.571 408.574 244.922C408.574 246.274 409.67 247.37 411.022 247.37Z" fill="#6C63FF"/>
<path d="M421.608 95.547C417.543 94.8474 413.091 97.1539 411.823 100.616C411.416 101.727 411.303 102.926 410.712 103.972C410.079 105.092 408.957 105.934 408.137 106.958C407.442 107.812 406.97 108.825 406.763 109.906C406.557 110.988 406.622 112.104 406.953 113.154C407.349 114.362 408.102 115.486 408.27 116.734C408.32 116.996 408.297 117.267 408.203 117.516C408.038 117.806 407.808 118.053 407.529 118.237C406.207 119.277 404.934 120.363 403.709 121.493C402.46 122.646 401.177 124.138 401.646 125.674C401.837 126.159 402.082 126.62 402.375 127.05C402.95 128.049 403.251 129.181 403.249 130.332C403.246 131.484 402.94 132.615 402.361 133.611C401.824 134.533 401.063 135.348 400.58 136.293C402.64 135.772 404.465 134.575 405.764 132.894C404.65 135.608 400.741 136.635 399.09 139.13C400.222 139.135 401.338 138.858 402.336 138.324C401.5 138.872 400.72 139.499 400.005 140.198C401.633 139.825 403.139 139.044 404.381 137.928C403.27 138.742 402.485 139.925 402.167 141.265C406.739 141.344 411.22 140.253 415.624 139.171L423.015 137.355C423.504 137.29 423.959 137.071 424.314 136.729C424.529 136.404 424.611 136.008 424.545 135.624C424.389 133.752 423.37 132.023 422.25 130.423C421.403 129.215 420.493 128.051 419.524 126.937C418.515 125.777 417.427 124.649 416.706 123.334C415.129 120.457 415.496 117.088 415.898 113.915C416.016 112.981 416.172 111.974 416.917 111.299C417.21 111.032 417.578 110.836 417.885 110.581C418.939 109.706 419.106 108.319 419.431 107.078C419.921 105.257 420.837 103.578 422.103 102.18C422.569 101.662 423.188 101.135 423.939 101.17C425.355 101.236 426.415 102.202 427.158 103.263C427.835 104.344 428.412 105.486 428.882 106.672C430.203 109.545 432.373 112.442 435.762 113.307C437.068 113.64 438.503 113.654 439.677 114.257C440.227 114.558 440.708 114.97 441.091 115.466C441.474 115.962 441.75 116.532 441.902 117.14C442.163 118.308 442.234 119.511 442.11 120.702C441.885 124.809 441.455 128.902 440.82 132.966L458.405 133.189C458.092 130.844 457.239 128.603 455.913 126.643C457.972 126.86 460.044 126.915 462.11 126.807C461.368 125.406 459.237 125.232 457.644 124.573C457.43 124.501 457.239 124.376 457.087 124.209C456.946 123.978 456.889 123.704 456.927 123.435L457.007 120.714C457.08 120.08 456.984 119.439 456.729 118.854C456.413 118.272 455.799 117.852 455.45 117.285C454.595 115.898 455.543 114.111 454.922 112.631C454.402 111.394 452.951 110.701 451.684 109.991C449.94 109.014 448.311 107.76 447.459 106.104C447.06 105.329 446.845 104.492 446.526 103.689C445.473 101.031 443.29 98.7878 440.674 97.1612C437.96 95.5635 435.006 94.4166 431.925 93.7655C429.772 93.262 427.504 92.9059 425.325 93.3136C423.146 93.7212 421.069 95.0418 420.493 96.9311" fill="#2F2E41"/>
</g>
<defs>
<clipPath id="clip0">
<rect width="500" height="390.692" fill="white"/>
</clipPath>
</defs>
</svg>
