<svg width="500" height="389" viewBox="0 0 500 389" fill="none" xmlns="http://www.w3.org/2000/svg">
<g clip-path="url(#clip0)">
<path d="M146.085 0L66.4525 43.1333C67.8142 45.4776 68.6915 48.0713 69.0324 50.7609C69.3733 53.4505 69.1709 56.1811 68.4371 58.791C67.7033 61.4009 66.4531 63.8369 64.7606 65.9548C63.0681 68.0726 60.9677 69.8292 58.5839 71.1204C56.2 72.4117 53.5813 73.2112 50.8827 73.4718C48.1842 73.7324 45.4608 73.4486 42.874 72.6374C40.2871 71.8262 37.8894 70.5039 35.823 68.749C33.7565 66.9941 32.0633 64.8423 30.8437 62.421L3.69141 77.1283L74.0242 206.976L216.417 129.848L146.085 0Z" fill="#F2F2F2"/>
<path d="M47.7245 69.7454C56.8037 69.7454 64.1639 62.3853 64.1639 53.3061C64.1639 44.2268 56.8037 36.8667 47.7245 36.8667C38.6453 36.8667 31.2852 44.2268 31.2852 53.3061C31.2852 62.3853 38.6453 69.7454 47.7245 69.7454Z" fill="#6C63FF"/>
<path d="M346.043 347.612L432.142 319.528C431.225 316.976 430.829 314.267 430.978 311.56C431.128 308.853 431.818 306.204 433.01 303.769C434.202 301.334 435.871 299.163 437.917 297.384C439.963 295.606 442.346 294.256 444.923 293.416C447.501 292.575 450.221 292.26 452.922 292.49C455.623 292.72 458.251 293.489 460.649 294.753C463.048 296.017 465.168 297.749 466.885 299.848C468.601 301.946 469.879 304.368 470.643 306.969L500 297.393L454.206 157.001L300.249 207.22L346.043 347.612Z" fill="#F2F2F2"/>
<path d="M452.396 329.333C461.476 329.333 468.836 321.973 468.836 312.894C468.836 303.815 461.476 296.455 452.396 296.455C443.317 296.455 435.957 303.815 435.957 312.894C435.957 321.973 443.317 329.333 452.396 329.333Z" fill="#6C63FF"/>
<path d="M455.789 77.0215H58.2666V257.622H455.789V77.0215Z" fill="#3F3D56"/>
<path d="M449.23 83.5796H64.8242V247.532H449.23V83.5796Z" fill="white"/>
<path d="M410.134 239.713H372.803V252.325H410.134V239.713Z" fill="#3F3D56"/>
<path d="M370.785 249.298H343.544V252.829H370.785V249.298Z" fill="#6C63FF"/>
<path d="M96.1016 145.629H242.902L265.662 156.717L301.925 174.384L325.635 129.991H392.73" stroke="#3F3D56" stroke-width="2" stroke-miterlimit="10"/>
<path d="M153.825 145.629L164.709 171.357H191.446" stroke="#3F3D56" stroke-width="2" stroke-miterlimit="10"/>
<path d="M194.628 145.629L231.804 125.45H258.036" stroke="#3F3D56" stroke-width="2" stroke-miterlimit="10"/>
<path d="M153.611 150.169C156.118 150.169 158.151 148.137 158.151 145.629C158.151 143.122 156.118 141.089 153.611 141.089C151.103 141.089 149.07 143.122 149.07 145.629C149.07 148.137 151.103 150.169 153.611 150.169Z" fill="#6C63FF"/>
<path d="M195.987 150.169C198.494 150.169 200.527 148.137 200.527 145.629C200.527 143.122 198.494 141.089 195.987 141.089C193.479 141.089 191.446 143.122 191.446 145.629C191.446 148.137 193.479 150.169 195.987 150.169Z" fill="#6C63FF"/>
<path d="M265.604 156.728L268.63 201.625H294.863" stroke="#3F3D56" stroke-width="2" stroke-miterlimit="10"/>
<path d="M316.126 147.795L287.296 125.45H314.537" stroke="#3F3D56" stroke-width="2" stroke-miterlimit="10"/>
<path d="M363.748 129.991L391.72 152.187H417.953" stroke="#3F3D56" stroke-width="2" stroke-miterlimit="10"/>
<path d="M265.604 161.268C268.111 161.268 270.144 159.235 270.144 156.728C270.144 154.22 268.111 152.188 265.604 152.188C263.096 152.188 261.063 154.22 261.063 156.728C261.063 159.235 263.096 161.268 265.604 161.268Z" fill="#6C63FF"/>
<path d="M363.47 134.531C365.977 134.531 368.01 132.498 368.01 129.99C368.01 127.483 365.977 125.45 363.47 125.45C360.962 125.45 358.93 127.483 358.93 129.99C358.93 132.498 360.962 134.531 363.47 134.531Z" fill="#6C63FF"/>
<path d="M316.05 152.187C318.557 152.187 320.59 150.155 320.59 147.647C320.59 145.14 318.557 143.107 316.05 143.107C313.542 143.107 311.51 145.14 311.51 147.647C311.51 150.155 313.542 152.187 316.05 152.187Z" fill="#6C63FF"/>
<path d="M165.214 175.393H191.446" stroke="#3F3D56" stroke-width="2" stroke-miterlimit="10"/>
<path d="M408.39 45.5462C412.501 45.5462 415.834 42.2135 415.834 38.1024C415.834 33.9914 412.501 30.6587 408.39 30.6587C404.279 30.6587 400.946 33.9914 400.946 38.1024C400.946 42.2135 404.279 45.5462 408.39 45.5462Z" stroke="#3F3D56" stroke-width="2" stroke-miterlimit="10"/>
<path d="M76.6794 388.532C119.028 388.532 153.359 382.208 153.359 374.406C153.359 366.605 119.028 360.281 76.6794 360.281C34.3305 360.281 0 366.605 0 374.406C0 382.208 34.3305 388.532 76.6794 388.532Z" fill="#F2F2F2"/>
<path d="M129.34 249.035L115.66 255.937L116.545 257.7L130.225 250.798L129.34 249.035Z" fill="#6C63FF"/>
<path d="M127.117 236.199L126.502 239.886C126.502 239.886 127.424 265.39 120.664 257.401C113.903 249.412 118.513 238.657 118.513 238.657L120.356 235.584L127.117 236.199Z" fill="#FBBEBE"/>
<path d="M87.7844 118.202C87.7844 118.202 86.5553 131.108 85.9407 131.723C85.3262 132.337 95.1592 144.014 95.1592 144.014L103.763 136.024C103.763 136.024 103.148 124.348 104.992 121.89C106.836 119.431 87.7844 118.202 87.7844 118.202Z" fill="#FBBEBE"/>
<path opacity="0.1" d="M87.7844 118.202C87.7844 118.202 86.5553 131.108 85.9407 131.723C85.3262 132.337 95.1592 144.014 95.1592 144.014L103.763 136.024C103.763 136.024 103.148 124.348 104.992 121.89C106.836 119.431 87.7844 118.202 87.7844 118.202Z" fill="black"/>
<path d="M65.0462 353.58V364.642L60.7441 365.257L54.5986 363.413L56.442 351.736L65.0462 353.58Z" fill="#3F3D56"/>
<path d="M59.5141 359.111C59.5141 359.111 57.6705 354.194 54.5976 354.809C51.5248 355.424 50.9103 359.111 50.9103 359.111C50.9103 359.111 48.452 368.329 44.7646 371.402C41.0773 374.475 37.3899 382.464 44.7646 383.693C52.1394 384.923 58.285 381.85 58.285 381.235C58.285 380.621 60.1287 376.933 63.2015 376.319C66.2743 375.704 68.7326 375.09 68.7326 372.631C68.7326 370.173 66.8889 367.715 66.8889 367.715C66.8889 367.715 66.2743 356.058 65.0452 357.584C64.1952 358.79 63.5705 360.14 63.2015 361.569L59.5141 359.111Z" fill="#2F2E41"/>
<path d="M91.472 348.049L89.0137 357.267L95.1591 358.497L98.2318 355.424L98.8463 347.435L91.472 348.049Z" fill="#3F3D56"/>
<path d="M90.8572 356.038C90.8572 356.038 93.3155 354.195 94.5446 354.195H96.3883C96.3883 354.195 96.3883 349.893 99.4611 349.893C102.534 349.893 101.919 352.965 101.919 352.965C101.919 352.965 108.68 363.413 110.523 365.257C112.367 367.1 122.2 372.631 114.211 375.09C106.221 377.548 100.69 377.548 97.0029 373.246C97.0029 373.246 93.3155 371.402 90.8572 371.402C88.399 371.402 85.3262 370.173 85.3262 368.329C85.3262 366.486 87.1699 362.798 87.1699 362.798C87.1699 362.798 88.399 351.736 89.0135 352.965C89.6281 354.194 90.8572 356.038 90.8572 356.038Z" fill="#2F2E41"/>
<path d="M64.431 206.699V226.98C64.431 226.98 57.6708 266.312 57.6708 279.218C57.6708 292.123 47.2232 353.58 52.1397 354.809C57.0563 356.038 68.7329 357.882 69.3475 356.038C69.9621 354.194 74.264 295.811 74.8786 295.196C75.4931 294.582 88.3989 246.031 88.3989 246.031L90.8572 246.646L92.0863 301.956C92.0863 301.956 85.9407 351.736 89.0135 351.736C92.0863 351.736 104.992 351.121 104.992 347.434C104.992 343.747 111.752 275.53 111.752 275.53C111.752 275.53 119.742 221.449 116.669 215.918C113.596 210.387 113.596 207.314 113.596 207.314L64.431 206.699Z" fill="#2F2E41"/>
<path d="M97.925 127.728C104.713 127.728 110.216 122.225 110.216 115.437C110.216 108.648 104.713 103.146 97.925 103.146C91.1368 103.146 85.6338 108.648 85.6338 115.437C85.6338 122.225 91.1368 127.728 97.925 127.728Z" fill="#FBBEBE"/>
<path d="M95.1594 136.639C95.1594 136.639 87.4773 130.186 86.8628 127.728C86.8628 127.728 82.8681 131.723 82.8681 132.337C82.8681 132.952 65.6604 134.795 61.3585 139.712C57.0565 144.628 53.3691 155.076 53.3691 155.076L63.8167 174.742C63.8167 174.742 64.4313 185.804 64.4313 187.033C64.4313 188.262 61.3585 207.928 62.5876 208.543C63.8167 209.157 76.108 215.303 86.5555 214.074C97.0031 212.845 107.451 211.001 110.523 211.001C113.596 211.001 116.054 212.23 116.054 211.001C116.054 209.772 114.211 207.314 114.211 206.085C114.211 204.856 113.596 201.783 113.596 199.939C113.596 198.095 112.367 195.023 112.367 192.564C112.367 190.106 125.887 156.92 125.887 156.92C125.887 156.92 125.273 146.472 115.44 141.556C105.607 136.639 104.378 134.795 104.378 134.795C104.378 134.795 104.186 131.108 103.667 131.108C103.149 131.108 101.305 136.639 96.3885 137.254L95.1594 136.639Z" fill="#D0CDE1"/>
<path d="M61.9727 218.376L66.2748 225.136L77.3368 222.678L69.3475 213.459L61.9727 218.376Z" fill="#FBBEBE"/>
<path d="M122.2 152.003L125.887 156.92C125.887 156.92 133.262 192.565 132.033 205.47C130.804 218.376 129.575 228.209 129.575 228.209C129.575 228.209 132.033 237.428 130.189 237.428C128.346 237.428 117.284 238.042 117.284 236.198C117.284 234.355 118.513 222.678 118.513 222.678L115.44 195.637L108.68 186.419L122.2 152.003Z" fill="#D0CDE1"/>
<path d="M89.576 109.47C90.3295 109.15 91.2005 109.41 92.0073 109.273C92.9549 109.113 93.8026 108.411 94.7595 108.5C95.2129 108.584 95.6534 108.727 96.0697 108.925C96.2786 109.024 96.5053 109.078 96.7359 109.087C96.9666 109.095 97.1966 109.056 97.412 108.973C97.5147 108.926 97.6054 108.856 97.6777 108.769C97.75 108.682 97.802 108.58 97.83 108.47C97.8579 108.36 97.8611 108.246 97.8393 108.135C97.8175 108.024 97.7712 107.919 97.7039 107.828C98.5134 107.756 99.2787 107.427 99.8869 106.888C100.008 106.762 100.149 106.657 100.304 106.575C100.484 106.528 100.672 106.519 100.856 106.548C101.04 106.576 101.217 106.643 101.374 106.742L102.781 107.39C103.097 107.502 103.376 107.702 103.584 107.965C103.751 108.226 103.784 108.577 104.021 108.777C104.323 109.031 104.775 108.907 105.17 108.932C105.528 108.967 105.861 109.132 106.106 109.396C106.35 109.66 106.489 110.004 106.496 110.364C106.491 110.777 106.341 111.283 106.667 111.536C106.856 111.682 107.125 111.659 107.347 111.749C107.922 111.982 107.924 112.782 107.839 113.397C107.754 114.012 107.796 114.822 108.387 115.011C108.803 115.145 109.228 114.861 109.66 114.797C110.313 114.702 110.916 115.11 111.496 115.422C112.077 115.734 112.848 115.944 113.351 115.519C113.819 115.122 113.789 114.398 113.66 113.798C113.476 112.939 113.172 112.109 112.759 111.333C112.606 111.105 112.515 110.84 112.497 110.566C112.532 110.373 112.608 110.189 112.719 110.028C112.83 109.866 112.974 109.729 113.142 109.627C113.853 109.065 114.671 108.499 114.901 107.622C115.07 106.979 114.88 106.3 114.895 105.635C114.913 104.825 115.235 104.019 115.084 103.224C114.81 101.782 113.205 101.088 112.17 100.049C110.746 98.62 110.284 96.3351 108.604 95.2194C107.26 94.3267 105.503 94.4333 103.972 93.9226C102.291 93.3616 100.938 92.0726 99.2797 91.4474C98.3746 91.1136 97.4068 90.9842 96.4458 91.0685C95.4847 91.1528 94.5543 91.4487 93.721 91.9349C93.2263 92.3018 92.674 92.5839 92.0868 92.7699C91.5923 92.8272 91.0925 92.8214 90.5994 92.7526C89.6193 92.7021 88.6426 92.9036 87.7625 93.3379C87.4257 93.4726 87.1452 93.7186 86.9678 94.035C86.6709 94.6943 87.1022 95.7252 86.4514 96.0404C86.148 96.1874 85.7898 96.0466 85.4527 96.054C84.7972 96.0684 84.2929 96.6388 83.9811 97.2155C83.7379 97.8251 83.3888 98.387 82.9499 98.875C82.1486 99.5768 80.693 99.6927 80.4836 100.737C80.4799 101.179 80.505 101.621 80.5588 102.06C80.4983 102.985 79.5079 103.689 79.5596 104.615C79.6192 105.683 80.9762 106.205 81.339 107.211C81.6152 107.977 81.2517 108.806 81.0016 109.581C80.7515 110.356 80.676 111.35 81.322 111.846C81.5752 112.041 81.9009 112.12 82.1592 112.308C82.8276 112.794 82.8191 113.775 82.7449 114.598C82.7021 114.769 82.7019 114.948 82.7442 115.119C82.7865 115.29 82.8702 115.448 82.9877 115.579C83.0981 115.646 83.2214 115.688 83.3495 115.704C83.4776 115.719 83.6075 115.707 83.7305 115.668C84.1318 115.571 84.5091 115.393 84.839 115.144C85.169 114.896 85.4447 114.583 85.6494 114.224C85.8646 113.868 85.9079 113.555 86.2989 113.366C86.5642 113.238 86.8864 113.352 87.1565 113.186C88.4414 112.395 87.9991 110.138 89.576 109.47Z" fill="#2F2E41"/>
<path d="M55.2122 153.232L53.3685 155.076C53.3685 155.076 42.3064 188.262 45.9937 195.637C49.6811 203.012 57.0559 221.449 59.5141 220.834C61.9723 220.22 70.5762 214.689 70.5762 214.074C70.5762 213.46 60.1287 196.252 60.1287 196.252C60.1287 196.252 58.8995 192.564 59.5141 191.95C60.1286 191.335 60.1287 191.95 59.5141 190.721C58.8995 189.492 58.8995 190.721 60.1287 189.492C61.3578 188.262 61.3578 188.262 61.3578 187.648C61.3578 187.033 65.0452 171.669 65.0452 171.669L55.2122 153.232Z" fill="#D0CDE1"/>
<path d="M64.7383 225.443L78.2591 221.142L80.1024 225.443L65.3532 228.516L64.7383 225.443Z" fill="#2F2E41"/>
<path opacity="0.1" d="M64.7383 225.443L78.2591 221.142L80.1024 225.443L65.3532 228.516L64.7383 225.443Z" fill="black"/>
<path opacity="0.1" d="M83.1748 132.645L93.6224 141.248L94.8518 139.404L83.1748 132.645Z" fill="black"/>
<path opacity="0.1" d="M104.071 135.103L96.6963 139.405L97.3107 141.248L104.071 135.103Z" fill="black"/>
</g>
<defs>
<clipPath id="clip0">
<rect width="500" height="388.531" fill="white"/>
</clipPath>
</defs>
</svg>
