<svg width="500" height="373" viewBox="0 0 500 373" fill="none" xmlns="http://www.w3.org/2000/svg">
<g clip-path="url(#clip0)">
<path opacity="0.1" d="M491.805 165.947C491.715 166.476 491.625 167.005 491.526 167.534C488.325 185.539 483.099 202.897 475.329 218.835C475.074 219.364 474.814 219.893 474.55 220.421C469.563 230.471 463.439 239.914 456.299 248.567C452.428 253.236 448.208 257.669 443.189 260.87C436.155 265.354 427.931 267.177 419.849 268.668C411.451 270.222 402.944 271.501 394.456 272.917C391.447 273.408 388.457 273.923 385.486 274.461C377.286 275.943 369.147 277.657 361.202 279.928C351.378 282.76 341.847 286.409 332.877 291.579C332.159 291.988 331.45 292.408 330.748 292.839C330.044 293.264 329.332 293.698 328.647 294.142C327.963 294.586 327.273 295.025 326.594 295.473L325.546 296.182C325.201 296.408 324.861 296.654 324.521 296.88C323.511 297.569 322.515 298.297 321.519 298.995L321.481 299.024C320.825 299.496 320.173 299.968 319.522 300.44C315.844 303.164 312.247 306.015 308.664 308.876L306.402 310.684C305.235 311.609 304.067 312.533 302.9 313.455C302.215 313.998 301.521 314.536 300.832 315.074C300.331 315.466 299.836 315.858 299.326 316.245C296.772 318.214 294.185 320.14 291.546 321.981C290.918 322.42 290.281 322.859 289.658 323.289C284.375 326.902 278.756 329.997 272.88 332.532L272.804 332.565C269.91 333.799 266.931 334.826 263.891 335.638C262.149 336.111 260.407 336.484 258.642 336.776C253.938 337.59 249.137 337.673 244.408 337.022C235.113 335.705 226.403 331.357 217.131 329.903C198.002 326.933 179.426 336.512 161.425 344.032C157.019 345.876 152.564 347.607 148.06 349.225C145.077 350.301 142.079 351.326 139.067 352.298C120.718 358.233 101.81 362.278 82.6386 364.37C74.8114 365.224 66.6491 365.63 58.6803 365.016C55.671 364.795 52.6764 364.406 49.7106 363.85C39.6222 361.962 30.204 357.954 22.6176 350.632C16.3153 344.641 11.8682 336.809 8.47867 328.637C7.11592 325.355 5.91524 321.997 4.87665 318.563C3.24419 313.182 2.01804 307.685 1.20855 302.12C1.02444 300.865 0.859207 299.604 0.736465 298.344C0.49098 296.182 0.308439 294.01 0.188844 291.829C-0.472133 280.237 0.660039 268.613 3.54537 257.367C6.76028 244.908 12.1232 232.979 14.4836 220.402C14.5827 219.874 14.6724 219.345 14.7621 218.816C15.0769 216.928 15.316 215.005 15.4797 213.047C16.6694 197.667 12.0665 182.612 8.43146 167.534C8.304 167.005 8.17653 166.476 8.05379 165.947C7.66039 164.276 7.28744 162.603 6.93495 160.929C3.56898 144.982 2.64841 127.916 5.63671 112.002C5.73113 111.473 5.83971 110.94 5.94829 110.416C7.9641 100.559 11.5236 91.1832 16.9762 82.832C22.5704 74.2589 29.9161 67.1257 37.748 60.8564C41.5719 57.8036 45.5264 54.9475 49.6115 52.288C52.5479 50.3808 55.5377 48.5759 58.5811 46.8732C83.1721 33.1827 111.228 26.4933 138.968 27.9898C140.438 28.0653 141.904 28.166 143.368 28.2919C144.904 28.4241 146.435 28.5815 147.961 28.764C165.82 30.827 183.198 35.9397 200.471 41.5339C206.259 43.4223 212.033 45.3106 217.806 47.199C220.374 48.0361 222.941 48.8623 225.506 49.6774C238.087 53.6476 250.876 57.2308 263.783 59.9311C266.776 60.5606 269.765 61.1349 272.752 61.6542C283.136 63.5143 293.644 64.5968 304.188 64.8927C308.28 64.9934 312.371 64.9509 316.463 64.7653C318.53 64.6708 320.6 64.5324 322.671 64.3498C344.061 62.5181 364.686 56.3763 385.397 50.6074C388.39 49.7718 391.387 48.9409 394.366 48.1384C398.303 47.0809 402.245 46.0565 406.201 45.1123C430.835 39.1971 452.787 42.5961 475.688 54.7948C480.881 57.566 486.074 60.9083 489.284 66.0824C492.494 71.2564 493.273 77.6626 493.868 83.8281C494.708 92.5994 495.284 101.494 495.468 110.425C495.468 110.954 495.468 111.483 495.501 112.012C495.917 130.097 494.817 148.32 491.805 165.947Z" fill="#6C63FF"/>
<path opacity="0.1" d="M328.42 218.835H326.81V219.539V220.422H328.632L328.42 218.835ZM310.174 218.835C310.171 218.848 310.171 218.861 310.174 218.873L310.032 220.186V220.304V220.422H324.006V220.327L325.002 218.835H310.174ZM272.808 218.835V167.534H288.859C288.689 167.392 288.514 167.251 288.335 167.118L288.099 166.939C288 166.859 287.901 166.783 287.797 166.712C287.693 166.642 287.448 166.462 287.263 166.339C287.079 166.217 286.966 166.136 286.791 166.037L286.683 165.967H286.659H272.808V163.158L272.435 163.337L272.039 163.559H272.01L271.925 163.611L271.68 163.771C271.595 163.823 271.51 163.875 271.43 163.932C271.184 164.097 270.958 164.276 270.698 164.461L270.462 164.649C270.301 164.772 270.15 164.9 269.99 165.027C269.362 165.542 268.743 166.08 268.101 166.576C267.941 166.703 267.78 166.826 267.629 166.944C267.286 167.195 266.93 167.428 266.562 167.642C266.41 167.737 266.252 167.824 266.09 167.902L265.826 168.025L265.585 168.129C265.018 168.368 264.43 168.554 263.829 168.686V218.835H239.753C239.753 218.892 239.786 218.944 239.8 219.001C239.932 219.473 240.064 219.945 240.192 220.417H263.834V275.41H264.202L264.622 275.438L265.387 275.495L266.624 275.618L267.181 275.684L267.795 275.759H267.884C268.238 275.807 268.597 275.863 268.961 275.92L269.192 275.958L269.711 276.043L270.457 276.175L272.246 276.08L272.492 276.132C272.591 276.132 272.69 276.17 272.794 276.194V220.422H309.999V220.304V220.186L310.141 218.873C310.138 218.861 310.138 218.848 310.141 218.835H272.808ZM328.42 218.835H326.81V219.539V220.422H328.632L328.42 218.835ZM309.168 218.835L309.008 220.422H324.553L325.611 218.835H309.168ZM272.818 218.835V167.534H288.868C288.699 167.392 288.524 167.251 288.345 167.118L288.108 166.939C288.009 166.859 287.91 166.783 287.806 166.712C287.702 166.642 287.457 166.462 287.273 166.339C287.089 166.217 286.975 166.136 286.801 166.037L286.692 165.967H286.659H272.808V163.158L272.435 163.337L272.039 163.559H272.01L271.925 163.611L271.68 163.771C271.595 163.823 271.51 163.875 271.43 163.932C271.184 164.097 270.958 164.276 270.698 164.461L270.462 164.649C270.301 164.772 270.15 164.9 269.99 165.027C269.362 165.542 268.743 166.08 268.101 166.576C267.941 166.703 267.78 166.826 267.629 166.944C267.286 167.195 266.93 167.428 266.562 167.642C266.41 167.737 266.252 167.824 266.09 167.902L265.826 168.025L265.585 168.129C265.018 168.368 264.43 168.554 263.829 168.686V218.835H239.753C239.753 218.892 239.786 218.944 239.8 219.001C239.932 219.473 240.069 219.945 240.196 220.417H263.834V275.405L264.202 275.429L264.622 275.457L265.387 275.514L266.624 275.637L267.181 275.703L267.795 275.778H267.884C268.238 275.826 268.597 275.882 268.961 275.939L269.192 275.977L269.711 276.062L270.457 276.194L272.246 276.099L272.492 276.151C272.591 276.151 272.69 276.189 272.794 276.213V220.422H309.008L309.178 218.835H272.818ZM394.455 112.002H495.59C495.59 111.474 495.59 110.945 495.557 110.416H394.455V48.1292C391.453 48.9318 388.455 49.7627 385.486 50.5983V110.416H275.49L275.211 110.114L275.631 109.642L316.542 64.7419C312.451 64.9308 308.359 64.9733 304.268 64.8694L272.808 99.3788V61.6451C269.806 61.1258 266.816 60.5514 263.839 59.9219V97.6416L217.843 47.1898C212.07 45.3015 206.296 43.3801 200.508 41.5248L263.027 110.114L262.748 110.416H147.998V28.7454C146.469 28.5723 144.938 28.415 143.405 28.2733C141.941 28.1443 140.475 28.0436 139.005 27.9712V110.416H58.6182V46.8735C55.5686 48.573 52.5787 50.3779 49.6486 52.2883V110.416H5.92877C5.82019 110.94 5.7116 111.474 5.61719 112.002H49.6108V165.948H8.05315C8.17589 166.476 8.30336 167.005 8.43082 167.534H49.6297V218.835H14.7473C14.6576 219.364 14.5679 219.893 14.4688 220.422H49.6297V363.865C52.5955 364.42 55.5901 364.81 58.5994 365.031V220.422H139.005V352.313C142.02 351.334 145.018 350.31 147.998 349.24V220.422H263.82V335.658C266.86 334.845 269.838 333.818 272.733 332.584L272.808 332.551V220.422H385.457V274.461C388.444 273.923 391.434 273.409 394.427 272.918V220.422H474.526C474.79 219.893 475.05 219.364 475.305 218.835H394.455V167.534H491.53C491.629 167.005 491.719 166.476 491.809 165.948H394.455V112.002ZM58.623 112.002H139.005V165.948H58.6182L58.623 112.002ZM58.623 218.835V167.534H139.005V218.835H58.623ZM148.003 112.002H263.82V165.948H147.998L148.003 112.002ZM148.003 218.835V167.534H263.82V218.835H148.003ZM385.462 218.835H272.808V167.534H385.457L385.462 218.835ZM385.462 165.962H272.808V113.447L274.39 112.002H385.457L385.462 165.962ZM310.178 218.835C310.176 218.848 310.176 218.861 310.178 218.873L310.037 220.186V220.304V220.422H324.011V220.327L325.007 218.835H310.178ZM328.425 218.835H326.815V219.539V220.422H328.637L328.425 218.835ZM272.813 218.835V167.534H288.864C288.694 167.392 288.519 167.251 288.34 167.118L288.104 166.939C288.005 166.859 287.905 166.783 287.802 166.712C287.698 166.642 287.452 166.462 287.268 166.339C287.084 166.217 286.971 166.136 286.796 166.037L286.687 165.967H286.664H272.808V163.158L272.435 163.337L272.039 163.559H272.01L271.925 163.611L271.68 163.771C271.595 163.823 271.51 163.875 271.43 163.932C271.184 164.097 270.958 164.276 270.698 164.461L270.462 164.649C270.301 164.772 270.15 164.9 269.99 165.027C269.362 165.542 268.743 166.08 268.101 166.576C267.941 166.703 267.78 166.826 267.629 166.944C267.286 167.195 266.93 167.428 266.562 167.642C266.41 167.737 266.252 167.824 266.09 167.902L265.826 168.025L265.585 168.129C265.018 168.368 264.43 168.554 263.829 168.686V218.835H239.753C239.753 218.892 239.786 218.944 239.8 219.001C239.932 219.473 240.064 219.945 240.192 220.417H263.834V275.41H264.202L264.622 275.438L265.387 275.495L266.624 275.618L267.181 275.684L267.795 275.759H267.884C268.238 275.807 268.597 275.863 268.961 275.92L269.192 275.958L269.711 276.043L270.457 276.175L272.246 276.08L272.492 276.132C272.591 276.132 272.69 276.17 272.794 276.194V220.422H309.999V220.304V220.186L310.141 218.873C310.138 218.861 310.138 218.848 310.141 218.835H272.813Z" fill="#6C63FF"/>
<path opacity="0.1" d="M97.2681 74.8585H97.9857C97.7401 74.7164 97.5336 74.5157 97.3845 74.2743C97.2354 74.033 97.1484 73.7584 97.1312 73.4753C97.1312 72.38 98.4719 71.4878 100.11 71.4878H120.953C122.591 71.4878 123.931 72.38 123.931 73.4753C123.931 74.5658 122.591 75.4628 120.953 75.4628H120.259C120.503 75.6057 120.708 75.8068 120.857 76.048C121.005 76.2893 121.091 76.5633 121.108 76.846C121.108 77.7901 120.136 78.5644 118.833 78.7768H124.833C126.467 78.7768 127.807 79.669 127.807 80.7643C127.807 81.8595 126.467 82.747 124.833 82.747H103.967C102.334 82.747 100.993 81.8548 100.993 80.7643C100.993 79.8201 101.965 79.0459 103.268 78.8334H97.2681C95.6347 78.8334 94.2939 77.9412 94.2939 76.846C94.2939 75.7507 95.6252 74.8585 97.2681 74.8585Z" fill="#6C63FF"/>
<path opacity="0.1" d="M323.171 93.775H323.87C323.624 93.6321 323.417 93.4306 323.268 93.1884C323.119 92.9463 323.032 92.671 323.016 92.3871C323.016 91.2965 324.356 90.4043 325.994 90.4043H346.837C348.475 90.4043 349.816 91.2965 349.816 92.3871C349.816 93.4823 348.475 94.3745 346.837 94.3745H346.143C346.388 94.5183 346.593 94.7201 346.742 94.9622C346.89 95.2043 346.976 95.4791 346.993 95.7625C346.993 96.7067 346.02 97.4761 344.717 97.6886H350.718C352.351 97.6886 353.692 98.5855 353.692 99.6761C353.692 100.767 352.351 101.664 350.718 101.664H329.88C328.246 101.664 326.906 100.771 326.906 99.6761C326.906 98.7319 327.878 97.9577 329.181 97.75H323.171C321.538 97.75 320.197 96.853 320.197 95.7625C320.197 94.672 321.547 93.775 323.171 93.775Z" fill="#6C63FF"/>
<path opacity="0.1" d="M65.2945 174.724H65.9931C65.7484 174.58 65.5428 174.378 65.3946 174.136C65.2464 173.894 65.1601 173.619 65.1434 173.336C65.1434 172.245 66.4794 171.348 68.1175 171.348H88.9601C90.5982 171.348 91.939 172.245 91.939 173.336C91.939 174.431 90.5982 175.323 88.9601 175.323H88.2661C88.5109 175.467 88.7164 175.669 88.8646 175.911C89.0129 176.153 89.0991 176.428 89.1159 176.711C89.1159 177.655 88.1434 178.425 86.8404 178.637H92.8406C94.4788 178.637 95.8148 179.529 95.8148 180.625C95.8148 181.72 94.4788 182.612 92.8406 182.612H71.9933C70.3599 182.612 69.0192 181.715 69.0192 180.625C69.0192 179.68 69.9964 178.906 71.2947 178.694H65.2945C63.661 178.694 62.3203 177.802 62.3203 176.711C62.3203 175.621 63.661 174.724 65.2945 174.724Z" fill="#6C63FF"/>
<path d="M306.345 310.703C305.178 311.628 304.01 312.552 302.843 313.474C302.158 314.017 301.464 314.555 300.775 315.094C300.274 315.485 299.779 315.877 299.269 316.264C296.715 318.233 294.128 320.159 291.489 322C290.861 322.439 290.224 322.878 289.601 323.308C284.318 326.921 278.699 330.017 272.823 332.551L272.747 332.584V310.703H306.345Z" fill="#65617D"/>
<path d="M358.88 224.708L359.408 208.397C359.092 208.152 358.771 207.925 358.464 207.699C358.595 202.836 358.317 197.97 357.633 193.154C355.499 176.843 341.644 176.489 337.735 179.855C337.217 180.302 336.652 180.692 336.05 181.016C336.404 178.689 336.843 176.357 337.159 174.053C338.868 161.628 336.215 147.649 326.575 139.619C322.538 136.263 317.605 134.2 313.172 131.391C305.232 126.382 298.958 118.984 290.928 114.108C282.897 109.231 271.619 107.404 264.614 113.673C261.899 116.1 260.148 119.466 257.362 121.807C252.169 126.17 244.073 126.457 239.541 131.329C239.314 131.575 239.097 131.825 238.89 132.089C235.113 136.933 236.147 143.802 237.351 149.812C238.8 157.044 238.2 162.841 244.404 164.918C244.427 165.206 244.446 165.494 244.479 165.777C244.984 170.214 246.452 174.487 248.781 178.297C251.11 182.107 254.243 185.361 257.962 187.833L256.956 188.192C254.275 189.136 251.862 190.052 250.319 190.68C244.654 192.989 232.729 195.996 232.729 195.996C232.729 195.996 232.446 199.395 232.498 204.408C228.523 208.728 221.89 216.319 219.94 220.818C217.108 227.38 201.104 246.174 196.841 249.011C192.578 251.848 187.956 255.214 187.956 255.214C187.956 255.214 181.205 258.939 178.009 259.293C175.795 259.538 168.945 258.226 168.945 258.226C168.945 258.226 141.588 224.708 143.363 250.427C145.138 276.146 166.991 277.02 166.991 277.02L189.023 276.666C189.023 276.666 200.929 278.261 206.259 273.833C210.81 270.056 234.395 249.337 241.972 239.937C242.147 240.131 242.322 240.32 242.506 240.504C242.506 240.504 245.522 236.604 245.881 240.504C246.24 244.403 243.922 246.169 245.168 247.585C246.415 249.001 250.144 253.968 250.319 255.918C250.493 257.867 245.348 265.831 254.048 271.874C254.185 271.968 254.332 272.058 254.492 272.148C256.045 275.684 260.983 279.144 260.983 279.144L287.632 278.79L337.914 282.689C337.914 282.689 339.411 281.372 341.436 279.22C344.141 281.703 347.894 283.832 352.124 282.524C352.124 282.524 358.167 275.259 358.346 270.472C358.346 270.472 354.437 260.365 352.681 257.353C350.925 254.341 353.927 247.779 353.927 247.779C353.927 247.779 356.057 241.396 357.303 241.396C358.549 241.396 357.657 237.147 357.657 237.147C357.186 236.453 356.891 235.654 356.798 234.82C356.705 233.986 356.817 233.142 357.123 232.36C358.167 229.674 358.88 224.708 358.88 224.708Z" fill="url(#paint0_linear)"/>
<path d="M328.737 221.035L326.849 223.244L319.22 232.129L309.254 232.733L293.302 233.715C293.302 233.715 271.794 207.798 275.835 202.156C277.303 200.121 277.544 197.435 277.251 194.9C277.214 194.551 277.162 194.201 277.1 193.857C276.617 191.175 275.772 188.57 274.589 186.115L275.118 185.874L275.457 185.718L294.265 177.136L298.92 175.011C299.152 176.294 299.582 177.533 300.195 178.684C300.284 178.863 300.384 179.043 300.487 179.213C306.903 189.835 327.477 183.117 327.477 183.117L328.737 221.035Z" fill="#EE8E9E"/>
<path d="M356.547 207.774C356.406 214.204 355.358 216.98 355.358 216.98L328.737 221.035L327.741 214.124L323.799 186.833L327.5 183.131C328.979 183.45 330.511 183.426 331.978 183.059C333.446 182.692 334.81 181.993 335.964 181.017C339.84 177.665 353.592 178.019 355.707 194.235C356.328 198.72 356.609 203.246 356.547 207.774Z" fill="#EE8E9E"/>
<path d="M350.245 283.086C350.245 283.086 356.235 275.859 356.415 271.1L350.419 261.049L345.132 255.384L335.256 274.447C335.256 274.447 341.78 285.73 350.245 283.086Z" fill="#DFE5EE"/>
<path opacity="0.1" d="M350.245 283.086C350.245 283.086 356.235 275.859 356.415 271.1L350.419 261.049L345.132 255.384L335.256 274.447C335.256 274.447 341.78 285.73 350.245 283.086Z" fill="black"/>
<path d="M300.775 315.093C300.275 315.485 299.779 315.877 299.269 316.264C296.715 318.233 294.128 320.159 291.489 322C290.861 322.439 290.224 322.878 289.601 323.308H263.82H147.999H139.005L94.45 321.712L58.6187 321.41L49.6491 320.938L4.8954 318.577C3.25586 313.192 2.02339 307.691 1.20841 302.12C1.0243 300.865 0.85907 299.604 0.736328 298.344L49.6302 301.054L58.5999 301.559L138.987 306.043L147.98 306.544L263.801 313.011L272.714 313.512H272.79L300.775 315.093Z" fill="#D48A9B"/>
<path d="M361.173 279.928C351.349 282.76 341.818 286.41 332.848 291.579C332.135 291.99 331.432 292.41 330.719 292.839C330.006 293.269 329.303 293.699 328.618 294.142C327.934 294.586 327.245 295.025 326.565 295.474L325.517 296.182L324.492 296.88C323.482 297.574 322.486 298.297 321.49 298.995L321.452 299.024C320.796 299.496 320.144 299.968 319.493 300.44C315.815 303.164 312.218 306.015 308.635 308.876C307.88 309.48 307.123 310.083 306.364 310.684L302.871 313.455C302.186 313.998 301.492 314.537 300.803 315.075C300.303 315.467 299.807 315.858 299.297 316.245L272.86 314.985H272.785L263.872 314.57L147.998 309.079L139.005 308.65L58.6185 304.83L49.6489 304.401L1.20818 302.121C1.02407 300.865 0.85884 299.604 0.736098 298.344C0.490613 296.182 0.308072 294.01 0.188477 291.829L49.6442 274.362L58.6138 271.185L66.762 268.305L81.6091 269.079L115.925 270.84L139.019 272.054L148.013 272.526L153.758 272.828L155.132 272.903L203.483 275.429L203.993 275.462L225.567 276.586H225.812H225.954L228.111 276.694L235.466 277.081L244.663 277.553L247.694 277.714L248.265 277.747L252.551 277.969L253.774 278.03L257.867 278.247L259.496 278.337H259.548H259.887L263.716 278.54L269.645 278.852H269.674L271.515 278.946H271.713L272.813 279.007L275.513 279.149L277.874 279.272H277.898L280.546 279.409H280.588L282.595 279.517L284.134 279.597L289.596 279.885L290.578 279.937H290.918L291.39 279.966L292.99 280.051L293.708 280.088L299.278 280.376H299.788L308.012 280.306H308.069L339.335 280.051H339.934H340.567H342.427L352.492 279.97H353.993L361.173 279.928Z" fill="#EFC6CD"/>
<path d="M150.156 280.574L153.064 296.045L232.129 294.855C232.129 294.855 238.077 296.573 237.945 291.815C237.945 291.815 249.979 280.442 310.93 293.665L287.528 275.287L223.561 278.724L149.387 276.741L150.156 280.574Z" fill="#6C63FF"/>
<path d="M151.61 276.874L154.386 293.666C154.386 293.666 222.367 291.683 233.055 293.534L224.977 278.195C224.977 278.195 183.873 274.362 151.61 276.874Z" fill="white"/>
<path opacity="0.1" d="M151.61 276.874L154.386 293.666C154.386 293.666 222.367 291.683 233.055 293.534L224.977 278.195C224.977 278.195 183.873 274.362 151.61 276.874Z" fill="black"/>
<path d="M152.625 276.812L155.363 292.429C155.363 292.429 222.48 290.587 233.054 292.306L225.09 278.044C225.09 278.044 184.481 274.475 152.625 276.812Z" fill="white"/>
<path opacity="0.1" d="M153.857 277.293L156.525 291.9C156.525 291.9 222.168 290.177 232.53 291.786L224.741 278.441C224.741 278.441 185.02 275.089 153.857 277.293Z" fill="black"/>
<path d="M154.386 276.76L157.067 291.395C157.067 291.395 222.711 289.672 233.073 291.282L225.265 277.922C225.265 277.922 185.548 274.575 154.386 276.76Z" fill="white"/>
<path d="M107.942 237.043C107.942 237.043 111.379 241.533 106.361 248.317C101.342 255.101 97.1974 260.822 98.8733 265.052C98.8733 265.052 106.427 252.457 112.611 252.306C118.795 252.155 114.726 244.616 107.942 237.043Z" fill="#6C63FF"/>
<path opacity="0.1" d="M107.942 237.043C108.244 237.479 108.481 237.956 108.646 238.46C114.66 245.541 117.866 252.15 112.083 252.292C106.696 252.443 100.238 262.073 98.6895 264.509C98.743 264.692 98.8043 264.876 98.8736 265.062C98.8736 265.062 106.427 252.467 112.611 252.315C118.796 252.164 114.726 244.616 107.942 237.043Z" fill="black"/>
<path d="M114.329 242.77C114.329 244.347 114.15 245.631 113.933 245.631C113.716 245.631 113.536 244.347 113.536 242.77C113.536 241.193 113.758 241.93 113.975 241.93C114.192 241.93 114.329 241.189 114.329 242.77Z" fill="#FFD037"/>
<path d="M116.52 244.653C115.132 245.414 113.923 245.871 113.82 245.678C113.716 245.484 114.764 244.734 116.142 243.96C117.521 243.185 116.983 243.752 117.086 243.96C117.19 244.167 117.908 243.898 116.52 244.653Z" fill="#FFD037"/>
<path d="M89.8004 237.043C89.8004 237.043 86.3636 241.533 91.3866 248.317C96.4096 255.101 100.545 260.822 98.8739 265.052C98.8739 265.052 91.2969 252.457 85.1315 252.306C78.966 252.155 83.0165 244.616 89.8004 237.043Z" fill="#6C63FF"/>
<path opacity="0.1" d="M89.8004 237.043C89.5009 237.48 89.2641 237.957 89.097 238.46C83.0826 245.541 79.8771 252.15 85.6602 252.292C91.0467 252.443 97.5095 262.073 99.058 264.509C99.0076 264.692 98.9463 264.876 98.8739 265.062C98.8739 265.062 91.2969 252.467 85.1315 252.315C78.966 252.164 83.0165 244.616 89.8004 237.043Z" fill="black"/>
<path d="M83.4121 242.77C83.4121 244.347 83.5915 245.631 83.8087 245.631C84.0258 245.631 84.2052 244.347 84.2052 242.77C84.2052 241.193 83.9833 241.93 83.7662 241.93C83.549 241.93 83.4121 241.189 83.4121 242.77Z" fill="#FFD037"/>
<path d="M81.2227 244.653C82.6107 245.414 83.8239 245.871 83.9278 245.678C84.0316 245.484 82.9836 244.734 81.6051 243.96C80.2266 243.185 80.7648 243.752 80.661 243.96C80.5571 244.167 79.8348 243.898 81.2227 244.653Z" fill="#FFD037"/>
<path d="M117.341 258.995L117.171 260.412L116.93 262.39L116.831 263.216L116.591 265.199L116.487 266.025L116.241 268.008L113.494 290.536C113.248 292.547 109.962 294.114 105.997 294.114H91.7305C87.765 294.114 84.484 292.547 84.2385 290.536L81.4863 268.008L81.2455 266.025L81.1464 265.199L80.9009 263.216L80.8018 262.39L80.561 260.412L80.3863 258.995C80.2494 257.858 82.0245 256.899 84.2716 256.899H113.475C115.717 256.899 117.497 257.858 117.341 258.995Z" fill="#65617D"/>
<path d="M117.186 260.398L116.945 262.381H80.8023L80.5615 260.398H117.186Z" fill="#9D9CB5"/>
<path d="M116.846 263.207L116.605 265.189H81.1469L80.9014 263.207H116.846Z" fill="#9D9CB5"/>
<path d="M116.501 266.015L116.261 267.993H81.4869L81.2461 266.015H116.501Z" fill="#9D9CB5"/>
<path d="M160.91 257.173C160.91 257.173 151.742 248.359 152.096 259.817C152.45 271.274 160.91 257.173 160.91 257.173Z" fill="#EE8E9E"/>
<path d="M243.237 237.077C243.034 237.964 242.047 239.437 240.508 241.283C232.559 250.857 209.941 270.755 205.508 274.447C200.221 278.856 188.409 277.28 188.409 277.28L166.552 277.634C166.552 277.634 144.869 276.751 143.103 251.197C141.337 225.643 168.487 258.953 168.487 258.953C168.487 258.953 175.285 260.256 177.48 260.011C180.653 259.661 187.352 255.96 187.352 255.96C187.352 255.96 191.936 252.608 196.165 249.79C200.395 246.972 216.262 228.282 219.085 221.758C220.874 217.617 226.639 210.848 230.618 206.457C232.903 203.932 234.598 202.208 234.598 202.208C234.598 202.208 244.469 231.61 243.237 237.077Z" fill="#EE8E9E"/>
<path opacity="0.1" d="M243.238 237.077C243.035 237.964 242.048 239.437 240.509 241.283C232.484 233.111 230.808 216.805 230.619 206.438C232.904 203.913 234.599 202.189 234.599 202.189C234.599 202.189 244.47 231.61 243.238 237.077Z" fill="black"/>
<path opacity="0.1" d="M326.844 223.245L319.22 232.129L309.254 232.734L293.302 233.716C293.302 233.716 271.794 207.798 275.835 202.157C277.303 200.122 277.544 197.436 277.251 194.901C277.214 194.551 277.162 194.202 277.1 193.858C276.617 191.175 275.772 188.571 274.589 186.115L275.118 185.875L275.457 185.719C276.297 188.057 276.876 190.481 277.185 192.946C277.237 193.282 277.284 193.631 277.332 193.99C277.497 195.264 277.648 196.681 277.804 198.238C279.031 212.505 288.006 217.873 292.056 219.581C293.358 220.131 294.632 220.747 295.87 221.427C299.767 223.576 304.261 224.389 308.664 223.741C318.663 222.428 326.816 215.163 326.816 215.163L326.858 222.315L326.844 223.245Z" fill="black"/>
<path d="M327.151 278.681C327.151 278.681 261.574 278.502 252.93 272.511C244.286 266.521 249.408 258.585 249.229 256.644C249.049 254.704 245.353 249.771 244.121 248.355C242.889 246.938 245.178 245.182 244.824 241.306C244.47 237.431 241.477 241.306 241.477 241.306C229.132 228.787 231.776 197.058 231.776 197.058C231.776 197.058 243.578 194.065 249.243 191.766C250.777 191.143 253.166 190.255 255.852 189.297L256.848 188.938C263.774 186.46 272.007 183.66 272.007 183.66C272.007 183.66 273.588 182.541 275.179 185.888C275.906 187.427 276.638 189.906 277.223 193.867C277.275 194.202 277.323 194.551 277.37 194.91C277.535 196.185 277.686 197.601 277.842 199.159C279.069 213.425 288.044 218.793 292.094 220.502C293.397 221.051 294.67 221.667 295.909 222.348C299.806 224.497 304.299 225.309 308.702 224.661C318.701 223.348 326.854 216.083 326.854 216.083L326.896 223.235L327.019 244.724L327.151 278.681Z" fill="#DFE5EE"/>
<path d="M324.328 250.828L323.27 257.527C323.27 257.527 297.178 264.047 286.958 265.987C276.737 267.927 254.695 265.458 253.109 269.688C251.523 273.918 259.808 279.739 259.808 279.739L286.245 279.385L336.135 283.265C336.135 283.265 355.174 266.516 349.004 254.879C342.834 243.242 324.328 250.828 324.328 250.828Z" fill="#EE8E9E"/>
<path opacity="0.1" d="M270.562 197.941C270.562 197.941 258.571 207.812 260.865 212.576C263.159 217.339 270.562 197.941 270.562 197.941Z" fill="black"/>
<path opacity="0.1" d="M255.752 215.743C255.752 215.743 243.586 236.723 244.294 238.309C245.003 239.895 248.35 245.537 248.17 241.307C247.991 237.077 255.752 215.743 255.752 215.743Z" fill="black"/>
<path opacity="0.1" d="M260.69 219.449C260.69 219.449 257.857 232.492 255.049 237.959C252.24 243.426 260.69 219.449 260.69 219.449Z" fill="black"/>
<path opacity="0.1" d="M300.511 179.227C298.179 183.502 294.859 187.156 290.826 189.885C286.793 192.613 282.166 194.336 277.331 194.91H277.274C269.669 195.803 262.006 193.797 255.813 189.292C262.895 186.734 271.968 183.656 271.968 183.656C271.968 183.656 273.55 182.537 275.141 185.884L298.943 175.026C299.211 176.509 299.741 177.932 300.511 179.227Z" fill="black"/>
<path d="M304.231 163.563C304.24 168.872 302.856 174.091 300.218 178.698C298.958 180.895 297.431 182.928 295.672 184.75C290.764 189.86 284.225 193.093 277.185 193.89H277.124C275.998 194.019 274.867 194.084 273.734 194.084C266.241 194.084 259.01 191.325 253.421 186.334C247.831 181.343 244.275 174.469 243.431 167.024C243.3 165.881 243.235 164.732 243.237 163.582C243.237 155.494 246.45 147.737 252.17 142.018C257.889 136.298 265.646 133.085 273.734 133.085C281.822 133.085 289.579 136.298 295.299 142.018C301.018 147.737 304.231 155.494 304.231 163.582V163.563Z" fill="#EE8E9E"/>
<path opacity="0.1" d="M323.978 221.271L326.81 217.022C326.81 217.022 342.323 198.512 357.496 210.323L356.967 226.544C356.967 226.544 356.259 231.477 355.202 234.097C354.898 234.875 354.787 235.715 354.879 236.544C354.971 237.374 355.263 238.169 355.73 238.861C355.73 238.861 356.613 243.11 355.381 243.11C354.149 243.11 352.029 249.454 352.029 249.454C352.029 249.454 349.031 255.979 350.797 258.976C352.563 261.974 356.438 272.02 356.438 272.02C356.438 272.02 350.268 268.319 348.503 262.149C348.503 262.149 333.519 250.512 321.882 257.9L323.978 221.271Z" fill="black"/>
<path opacity="0.1" d="M356.547 207.774C356.405 214.204 355.357 216.98 355.357 216.98L328.736 221.035L327.74 214.124C331.224 210.489 343.895 198.932 356.547 207.774Z" fill="black"/>
<path d="M323.978 220.327L326.81 216.078C326.81 216.078 342.323 197.568 357.496 209.379L356.967 225.6C356.967 225.6 356.259 230.534 355.202 233.154C354.898 233.931 354.787 234.771 354.879 235.6C354.971 236.43 355.263 237.225 355.73 237.917C355.73 237.917 356.613 242.166 355.381 242.166C354.149 242.166 352.029 248.511 352.029 248.511C352.029 248.511 349.031 255.035 350.797 258.033C352.563 261.03 356.438 271.076 356.438 271.076C356.438 271.076 350.268 267.375 348.503 261.205C348.503 261.205 333.519 249.568 321.882 256.956L323.978 220.327Z" fill="#DFE5EE"/>
<path opacity="0.1" d="M349.008 208.341C349.008 208.341 323.45 224.033 324.682 237.794C324.682 237.794 338.962 212.571 349.008 208.341Z" fill="black"/>
<path opacity="0.1" d="M326.839 223.249L326.962 244.739C322.128 244.956 317.572 244.328 313.97 241.198C311.463 239.017 310.005 236.005 309.249 232.748C308.687 230.123 308.481 227.435 308.636 224.755C308.633 224.729 308.633 224.702 308.636 224.675C308.933 218.741 310.297 212.807 309.58 206.91C308.862 201.014 305.288 194.792 299.454 193.55C298.302 193.3 297.008 193.21 296.187 192.365C295.28 191.421 295.323 189.953 295.422 188.645L295.592 186.441C295.634 185.874 295.653 185.312 295.653 184.751C295.65 179.739 293.906 174.883 290.72 171.014C287.535 167.144 283.104 164.501 278.186 163.535L277.997 163.502C276.354 163.172 274.645 162.846 273.003 163.224C269.877 163.946 267.857 166.977 264.977 168.417C259.454 171.174 250.243 168.157 244.46 167.208C244.083 167.147 243.724 167.076 243.379 166.996C243.248 165.853 243.183 164.704 243.186 163.554C243.188 158.883 244.263 154.275 246.328 150.085C248.393 145.895 251.393 142.236 255.096 139.389C258.8 136.543 263.107 134.585 267.687 133.666C272.267 132.748 276.997 132.894 281.511 134.093C286.026 135.292 290.205 137.513 293.725 140.582C297.246 143.652 300.014 147.49 301.817 151.799C303.619 156.108 304.408 160.774 304.122 165.436C303.836 170.098 302.482 174.633 300.166 178.689C300.256 178.869 300.355 179.048 300.459 179.218C306.875 189.84 327.448 183.122 327.448 183.122L328.685 221.026L326.839 223.249Z" fill="black"/>
<path d="M266.086 167.893C268.947 166.448 270.967 163.417 274.111 162.7C275.75 162.322 277.458 162.648 279.111 162.973L279.3 163.011C284.499 164.04 289.141 166.94 292.346 171.163C295.55 175.385 297.095 180.636 296.687 185.921L296.517 188.126C296.413 189.429 296.37 190.907 297.286 191.841C298.103 192.686 299.396 192.786 300.548 193.022C306.383 194.268 309.957 200.457 310.674 206.386C311.392 212.316 310.004 218.269 309.73 224.226C309.456 230.184 310.552 236.76 315.055 240.674C322.137 246.811 332.9 243.318 342.271 242.756C338.126 242.756 335.02 238.479 334.793 234.343C334.567 230.208 336.408 226.271 338.169 222.541C339.93 218.812 341.695 214.799 341.303 210.673C340.765 205.008 336.299 200.471 334.59 195.019C332.598 188.674 334.519 181.862 335.421 175.266C337.116 162.917 334.477 149.014 324.917 141.031C320.914 137.693 316.018 135.64 311.619 132.845C303.735 127.845 297.517 120.514 289.549 115.652C281.58 110.789 270.391 108.986 263.437 115.217C260.747 117.63 259.009 120.977 256.243 123.304C250.838 127.86 242.246 127.945 237.912 133.534C234.182 138.345 235.193 145.176 236.387 151.148C237.978 159.112 237.081 165.31 245.593 166.726C251.352 167.638 260.558 170.654 266.086 167.893Z" fill="#603556"/>
<path opacity="0.1" d="M336.22 238.951C329.398 239.786 322.638 240.216 317.672 235.91C313.168 231.997 312.058 225.425 312.346 219.463C312.634 213.501 314.013 207.543 313.291 201.618C312.568 195.693 308.999 189.504 303.164 188.258C302.012 188.013 300.724 187.923 299.902 187.078C298.991 186.134 299.029 184.661 299.133 183.358L299.303 181.153C299.711 175.869 298.166 170.618 294.962 166.397C291.757 162.175 287.115 159.276 281.916 158.248L281.727 158.21C280.075 157.884 278.366 157.558 276.728 157.936C273.602 158.658 271.582 161.713 268.702 163.129C263.174 165.891 253.973 162.874 248.181 161.925C239.683 160.533 240.571 154.325 238.975 146.346C238.083 141.89 237.294 136.952 238.503 132.731C238.276 132.972 238.059 133.204 237.851 133.491C234.122 138.302 235.132 145.133 236.326 151.105C237.917 159.069 237.02 165.268 245.532 166.684C251.32 167.628 260.526 170.649 266.054 167.888C268.915 166.443 270.935 163.412 274.079 162.695C275.717 162.317 277.426 162.643 279.079 162.969L279.267 163.006C284.467 164.035 289.109 166.936 292.314 171.158C295.518 175.38 297.063 180.632 296.654 185.917L296.484 188.121C296.38 189.424 296.338 190.902 297.254 191.837C298.071 192.682 299.364 192.781 300.516 193.017C306.351 194.263 309.925 200.452 310.642 206.381C311.36 212.311 309.977 218.264 309.698 224.222C309.42 230.179 310.519 236.755 315.023 240.669C322.104 246.806 332.868 243.313 342.239 242.751C339.694 242.765 337.556 241.151 336.22 238.951Z" fill="black"/>
<path d="M144.628 254.699L173.732 243.842C174.42 243.585 175.182 243.611 175.85 243.916C176.518 244.22 177.039 244.778 177.296 245.465C177.553 246.154 177.526 246.915 177.222 247.584C176.917 248.252 176.36 248.772 175.672 249.03L146.568 259.888L140.327 259.265L144.628 254.699Z" fill="#5C5C8E"/>
<path opacity="0.1" d="M176.418 244.578C176.675 245.267 176.648 246.029 176.342 246.698C176.037 247.366 175.478 247.886 174.79 248.143L145.667 259.038L140.984 258.566L140.309 259.284L146.55 259.907L175.654 249.049C176.341 248.791 176.899 248.271 177.203 247.603C177.508 246.935 177.534 246.173 177.278 245.485C177.063 244.911 176.665 244.425 176.145 244.102C176.249 244.252 176.341 244.412 176.418 244.578Z" fill="white"/>
<path d="M144.633 254.7L146.568 259.888L141.451 259.373L140.332 259.26L141.862 257.636L144.633 254.7Z" fill="#EFC8C4"/>
<path d="M141.857 257.622C141.977 257.712 142.079 257.822 142.159 257.948C142.207 258.023 142.233 258.111 142.233 258.2C142.233 258.29 142.207 258.377 142.159 258.453C142.079 258.536 141.985 258.605 141.881 258.656C141.764 258.734 141.666 258.837 141.594 258.958C141.522 259.079 141.478 259.215 141.465 259.355L140.342 259.246L141.857 257.622Z" fill="#727A9C"/>
<path d="M236.01 287.835C236.01 287.835 261.219 282.543 303.518 289.252L286.948 277.091L256.801 270.92L235.472 276.585L236.01 287.835Z" fill="white"/>
<path opacity="0.1" d="M236.01 287.835C236.01 287.835 261.219 282.543 303.518 289.252L286.948 277.091L256.801 270.92L235.472 276.585L236.01 287.835Z" fill="black"/>
<path d="M233.054 293.557C233.054 293.557 245.748 259.218 310.948 293.666L287.547 278.606C287.547 278.606 231.487 263.117 225.01 280.967L233.054 293.557Z" fill="white"/>
<path opacity="0.1" d="M233.055 293.533C233.055 293.533 245.749 256.819 310.949 294.194L287.548 277.86C287.548 277.86 231.469 259.335 224.978 278.724L233.055 293.533Z" fill="black"/>
<path d="M233.054 293.547C233.054 293.547 245.748 256.29 310.948 293.665L287.547 277.331C287.547 277.331 231.487 259.335 225.01 278.748L233.054 293.547Z" fill="white"/>
<path opacity="0.1" d="M233.054 293.557C233.054 293.557 245.749 252.151 310.949 294.195L287.528 275.816C287.528 275.816 231.468 256.933 224.991 278.724L233.054 293.557Z" fill="black"/>
<path d="M233.054 293.534C233.054 293.534 245.749 251.622 310.949 293.666L287.528 275.287C287.528 275.287 231.468 256.404 224.991 278.195L233.054 293.534Z" fill="white"/>
<path opacity="0.1" d="M428.658 289.587C428.658 289.587 413.009 306.351 427.096 314.494C427.096 314.494 428.937 316.713 431.566 315.552C431.566 315.552 430.679 314.763 432.459 313.243C433.088 312.698 433.651 312.08 434.135 311.402C434.791 310.487 435.132 309.384 435.107 308.258C435.107 308.258 437.156 301.606 430.646 292.972C430.646 292.972 430.056 290.083 429.555 289.766L428.366 293.793C428.366 293.793 431.354 294.553 432.478 296.829C432.478 296.829 428.54 293.737 428.158 294.383C428.082 294.515 427.625 296.55 427.625 296.55C427.625 296.55 432.818 297.891 434.441 301.46C434.441 301.46 430.245 297.15 427.445 297.32L426.935 300.426C426.935 300.426 432.492 301.578 434.489 305.572C434.489 305.572 429.947 301.214 426.86 301.115L426.77 304.236C426.77 304.236 432.166 305.463 433.814 308.796C433.814 308.796 428.059 304.297 426.798 304.953C426.798 304.953 426.888 307.828 427.27 308.579C427.27 308.579 431.123 309.523 431.906 311.572C431.906 311.572 427.743 308.971 427.384 309.367C427.384 309.367 428.503 313.078 430.06 314.659C430.06 314.659 427.587 312.492 426.813 309.57C426.813 309.57 425.765 311.397 426.029 313.191C426.029 313.191 424.485 311.482 426.553 308.669C426.553 308.669 425.798 305.742 425.986 305.279C425.986 305.279 423.555 307.767 422.932 310C422.932 310 422.46 307.205 425.982 304.472V301.328C425.982 301.328 422.592 304.448 421.893 306.379C421.893 306.379 421.846 303.452 426.052 300.539L426.525 297.485C426.525 297.485 423.399 299.949 422.158 301.932C422.158 301.932 422.696 299.203 426.69 296.616L427.242 294.615C427.242 294.615 424.995 296.456 424.41 297.041C423.824 297.627 423.602 297.513 423.602 297.513C424.522 295.93 425.862 294.633 427.473 293.765C427.473 293.765 428.918 289.695 428.658 289.587Z" fill="#6C63FF"/>
<path opacity="0.1" d="M498.617 16.8154C498.617 16.8154 477.708 26.2571 487.565 39.1876C487.565 39.1876 488.41 41.9493 491.28 41.8926C491.28 41.8926 490.766 40.821 492.994 40.1034C493.786 39.8446 494.543 39.4912 495.251 39.0507C496.209 38.4598 496.95 37.5734 497.361 36.525C497.361 36.525 501.817 31.181 499.141 20.7054C499.141 20.7054 499.712 17.8115 499.372 17.3253L496.719 20.5827C496.719 20.5827 499.183 22.4332 499.344 24.9683C499.344 24.9683 496.908 20.5968 496.303 21.05C496.181 21.1397 494.977 22.8392 494.977 22.8392C494.977 22.8392 499.226 26.0777 499.372 30.0008C499.372 30.0008 497.162 24.4018 494.509 23.4766L492.843 26.1486C492.843 26.1486 497.526 29.354 497.838 33.8105C497.838 33.8105 495.326 28.0416 492.517 26.7575L491.228 29.5901C491.228 29.5901 495.737 32.805 495.949 36.5156C495.949 36.5156 492.376 30.1424 490.959 30.2651C490.959 30.2651 489.935 32.9466 490.015 33.7916C490.015 33.7916 493.197 36.152 493.14 38.3425C493.14 38.3425 490.308 34.3392 489.836 34.5658C489.836 34.5658 489.434 38.4181 490.265 40.4811C490.265 40.4811 488.816 37.5258 489.231 34.5328C489.231 34.5328 487.556 35.8169 487.112 37.573C487.112 37.573 486.347 35.3967 489.34 33.5981C489.34 33.5981 489.77 30.6098 490.124 30.2557C490.124 30.2557 486.918 31.6106 485.492 33.414C485.492 33.414 486.13 30.6523 490.44 29.4909L491.667 26.6018C491.667 26.6018 487.338 28.1691 485.946 29.6798C485.946 29.6798 487.031 26.9605 492.036 25.9031L493.645 23.2688C493.645 23.2688 489.812 24.3405 487.9 25.6859C487.9 25.6859 489.453 23.3821 494.136 22.5324L495.416 20.899C495.416 20.899 492.63 21.7298 491.852 22.0414C491.073 22.353 490.907 22.1689 490.907 22.1689C492.375 21.0586 494.122 20.3786 495.954 20.205C495.954 20.205 498.786 17.0043 498.617 16.8154Z" fill="#6C63FF"/>
<path opacity="0.1" d="M300.166 22.6602C300.166 22.6602 268.754 31.6298 284.026 44.9804C284.026 44.9804 285.38 47.8129 289.728 47.8129C289.728 47.8129 288.916 46.7176 292.278 46.052C293.435 45.8192 294.569 45.4843 295.667 45.0512C296.962 44.5974 298.064 43.7167 298.792 42.5538C298.792 42.5538 305.402 37.2665 301.063 26.6068C301.063 26.6068 301.852 23.6987 301.323 23.1983L297.395 26.418C297.395 26.418 301.172 28.3582 301.488 30.9217C301.488 30.9217 297.678 26.4416 296.767 26.8806C296.583 26.9703 294.803 28.6509 294.803 28.6509C294.803 28.6509 301.356 32.0405 301.653 36.0107C301.653 36.0107 298.16 30.2938 294.1 29.2882L291.645 31.9414C291.645 31.9414 298.821 35.3073 299.411 39.8205C299.411 39.8205 295.455 33.9241 291.168 32.5503L289.28 35.3829C289.28 35.3829 296.191 38.7535 296.644 42.5113C296.644 42.5113 291.06 35.973 288.916 36.0532C288.916 36.0532 287.439 38.7441 287.571 39.5986C287.571 39.5986 292.452 42.0912 292.429 44.2817C292.429 44.2817 288.019 40.1556 287.292 40.3728C287.292 40.3728 286.792 44.2581 288.104 46.3636C288.104 46.3636 285.829 43.3375 286.377 40.3256C286.377 40.3256 283.879 41.5766 283.251 43.3375C283.251 43.3375 282.033 41.1234 286.518 39.3861C286.518 39.3861 287.089 36.3742 287.613 36.0249C287.613 36.0249 282.798 37.309 280.688 39.0935C280.688 39.0935 281.575 36.3176 288.071 35.2601L289.856 32.371C289.856 32.371 283.341 33.8439 281.273 35.3309C281.273 35.3309 282.845 32.6117 290.399 31.6675L292.759 29.0475C292.759 29.0475 286.981 30.0247 284.12 31.3371C284.12 31.3371 286.41 29.0475 293.477 28.3157L295.365 26.7012C295.365 26.7012 291.168 27.466 289.997 27.7587C288.827 28.0514 288.581 27.8625 288.581 27.8625C290.94 26.7202 293.514 26.0896 296.135 26.012C296.135 26.012 300.44 22.8584 300.166 22.6602Z" fill="#6C63FF"/>
<path opacity="0.1" d="M392.842 372.674C392.842 372.674 408.656 356.061 394.65 347.781C394.65 347.781 392.827 345.543 390.188 346.676C390.188 346.676 391.071 347.474 389.277 348.98C388.643 349.519 388.074 350.131 387.583 350.802C386.916 351.71 386.564 352.811 386.582 353.937C386.582 353.937 384.462 360.57 390.892 369.265C390.892 369.265 391.454 372.159 391.949 372.485L393.181 368.468C393.181 368.468 390.198 367.679 389.098 365.394C389.098 365.394 393.002 368.52 393.389 367.878C393.469 367.745 393.946 365.72 393.946 365.72C393.946 365.72 388.753 364.304 387.177 360.744C387.177 360.744 391.331 365.097 394.135 364.951L394.673 361.849C394.673 361.849 389.131 360.645 387.162 356.656C387.162 356.656 391.661 361.056 394.749 361.188L394.867 358.063C394.867 358.063 389.48 356.76 387.847 353.408C387.847 353.408 393.559 357.968 394.824 357.322C394.824 357.322 394.763 354.451 394.352 353.696C394.352 353.696 390.509 352.686 389.745 350.656C389.745 350.656 393.885 353.3 394.244 352.903C394.244 352.903 393.163 349.183 391.619 347.587C391.619 347.587 394.074 349.778 394.82 352.705C394.82 352.705 395.887 350.887 395.636 349.093C395.636 349.093 397.166 350.821 395.07 353.611C395.07 353.611 395.797 356.547 395.603 357.005C395.603 357.005 398.058 354.541 398.7 352.336C398.7 352.336 399.172 355.136 395.599 357.832L395.551 360.976C395.551 360.976 398.969 357.888 399.687 355.962C399.687 355.962 399.687 358.894 395.471 361.764L394.999 364.814C394.999 364.814 398.148 362.378 399.408 360.409C399.408 360.409 398.842 363.128 394.824 365.678L394.253 367.675C394.253 367.675 396.519 365.857 397.123 365.276C397.728 364.696 397.935 364.804 397.935 364.804C397.001 366.379 395.648 367.664 394.027 368.515C394.027 368.515 392.606 372.561 392.842 372.674Z" fill="#6C63FF"/>
<path opacity="0.1" d="M238.597 0.585462C238.597 0.585462 241.292 23.3589 256.607 17.8638C256.607 17.8638 259.491 17.8874 260.303 15.1304C260.303 15.1304 259.123 15.3004 259.114 12.9588C259.103 12.1259 258.993 11.2971 258.788 10.4898C258.516 9.39762 257.894 8.42437 257.017 7.71867C257.017 7.71867 253.26 1.85537 242.444 1.27943C242.444 1.27943 239.857 -0.136828 239.291 0.0425645L241.599 3.55016C241.599 3.55016 244.106 1.75624 246.57 2.36995C246.57 2.36995 241.67 3.38021 241.92 4.08834C241.967 4.23468 243.223 5.8917 243.223 5.8917C243.223 5.8917 247.637 2.77594 251.414 3.83813C251.414 3.83813 245.414 4.25357 243.733 6.50541L245.749 8.90361C245.749 8.90361 250.215 5.40074 254.563 6.44405C254.563 6.44405 248.303 7.10496 246.23 9.39458L248.581 11.4812C248.581 11.4812 253 8.14827 256.607 9.04523C256.607 9.04523 249.45 10.537 249.138 11.9202C249.138 11.9202 251.39 13.7047 252.221 13.8936C252.221 13.8936 255.45 11.5756 257.499 12.2837C257.499 12.2837 252.825 13.785 252.896 14.3137C252.896 14.3137 256.451 15.8527 258.665 15.6828C258.665 15.6828 255.412 16.1548 252.684 14.8802C252.684 14.8802 253.401 16.8582 254.945 17.8166C254.945 17.8166 252.641 17.8874 251.825 14.512C251.825 14.512 249.105 13.1996 248.874 12.7605C248.874 12.7605 249.204 16.2209 250.493 18.1234C250.493 18.1234 248.048 16.7072 248.237 12.2271L245.876 10.183C245.876 10.183 246.07 14.7858 247.09 16.5703C247.09 16.5703 244.824 14.715 245.314 9.62118L243.289 7.2938C243.289 7.2938 243.152 11.2688 243.86 13.497C243.86 13.497 242.128 11.3254 242.732 6.60455L241.557 4.89088C241.557 4.89088 241.514 7.79421 241.557 8.63452C241.599 9.47483 241.396 9.55509 241.396 9.55509C240.776 7.82533 240.648 5.95716 241.028 4.15915C241.028 4.15915 238.833 0.472161 238.597 0.585462Z" fill="#6C63FF"/>
<path opacity="0.1" d="M353.059 321.023C353.059 321.023 330.956 314.886 330.247 331.144C330.247 331.144 329.133 333.807 331.376 335.601C331.376 335.601 331.664 334.449 333.835 335.322C334.61 335.629 335.418 335.843 336.243 335.96C337.358 336.12 338.496 335.912 339.481 335.365C339.481 335.365 346.327 334.109 350.972 324.346C350.972 324.346 353.262 322.491 353.333 321.896L349.211 322.704C349.211 322.704 349.919 325.706 348.418 327.755C348.418 327.755 349.362 322.836 348.593 322.798C348.437 322.798 346.426 323.322 346.426 323.322C346.426 323.322 347.634 328.543 345.222 331.635C345.222 331.635 347.11 325.923 345.661 323.516L342.668 324.502C342.668 324.502 344.217 329.96 341.601 333.585C341.601 333.585 343.367 327.547 342.026 324.762L339.222 326.126C339.222 326.126 340.638 331.48 338.433 334.482C338.433 334.482 339.765 327.297 338.599 326.48C338.599 326.48 336.097 327.896 335.61 328.586C335.61 328.586 336.555 332.452 335.101 334.081C335.101 334.081 335.478 329.185 334.964 329.053C334.964 329.053 332.188 331.758 331.508 333.873C331.508 333.873 332.287 330.677 334.52 328.642C334.52 328.642 332.414 328.557 330.946 329.62C330.946 329.62 331.749 327.462 335.195 327.996C335.195 327.996 337.442 325.97 337.938 325.928C337.938 325.928 334.633 324.918 332.358 325.39C332.358 325.39 334.614 323.671 338.67 325.541L341.464 324.125C341.464 324.125 337.131 322.562 335.096 322.831C335.096 322.831 337.669 321.415 342.177 323.818L345.095 322.822C345.095 322.822 341.469 321.193 339.137 321.004C339.137 321.004 341.804 320.225 345.944 322.571L347.974 322.132C347.974 322.132 345.302 320.99 344.504 320.716C343.707 320.442 343.711 320.244 343.711 320.244C345.54 320.328 347.309 320.916 348.824 321.943C348.824 321.943 353.073 321.283 353.059 321.023Z" fill="#6C63FF"/>
</g>
<defs>
<linearGradient id="paint0_linear" x1="251.343" y1="282.911" x2="251.343" y2="109.651" gradientUnits="userSpaceOnUse">
<stop stop-color="#808080" stop-opacity="0.25"/>
<stop offset="0.54" stop-color="#808080" stop-opacity="0.12"/>
<stop offset="1" stop-color="#808080" stop-opacity="0.1"/>
</linearGradient>
<clipPath id="clip0">
<rect width="500" height="372.669" fill="white"/>
</clipPath>
</defs>
</svg>
