<svg width="500" height="273" viewBox="0 0 500 273" fill="none" xmlns="http://www.w3.org/2000/svg">
<g clip-path="url(#clip0)">
<path opacity="0.1" d="M494.7 253.122C492.76 257.911 490.371 262.505 487.565 266.844C486.249 268.913 484.806 270.898 483.243 272.787C483.23 272.806 483.214 272.824 483.196 272.839H0L0.0652172 272.787C0.5 272.448 3.05217 270.383 7.02174 266.844C9.86957 264.309 13.4435 261.013 17.4565 257.048C50.2783 224.765 113.326 148.352 60.8174 78.3524C12.0044 13.2785 64.5609 1.46981 99.2304 0.0915464C112.551 -0.430281 125.839 1.74209 138.3 6.4785C154.317 12.5655 183.591 21.8959 221.73 26.1742C222.983 26.3133 224.243 26.4524 225.522 26.5785C245.714 28.6345 266.042 29.0038 286.296 27.6828V27.6828C286.891 27.6481 287.491 27.6046 288.096 27.5611C308.131 26.1542 328.015 23.0783 347.539 18.3655C348.804 18.0568 350.052 17.7655 351.296 17.4742C416.352 2.42198 476.326 53.722 461.33 111.696C455.787 133.139 457.196 155.996 475.678 174.487C505.939 204.67 502.274 234.396 494.7 253.122Z" fill="#6C63FF"/>
<path d="M494.7 253.122C492.76 257.911 490.371 262.505 487.565 266.844C486.25 268.913 484.806 270.898 483.244 272.787H0.0654297C0.500212 272.448 3.05239 270.383 7.02195 266.844C9.86978 264.309 13.4437 261.013 17.4567 257.048L68.3828 246.526C69.0408 246.391 69.711 246.322 70.3828 246.322L124.674 246.244H124.731L151.622 246.209H151.683L174.378 246.183H189.235H204.452L266.809 246.096H266.909H271.739H280.226H290.822H293.639L304.348 245.974H307.887L339.035 245.931H348.983H353.765L389.744 245.883H400.457L434.535 245.835L463.3 245.8C464.101 245.801 464.9 245.896 465.678 246.083L494.7 253.122Z" fill="#454B69"/>
<path opacity="0.4" d="M7.02195 266.843H487.565C486.25 268.912 484.806 270.897 483.244 272.787H0.0654297C0.491517 272.426 3.04369 270.361 7.02195 266.843Z" fill="black"/>
<path d="M318.791 131.626L317.826 131.813L274.191 140.196C261.517 142.631 248.661 145.078 235.787 144.144C226.461 143.465 217.748 140.7 208.787 138.274C203.722 136.9 198.352 136.352 196.635 130.683C194.265 122.857 198.122 111.27 199.03 103.339C199.9 95.5567 200.413 87.5784 198.865 79.8871C198.521 78.1587 198.068 76.4538 197.509 74.7828C195.957 70.1784 193.517 65.3915 194.835 60.7175C195.874 57.0089 199.044 54.361 202.009 51.9088C207.817 47.1262 213.748 41.7654 216.052 34.5958C217.183 31.1175 217.396 27.3741 218.613 23.9219C220.922 17.3567 226.722 12.448 233.174 9.84798C239.626 7.24797 246.722 6.6958 253.683 6.6958C259.829 6.69614 265.969 7.10428 272.061 7.91754C278.704 8.7871 285.409 10.2175 291.248 13.5132C297.087 16.8088 302.009 22.2088 303.37 28.7915C305.296 38.1002 299.948 48.0132 302.817 57.0523C304.261 61.6219 307.6 65.3132 309.917 69.4958C311.807 72.9946 312.973 76.8378 313.347 80.7966C313.72 84.7554 313.293 88.7489 312.091 92.5393C309.317 101.135 302.526 109.831 306.004 118.165C308.217 123.465 313.87 126.296 317.809 130.496C318.159 130.873 318.487 131.249 318.791 131.626Z" fill="#454B69"/>
<path opacity="0.1" d="M317.826 130.53V131.813L274.191 140.196C261.517 142.63 248.661 145.078 235.787 144.143C226.461 143.465 217.748 140.7 208.787 138.274C203.721 136.9 198.352 136.352 196.635 130.683C194.265 122.856 198.121 111.27 199.03 103.339C199.9 95.5565 213.287 67.1435 211.739 59.4521L291.739 62.9304C292.278 67.1782 313.421 88.5 312.104 92.5739C309.33 101.17 302.539 109.865 306.017 118.2C308.235 123.5 313.887 126.33 317.826 130.53Z" fill="black"/>
<path d="M236.087 109.017C236.561 111.709 236.813 114.669 235.439 117.017C233.609 120.165 229.618 121.169 226.048 121.883L213.657 124.361C212.813 124.53 211.918 124.722 211.287 125.3C210.544 125.965 210.292 127.017 210.183 128.009C209.683 132.496 211.27 136.917 212.718 141.191C215.644 149.848 218.1 158.687 221.8 167.039C225.5 175.391 230.579 183.365 237.826 188.948C245.074 194.53 254.666 197.504 263.539 195.322C271.27 193.422 277.609 187.965 283.074 182.178C287.583 177.396 291.8 172.178 293.987 165.974C295.496 161.713 295.987 157.174 296.461 152.678C297.195 145.785 297.928 138.893 298.661 132C299.005 128.765 299.231 125.126 297.131 122.643C296.209 121.552 294.957 120.826 293.679 120.152C288.922 117.626 283.913 115.539 279.487 112.496C275.061 109.452 271.135 105.261 269.792 100.061C268.987 96.9391 269.131 93.5391 267.761 90.6304C266.231 87.3695 262.979 85.1608 259.5 84.1912C256.022 83.2217 252.352 83.3521 248.77 83.7564C245.187 84.1608 231.379 85.1956 229.896 89.2347C229.1 91.4086 232.4 96.0738 233.183 98.213C234.471 101.721 235.443 105.336 236.087 109.017Z" fill="#EFB7B9"/>
<path opacity="0.1" d="M236.087 109.017C236.561 111.709 236.813 114.669 235.439 117.017C233.609 120.165 229.618 121.169 226.048 121.883L213.657 124.361C212.813 124.53 211.918 124.722 211.287 125.3C210.544 125.965 210.292 127.017 210.183 128.009C209.683 132.496 211.27 136.917 212.718 141.191C215.644 149.848 218.1 158.687 221.8 167.039C225.5 175.391 230.579 183.365 237.826 188.948C245.074 194.53 254.666 197.504 263.539 195.322C271.27 193.422 277.609 187.965 283.074 182.178C287.583 177.396 291.8 172.178 293.987 165.974C295.496 161.713 295.987 157.174 296.461 152.678C297.195 145.785 297.928 138.893 298.661 132C299.005 128.765 299.231 125.126 297.131 122.643C296.209 121.552 294.957 120.826 293.679 120.152C288.922 117.626 283.913 115.539 279.487 112.496C275.061 109.452 271.135 105.261 269.792 100.061C268.987 96.9391 269.131 93.5391 267.761 90.6304C266.231 87.3695 262.979 85.1608 259.5 84.1912C256.022 83.2217 252.352 83.3521 248.77 83.7564C245.187 84.1608 231.379 85.1956 229.896 89.2347C229.1 91.4086 232.4 96.0738 233.183 98.213C234.471 101.721 235.443 105.336 236.087 109.017Z" fill="black"/>
<path d="M265.908 156.296L273.174 140.913C276.578 133.704 280.056 126.13 279.695 118.169C279.626 116.587 279.608 114.609 281 113.891C281.604 113.644 282.262 113.561 282.908 113.648C290.557 114.039 298.105 115.566 305.304 118.178C306.7 118.682 308.13 119.265 309.108 120.378C310.087 121.491 310.482 122.987 310.817 124.422C311.958 129.273 312.79 134.191 313.308 139.148C314.613 151.417 313.965 163.796 313.308 176.104L311.378 213.682C311.388 214.216 311.28 214.744 311.061 215.23C310.582 216.1 309.504 216.391 308.535 216.556C304.8 217.196 300.982 217.065 297.2 216.922C270.591 215.913 243.843 214.365 217.408 217.591C217.527 213.681 217.465 209.768 217.221 205.852C216.174 188.943 211.791 172.448 207.487 156.065C204.978 146.5 202.548 136.065 206.587 127.052C207.181 125.629 208.034 124.328 209.104 123.217C210.821 121.535 213.165 120.648 215.487 120.013C219.492 118.924 223.64 118.454 227.787 118.622L255.2 178.304C256.452 181.035 257.482 183.909 258.73 186.604C259.852 181.948 258.504 176.491 259.852 171.443C261.304 166.204 263.591 161.191 265.908 156.296Z" fill="white"/>
<path d="M263.043 197.361C267.948 197.67 272.713 195.157 276.087 191.605C279.461 188.052 281.687 183.548 283.569 178.996C286.276 172.507 288.427 165.801 290 158.948C291.304 153.122 292.23 147.092 291.33 141.187C290.087 133.035 285.474 125.626 284.687 117.418C284.552 115.983 284.639 114.305 285.791 113.439C286.504 112.905 287.443 112.831 288.33 112.779C296.53 112.292 305.539 112.383 311.891 117.587C313.826 119.17 315.395 121.148 317.287 122.779C321.791 126.692 328.156 128.683 331.048 133.879C332.056 135.687 332.539 137.735 333.243 139.683C334.904 144.292 337.778 148.344 340.635 152.331C337.865 164.018 334.682 175.713 331.913 187.4C330.291 194.257 328.656 201.139 326.108 207.705C324.439 212.009 322.339 216.4 322.852 221.009C323.056 222.822 323.661 224.557 324.187 226.305C326.031 232.439 326.895 238.827 326.748 245.231L202.687 245.535C208.63 237.013 210.374 226.561 209.769 216.192C209.478 211.222 208.356 206.222 205.856 201.922C201.917 195.183 194.987 190.792 188.156 187.031C183.374 184.422 178.239 199.1 173.069 197.418C173.904 191.513 174.287 168.722 173.939 162.779C173.826 160.831 173.652 158.831 174.252 156.97C174.661 155.696 175.413 154.557 175.922 153.318C177.961 148.357 176.017 142.013 179.313 137.792C181.591 134.857 185.587 134.022 188.835 132.213C192.169 130.352 194.748 127.431 197.652 124.935C203.351 120.096 210.314 116.987 217.722 115.974C219.882 119.383 221.196 123.259 221.552 127.279C221.774 129.805 221.613 132.366 221.965 134.879C222.448 138.283 223.856 141.479 225.252 144.626C231.065 157.752 236.9 170.918 244.265 183.244C246.348 186.722 248.613 190.2 251.63 192.909C254.648 195.618 258.991 197.552 263.043 197.361Z" fill="#6C63FF"/>
<path opacity="0.1" d="M263.043 197.361C267.948 197.67 272.713 195.157 276.087 191.605C279.461 188.052 281.687 183.548 283.569 178.996C286.276 172.507 288.427 165.801 290 158.948C291.304 153.122 292.23 147.092 291.33 141.187C290.087 133.035 285.474 125.626 284.687 117.418C284.552 115.983 284.639 114.305 285.791 113.439C286.504 112.905 287.443 112.831 288.33 112.779C296.53 112.292 305.539 112.383 311.891 117.587C313.826 119.17 315.395 121.148 317.287 122.779C321.791 126.692 328.156 128.683 331.048 133.879C332.056 135.687 332.539 137.735 333.243 139.683C334.904 144.292 337.778 148.344 340.635 152.331C337.865 164.018 334.682 175.713 331.913 187.4C330.291 194.257 328.656 201.139 326.108 207.705C324.439 212.009 322.339 216.4 322.852 221.009C323.056 222.822 323.661 224.557 324.187 226.305C326.031 232.439 326.895 238.827 326.748 245.231L202.687 245.535C208.63 237.013 210.374 226.561 209.769 216.192C209.478 211.222 208.356 206.222 205.856 201.922C201.917 195.183 194.987 190.792 188.156 187.031C183.374 184.422 178.239 199.1 173.069 197.418C173.904 191.513 174.287 168.722 173.939 162.779C173.826 160.831 173.652 158.831 174.252 156.97C174.661 155.696 175.413 154.557 175.922 153.318C177.961 148.357 176.017 142.013 179.313 137.792C181.591 134.857 185.587 134.022 188.835 132.213C192.169 130.352 194.748 127.431 197.652 124.935C203.351 120.096 210.314 116.987 217.722 115.974C219.882 119.383 221.196 123.259 221.552 127.279C221.774 129.805 221.613 132.366 221.965 134.879C222.448 138.283 223.856 141.479 225.252 144.626C231.065 157.752 236.9 170.918 244.265 183.244C246.348 186.722 248.613 190.2 251.63 192.909C254.648 195.618 258.991 197.552 263.043 197.361Z" fill="black"/>
<path d="M256.482 108.03C277.066 108.03 293.752 91.3442 293.752 70.7608C293.752 50.1774 277.066 33.4912 256.482 33.4912C235.899 33.4912 219.213 50.1774 219.213 70.7608C219.213 91.3442 235.899 108.03 256.482 108.03Z" fill="#EFB7B9"/>
<path d="M236.925 120.426C237.947 110.783 233.939 101.348 229.399 92.7784C227.225 88.6827 224.895 84.6001 223.804 80.1001C222.712 75.6001 223.025 70.5045 225.817 66.8045C228.191 63.6566 231.956 61.9566 235.439 60.1088C245.269 54.8914 254.256 47.2218 258.578 36.9653C256.134 38.2958 256.769 42.2653 258.925 44.0175C261.082 45.7697 264.021 46.1088 266.673 46.9436C276.343 49.9871 282.143 59.6305 286.795 68.6392C287.556 70.1088 288.33 71.661 288.321 73.3175C288.312 74.974 287.556 76.4436 286.765 77.8523C284.469 81.9392 281.66 85.8653 280.617 90.4349C279.421 95.6523 280.682 101.139 282.321 106.257C284.06 111.7 286.369 117.187 290.543 121.091C294.717 124.996 301.191 126.935 306.325 124.413C301.199 115.6 295.891 105.752 297.891 95.761C298.856 90.9784 301.452 86.6305 302.556 81.874C304.66 72.8001 301.156 63.4653 297.717 54.8045L287.438 28.9566C285.869 25.0045 284.082 20.7871 280.482 18.5479C278.047 17.0392 275.099 16.6479 272.247 16.374C263.065 15.5566 253.552 15.8262 245.004 19.2436C229.43 25.4653 219.665 40.8044 211.917 55.6827C209.595 60.1392 207.304 64.874 207.399 69.9001C207.452 72.6566 208.221 75.3392 208.847 78.0262C211.395 88.9653 211.534 100.3 211.665 111.531C211.765 120.148 211.317 128.27 207.547 136.118C212.712 137.144 220.204 139.913 225.317 137.887C231.982 135.252 236.086 127.135 236.925 120.426Z" fill="#454B69"/>
<g opacity="0.1">
<path opacity="0.1" d="M211.643 111.348C211.66 110.122 211.66 108.884 211.643 107.635C211.513 96.4041 211.374 85.0693 208.826 74.1302C208.257 72.0015 207.812 69.8412 207.495 67.6606C207.406 68.4094 207.367 69.1632 207.378 69.9172C207.43 72.6737 208.2 75.3563 208.826 78.0433C211.36 88.9172 211.517 100.182 211.643 111.348Z" fill="black"/>
<path opacity="0.1" d="M302.556 81.8743C303.127 79.3339 303.318 76.7228 303.122 74.1265C303.036 75.4178 302.847 76.7002 302.556 77.9612C301.452 82.7439 298.856 87.0526 297.891 91.8482C297.475 93.9634 297.358 96.1265 297.543 98.2743C297.612 97.4308 297.729 96.5918 297.891 95.7612C298.856 90.9656 301.452 86.6395 302.556 81.8743Z" fill="black"/>
<path opacity="0.1" d="M287.982 71.3218C288.195 70.7042 288.309 70.0573 288.322 69.4044C288.322 67.7479 287.556 66.1957 286.795 64.7261C282.143 55.7174 276.361 46.0827 266.674 43.0305C264.022 42.1957 261.087 41.8566 258.926 40.1044C258.37 39.6255 257.915 39.0404 257.588 38.3834C257.261 37.7264 257.068 37.0107 257.022 36.2783C252.308 44.9305 244.213 51.5479 235.439 56.1957C231.961 58.0435 228.191 59.7435 225.817 62.8914C223.587 65.8479 222.939 69.6957 223.326 73.4174C223.545 71.0289 224.406 68.744 225.817 66.8044C228.191 63.6566 231.956 61.9566 235.439 60.1088C244.213 55.4609 252.308 48.8435 257.022 40.1914C257.068 40.9238 257.261 41.6394 257.588 42.2965C257.915 42.9535 258.37 43.5386 258.926 44.0175C261.1 45.7566 264.022 46.1088 266.674 46.9435C276.343 49.987 282.143 59.6305 286.795 68.6392C287.267 69.4978 287.664 70.3953 287.982 71.3218V71.3218Z" fill="black"/>
<path opacity="0.1" d="M290.542 117.178C286.368 113.265 284.068 107.787 282.321 102.343C281.272 99.2856 280.572 96.1192 280.234 92.9043C279.829 97.3695 280.938 101.939 282.321 106.256C284.06 111.7 286.368 117.187 290.542 121.091C294.716 124.996 301.19 126.935 306.325 124.413C305.708 123.356 305.095 122.283 304.486 121.2C299.716 122.543 294.238 120.63 290.542 117.178Z" fill="black"/>
<path opacity="0.1" d="M236.926 116.513C236.087 123.222 231.982 131.339 225.3 133.991C220.661 135.831 214.056 133.718 209.017 132.548C208.584 133.768 208.087 134.966 207.53 136.135C212.695 137.161 220.187 139.931 225.3 137.904C231.982 135.252 236.087 127.135 236.926 120.426C237.099 118.748 237.131 117.058 237.022 115.374C236.996 115.752 236.956 116.135 236.926 116.513Z" fill="black"/>
</g>
<path d="M289.609 224.313C282.892 223.248 276.074 221.191 269.413 222.574C265.553 223.374 262.022 225.296 258.813 227.617C260.579 229.03 262.64 230.291 263.761 232.256C264.458 233.616 264.981 235.058 265.318 236.548C266.022 239.156 266.731 241.817 266.84 244.53C266.948 247.243 266.405 250.069 264.787 252.256C273.257 253.091 281.466 251.004 289.727 248.965C290.671 248.799 291.57 248.436 292.366 247.9C293.67 246.874 294.053 245.048 294.061 243.383C294.061 240.409 293.227 237.509 292.379 234.656C291.37 231.235 290.622 227.713 289.609 224.313Z" fill="white"/>
<path d="M334.965 150.978C338.3 151.413 340.887 154.104 342.791 156.87C348.134 164.565 350.439 173.896 353.004 182.909C356.192 194.117 359.942 205.149 364.252 216.004C365.18 218.511 366.308 220.939 367.626 223.265C368.7 225.061 370.004 226.787 370.478 228.826C371.626 233.757 367.56 238.391 363.321 241.139C361.062 242.662 358.594 243.851 355.995 244.67C353.465 245.426 350.826 245.713 348.204 246L324.069 248.609C312.96 249.817 301.752 251.026 290.639 249.861C289.939 247.426 291.313 245.704 291.213 243.17C291.143 241.357 290.343 239.67 289.63 238C288.315 235.026 287.446 231.875 287.052 228.648C286.926 227.461 286.882 226.244 286.43 225.139C285.978 224.035 285.008 223.044 283.821 222.965C290.343 222.317 295.295 221.087 301.817 220.435C304.239 220.191 306.756 219.917 308.821 218.63C311.382 217.035 312.817 214.157 313.956 211.365C316.778 204.452 318.595 196.835 317.113 189.513C315.895 183.509 312.5 177.917 312.517 171.791C312.517 168.144 313.76 164.609 315.23 161.27C316.787 157.739 318.817 154.131 322.234 152.339C325.652 150.548 331.108 150.457 334.965 150.978Z" fill="#6C63FF"/>
<path opacity="0.08" d="M334.965 150.978C338.3 151.413 340.887 154.104 342.791 156.87C348.134 164.565 350.439 173.896 353.004 182.909C356.192 194.117 359.942 205.149 364.252 216.004C365.18 218.511 366.308 220.939 367.626 223.265C368.7 225.061 370.004 226.787 370.478 228.826C371.626 233.757 367.56 238.391 363.321 241.139C361.062 242.662 358.594 243.851 355.995 244.67C353.465 245.426 350.826 245.713 348.204 246L324.069 248.609C312.96 249.817 301.752 251.026 290.639 249.861C289.939 247.426 291.313 245.704 291.213 243.17C291.143 241.357 290.343 239.67 289.63 238C288.315 235.026 287.446 231.875 287.052 228.648C286.926 227.461 286.882 226.244 286.43 225.139C285.978 224.035 285.008 223.044 283.821 222.965C290.343 222.317 295.295 221.087 301.817 220.435C304.239 220.191 306.756 219.917 308.821 218.63C311.382 217.035 312.817 214.157 313.956 211.365C316.778 204.452 318.595 196.835 317.113 189.513C315.895 183.509 312.5 177.917 312.517 171.791C312.517 168.144 313.76 164.609 315.23 161.27C316.787 157.739 318.817 154.131 322.234 152.339C325.652 150.548 331.108 150.457 334.965 150.978Z" fill="black"/>
<path d="M183.83 145.331C185.409 141.583 187.013 137.713 187.056 133.648C187.104 129.252 185.317 125.078 183.952 120.904C182.264 115.798 181.14 110.521 180.6 105.17C180.488 104.657 180.565 104.121 180.817 103.661C181.178 103.152 181.874 103.048 182.487 102.913C185.496 102.226 187.769 99.7957 189.648 97.3479C192.562 93.5675 195.022 89.4582 196.978 85.1044C198.417 81.9001 200.365 77.9914 203.878 77.9609C202.464 84.6041 200.711 91.1707 198.626 97.6349C202.3 96.6957 205.791 95.3305 209.465 94.3914C210.184 94.1642 210.938 94.0642 211.691 94.0957C213.891 94.3262 215.239 97.3044 213.961 99.1088C215.756 101.213 218.743 101.778 221.091 103.222C223.439 104.665 225.126 108.239 223.039 110.052C222.63 110.404 222.113 110.652 221.817 111.104C220.809 112.661 223.278 114.448 223.074 116.291C222.909 117.8 220.974 118.504 219.509 118.104C218.043 117.704 216.9 116.609 215.596 115.804C214.291 115 212.587 114.5 211.322 115.335C210.982 119.426 210.617 123.596 208.848 127.322C208.2 128.683 207.369 129.957 206.848 131.37C206.349 132.91 206.039 134.506 205.926 136.122L204.348 150.552C196.817 152.061 190.065 149.804 183.83 145.331Z" fill="#EFB7B9"/>
<path d="M181.992 158.265L180.605 148.878C180.472 148.114 180.398 147.341 180.383 146.565C180.383 144.392 181.339 142.318 182.265 140.339C189.939 143.922 198.235 145.196 206.7 145.2C207.818 145.2 209.092 145.096 209.787 144.222C211.226 145.878 211.27 148.544 210.657 150.648C210.044 152.752 208.865 154.648 208.083 156.7C207.687 157.739 207.365 158.874 206.609 159.674C205.435 160.939 203.531 161.157 201.8 161.148C199.98 161.137 198.164 160.963 196.374 160.631C191.739 159.77 186.626 157.435 181.992 158.265Z" fill="white"/>
<path d="M210.613 157.883C204.656 157.204 198.739 156.248 192.861 155.013C189.978 154.409 187.069 153.735 184.13 153.852C182.217 153.93 180.161 154.313 178.478 153.365C180.117 158.943 180.217 164.822 178.256 170.296C177.095 173.557 175.326 176.596 174.474 179.952C172.7 186.974 175.134 194.63 172.917 201.526C172.683 202.427 172.222 203.253 171.578 203.926C170.9 204.548 169.974 204.87 169.348 205.544C168.426 206.535 168.369 208.026 168.365 209.378L168.326 221.357C168.3 228.983 168.4 237.07 172.426 243.53C177.017 250.922 186.682 254.752 195.095 252.504C197.332 251.932 199.428 250.907 201.252 249.491C204.174 247.17 206.034 243.813 207.856 240.544C210.03 236.63 212.204 232.63 212.904 228.226C213.4 225.109 213.121 221.926 212.765 218.791C210.8 201.4 206.534 184.157 207.452 166.7C207.589 163.509 208.691 160.434 210.613 157.883V157.883Z" fill="#6C63FF"/>
<path d="M235.509 230.057C232.487 230.231 229.444 230.405 226.435 230.057C224.261 229.796 222.139 229.261 219.983 228.896C214.093 227.945 208.068 228.279 202.32 229.876C196.572 231.473 191.237 234.295 186.683 238.148C185.013 239.574 183.326 241.761 184.248 243.757C185.239 245.905 188.27 245.844 190.605 245.444C188.084 246.647 185.858 248.388 184.083 250.544C183.431 251.339 182.813 252.283 182.939 253.313C183.205 255.465 186.126 255.857 188.287 255.67C187.583 256.426 188.057 257.765 188.952 258.278C189.848 258.791 190.961 258.687 191.974 258.5C194.214 258.09 196.378 257.341 198.392 256.278C197.983 257.344 198.692 258.591 199.696 259.122C200.7 259.652 201.922 259.613 203.048 259.431C208.361 258.561 212.796 254.865 217.978 253.413C226.265 251.096 234.935 254.791 243.548 255.052C246.244 255.135 249.009 254.861 251.465 253.748C254.478 252.378 256.909 249.809 260.092 248.896C263.626 247.887 267.683 249.048 270.918 247.305C273.27 246.039 271.148 236.287 270.548 234.409C269.448 230.974 268.344 228.696 264.678 228.348C255.405 227.439 244.852 229.518 235.509 230.057Z" fill="#EFB7B9"/>
<path d="M258.644 227.396C258.644 227.396 272.683 239.278 264.583 252.243L280.235 246.839V235.496C280.235 234.957 274.291 226.857 274.291 226.857L267.27 225.774L258.644 227.396Z" fill="white"/>
<path d="M111.648 226.661H116.913C119.796 226.661 122.561 227.806 124.599 229.845C126.637 231.883 127.783 234.648 127.783 237.531V253.665H100.778V237.531C100.778 236.103 101.059 234.69 101.606 233.371C102.152 232.052 102.953 230.854 103.962 229.845C104.971 228.835 106.17 228.035 107.488 227.489C108.807 226.942 110.22 226.661 111.648 226.661Z" fill="#3F3D56"/>
<path opacity="0.1" d="M111.648 226.661H116.913C119.796 226.661 122.561 227.806 124.599 229.845C126.637 231.883 127.783 234.648 127.783 237.531V253.665H100.778V237.531C100.778 236.103 101.059 234.69 101.606 233.371C102.152 232.052 102.953 230.854 103.962 229.845C104.971 228.835 106.17 228.035 107.488 227.489C108.807 226.942 110.22 226.661 111.648 226.661Z" fill="black"/>
<path d="M113.2 232.6C114.393 232.6 115.361 231.633 115.361 230.439C115.361 229.246 114.393 228.278 113.2 228.278C112.007 228.278 111.039 229.246 111.039 230.439C111.039 231.633 112.007 232.6 113.2 232.6Z" fill="#3F3D56"/>
<path d="M113.2 229.9C114.393 229.9 115.361 228.932 115.361 227.739C115.361 226.546 114.393 225.578 113.2 225.578C112.007 225.578 111.039 226.546 111.039 227.739C111.039 228.932 112.007 229.9 113.2 229.9Z" fill="#3F3D56"/>
<path d="M113.2 227.2C114.393 227.2 115.361 226.233 115.361 225.039C115.361 223.846 114.393 222.878 113.2 222.878C112.007 222.878 111.039 223.846 111.039 225.039C111.039 226.233 112.007 227.2 113.2 227.2Z" fill="#3F3D56"/>
<path d="M113.2 224.5C114.393 224.5 115.361 223.532 115.361 222.339C115.361 221.146 114.393 220.178 113.2 220.178C112.007 220.178 111.039 221.146 111.039 222.339C111.039 223.532 112.007 224.5 113.2 224.5Z" fill="#3F3D56"/>
<path d="M113.2 221.8C114.393 221.8 115.361 220.832 115.361 219.639C115.361 218.445 114.393 217.478 113.2 217.478C112.007 217.478 111.039 218.445 111.039 219.639C111.039 220.832 112.007 221.8 113.2 221.8Z" fill="#3F3D56"/>
<path d="M113.2 219.1C114.393 219.1 115.361 218.133 115.361 216.939C115.361 215.746 114.393 214.778 113.2 214.778C112.007 214.778 111.039 215.746 111.039 216.939C111.039 218.133 112.007 219.1 113.2 219.1Z" fill="#3F3D56"/>
<path d="M113.2 216.395C114.393 216.395 115.361 215.428 115.361 214.235C115.361 213.041 114.393 212.074 113.2 212.074C112.007 212.074 111.039 213.041 111.039 214.235C111.039 215.428 112.007 216.395 113.2 216.395Z" fill="#3F3D56"/>
<path d="M116.444 217.478C117.637 217.478 118.605 216.511 118.605 215.318C118.605 214.124 117.637 213.157 116.444 213.157C115.251 213.157 114.283 214.124 114.283 215.318C114.283 216.511 115.251 217.478 116.444 217.478Z" fill="#3F3D56"/>
<path d="M118.604 216.395C119.798 216.395 120.765 215.428 120.765 214.235C120.765 213.041 119.798 212.074 118.604 212.074C117.411 212.074 116.443 213.041 116.443 214.235C116.443 215.428 117.411 216.395 118.604 216.395Z" fill="#3F3D56"/>
<path d="M120.765 215.317C121.959 215.317 122.926 214.35 122.926 213.156C122.926 211.963 121.959 210.996 120.765 210.996C119.572 210.996 118.604 211.963 118.604 213.156C118.604 214.35 119.572 215.317 120.765 215.317Z" fill="#3F3D56"/>
<path d="M113.2 213.696C114.393 213.696 115.361 212.728 115.361 211.535C115.361 210.341 114.393 209.374 113.2 209.374C112.007 209.374 111.039 210.341 111.039 211.535C111.039 212.728 112.007 213.696 113.2 213.696Z" fill="#3F3D56"/>
<path d="M113.2 210.996C114.393 210.996 115.361 210.028 115.361 208.835C115.361 207.641 114.393 206.674 113.2 206.674C112.007 206.674 111.039 207.641 111.039 208.835C111.039 210.028 112.007 210.996 113.2 210.996Z" fill="#3F3D56"/>
<path d="M113.2 208.295C114.393 208.295 115.361 207.328 115.361 206.134C115.361 204.941 114.393 203.974 113.2 203.974C112.007 203.974 111.039 204.941 111.039 206.134C111.039 207.328 112.007 208.295 113.2 208.295Z" fill="#3F3D56"/>
<path d="M113.2 205.596C114.393 205.596 115.361 204.628 115.361 203.435C115.361 202.241 114.393 201.274 113.2 201.274C112.007 201.274 111.039 202.241 111.039 203.435C111.039 204.628 112.007 205.596 113.2 205.596Z" fill="#3F3D56"/>
<path d="M122.174 196.465C121.635 196.543 121.095 196.6 120.556 196.635C121.057 196.197 121.523 195.721 121.948 195.209C121.648 194.301 121.208 193.445 120.643 192.674C120.108 192.975 119.515 193.161 118.904 193.222C118.369 193.3 117.83 193.357 117.291 193.396C118 192.817 118.661 191.948 119.356 191.222C117.798 189.809 115.801 188.975 113.701 188.859C111.6 188.743 109.524 189.353 107.819 190.586C106.115 191.818 104.886 193.599 104.338 195.63C103.79 197.661 103.957 199.819 104.811 201.742C105.664 203.664 107.152 205.235 109.026 206.191C110.9 207.147 113.045 207.43 115.103 206.993C117.161 206.555 119.005 205.424 120.328 203.788C121.651 202.153 122.372 200.112 122.369 198.009C122.369 197.48 122.323 196.951 122.23 196.43L122.174 196.465Z" fill="#6C63FF"/>
<path d="M129.378 207.2C128.827 207.539 128.205 207.746 127.561 207.805C127.026 207.883 126.487 207.944 125.948 207.978C126.521 207.464 127.055 206.909 127.548 206.318C126.245 205.978 124.862 206.136 123.67 206.762C122.478 207.388 121.562 208.435 121.101 209.7C120.64 210.965 120.668 212.357 121.179 213.603C121.689 214.848 122.646 215.859 123.862 216.437C125.078 217.014 126.466 217.118 127.755 216.727C129.043 216.336 130.139 215.478 130.829 214.322C131.518 213.165 131.752 211.793 131.483 210.474C131.215 209.154 130.464 207.982 129.378 207.187V207.2Z" fill="#6C63FF"/>
<path d="M109.961 217.478C111.154 217.478 112.122 216.511 112.122 215.318C112.122 214.124 111.154 213.157 109.961 213.157C108.767 213.157 107.8 214.124 107.8 215.318C107.8 216.511 108.767 217.478 109.961 217.478Z" fill="#3F3D56"/>
<path d="M107.801 216.395C108.994 216.395 109.961 215.428 109.961 214.235C109.961 213.041 108.994 212.074 107.801 212.074C106.607 212.074 105.64 213.041 105.64 214.235C105.64 215.428 106.607 216.395 107.801 216.395Z" fill="#3F3D56"/>
<path d="M105.639 215.317C106.833 215.317 107.8 214.35 107.8 213.156C107.8 211.963 106.833 210.996 105.639 210.996C104.446 210.996 103.479 211.963 103.479 213.156C103.479 214.35 104.446 215.317 105.639 215.317Z" fill="#3F3D56"/>
<path d="M97.0262 207.2C97.5772 207.539 98.1993 207.746 98.8436 207.805C99.3784 207.883 99.9175 207.944 100.457 207.978C99.8826 207.466 99.3477 206.91 98.8566 206.318C100.159 205.978 101.542 206.136 102.734 206.762C103.927 207.388 104.843 208.435 105.303 209.7C105.764 210.965 105.736 212.357 105.226 213.603C104.715 214.848 103.758 215.859 102.542 216.437C101.326 217.014 99.9381 217.118 98.6498 216.727C97.3615 216.336 96.2654 215.478 95.5758 214.322C94.8862 213.165 94.6527 211.793 94.9209 210.474C95.1892 209.154 95.9398 207.982 97.0262 207.187V207.2Z" fill="#6C63FF"/>
<path d="M111.648 228.261H116.913C119.796 228.261 122.561 229.406 124.599 231.444C126.638 233.483 127.783 236.248 127.783 239.13V253.422C127.783 253.911 127.589 254.379 127.243 254.725C126.897 255.071 126.428 255.265 125.94 255.265H102.609C102.12 255.265 101.651 255.071 101.306 254.725C100.96 254.379 100.766 253.911 100.766 253.422V239.13C100.766 237.702 101.047 236.287 101.594 234.968C102.141 233.648 102.943 232.449 103.954 231.44C104.965 230.43 106.164 229.63 107.485 229.084C108.805 228.539 110.22 228.259 111.648 228.261V228.261Z" fill="#3F3D56"/>
<g opacity="0.1">
<path opacity="0.1" d="M122.322 197.057C122.103 197.29 121.871 197.511 121.626 197.718C121.874 197.718 122.117 197.678 122.365 197.652C122.356 197.452 122.343 197.252 122.322 197.057Z" fill="black"/>
<path opacity="0.1" d="M118.383 194.474C118.926 194.439 119.461 194.383 120 194.304C120.484 194.243 120.957 194.114 121.405 193.922C121.185 193.487 120.932 193.07 120.648 192.674C120.378 192.838 120.085 192.963 119.778 193.043C119.352 193.557 118.885 194.035 118.383 194.474Z" fill="black"/>
<path opacity="0.1" d="M105.1 199.113C105.097 197.465 105.538 195.846 106.378 194.427C107.217 193.009 108.424 191.843 109.87 191.052C111.317 190.262 112.95 189.876 114.597 189.936C116.244 189.996 117.845 190.498 119.231 191.391L119.37 191.244C118.465 190.439 117.411 189.821 116.267 189.426C115.123 189.031 113.912 188.866 112.704 188.941C111.496 189.016 110.315 189.329 109.228 189.863C108.142 190.396 107.172 191.139 106.374 192.049C105.576 192.959 104.966 194.018 104.579 195.165C104.192 196.312 104.036 197.524 104.12 198.732C104.203 199.939 104.525 201.118 105.067 202.201C105.608 203.283 106.358 204.248 107.274 205.039C105.868 203.385 105.097 201.284 105.1 199.113Z" fill="black"/>
</g>
<g opacity="0.1">
<path opacity="0.1" d="M125.948 209.057C126.487 209.022 127.027 208.965 127.561 208.887C128.206 208.827 128.828 208.619 129.379 208.278C129.989 208.728 130.498 209.301 130.873 209.96C131.247 210.619 131.479 211.35 131.553 212.104C131.574 211.915 131.584 211.725 131.583 211.535C131.587 210.69 131.392 209.857 131.015 209.102C130.637 208.346 130.087 207.69 129.409 207.187C128.858 207.526 128.236 207.733 127.592 207.791L127.157 207.848C126.786 208.281 126.382 208.686 125.948 209.057Z" fill="black"/>
<path opacity="0.1" d="M126.166 207.213C126.346 207.215 126.526 207.228 126.705 207.252C126.987 206.952 127.266 206.63 127.548 206.317C126.749 206.104 125.911 206.077 125.1 206.239C124.289 206.402 123.526 206.748 122.87 207.253C122.214 207.757 121.683 208.406 121.318 209.148C120.953 209.891 120.764 210.707 120.766 211.535C120.766 211.717 120.766 211.896 120.792 212.074C120.925 210.742 121.549 209.506 122.542 208.608C123.535 207.71 124.827 207.213 126.166 207.213V207.213Z" fill="black"/>
</g>
<g opacity="0.1">
<path opacity="0.1" d="M100.456 209.057C99.917 209.022 99.3779 208.965 98.8431 208.887C98.1984 208.827 97.5764 208.619 97.0257 208.278C96.4152 208.728 95.9062 209.301 95.5317 209.96C95.1572 210.619 94.9255 211.35 94.8518 212.104C94.8307 211.915 94.8205 211.725 94.8214 211.535C94.8173 210.69 95.0119 209.857 95.3895 209.102C95.7672 208.346 96.3173 207.69 96.9953 207.187C97.5463 207.526 98.1683 207.733 98.8127 207.791L99.2474 207.848C99.6161 208.284 100.02 208.688 100.456 209.057V209.057Z" fill="black"/>
<path opacity="0.1" d="M100.239 207.213C100.057 207.215 99.8758 207.228 99.6956 207.252C99.4173 206.952 99.1391 206.63 98.8564 206.317C99.6558 206.104 100.493 206.077 101.305 206.239C102.116 206.402 102.879 206.748 103.535 207.253C104.191 207.757 104.722 208.406 105.086 209.148C105.451 209.891 105.64 210.707 105.639 211.535C105.639 211.717 105.639 211.896 105.613 212.074C105.479 210.742 104.855 209.506 103.862 208.608C102.869 207.71 101.578 207.213 100.239 207.213V207.213Z" fill="black"/>
</g>
<path d="M85.5873 260.491H43.109C42.6305 260.491 42.1716 260.301 41.8332 259.963C41.4948 259.624 41.3047 259.166 41.3047 258.687V238.583C41.3046 238.278 41.3816 237.979 41.5285 237.712C41.6753 237.445 41.8873 237.22 42.1447 237.057C42.402 236.894 42.6964 236.799 43.0003 236.781C43.3042 236.763 43.6079 236.822 43.8829 236.952C56.0873 242.744 69.2351 244.73 84.7525 237.044C85.0276 236.908 85.3326 236.844 85.639 236.859C85.9453 236.874 86.2429 236.966 86.5038 237.127C86.7646 237.289 86.9802 237.514 87.1302 237.781C87.2802 238.049 87.3597 238.35 87.3612 238.657V258.657C87.3652 258.893 87.3226 259.129 87.2356 259.349C87.1486 259.57 87.0191 259.771 86.8543 259.941C86.6896 260.112 86.4929 260.248 86.2755 260.342C86.0581 260.437 85.8243 260.487 85.5873 260.491V260.491Z" fill="#6C63FF"/>
<path opacity="0.1" d="M85.5873 260.491H43.109C42.6305 260.491 42.1716 260.301 41.8332 259.963C41.4948 259.624 41.3047 259.166 41.3047 258.687V238.583C41.3046 238.278 41.3816 237.979 41.5285 237.712C41.6753 237.445 41.8873 237.22 42.1447 237.057C42.402 236.894 42.6964 236.799 43.0003 236.781C43.3042 236.763 43.6079 236.822 43.8829 236.952C56.0873 242.744 69.2351 244.73 84.7525 237.044C85.0276 236.908 85.3326 236.844 85.639 236.859C85.9453 236.874 86.2429 236.966 86.5038 237.127C86.7646 237.289 86.9802 237.514 87.1302 237.781C87.2802 238.049 87.3597 238.35 87.3612 238.657V258.657C87.3652 258.893 87.3226 259.129 87.2356 259.349C87.1486 259.57 87.0191 259.771 86.8543 259.941C86.6896 260.112 86.4929 260.248 86.2755 260.342C86.0581 260.437 85.8243 260.487 85.5873 260.491V260.491Z" fill="black"/>
<path d="M64.0521 245.209C65.44 245.209 66.5652 243.735 66.5652 241.917C66.5652 240.1 65.44 238.626 64.0521 238.626C62.6642 238.626 61.5391 240.1 61.5391 241.917C61.5391 243.735 62.6642 245.209 64.0521 245.209Z" fill="#3F3D56"/>
<path d="M64.0521 241.187C65.44 241.187 66.5652 239.714 66.5652 237.896C66.5652 236.078 65.44 234.604 64.0521 234.604C62.6642 234.604 61.5391 236.078 61.5391 237.896C61.5391 239.714 62.6642 241.187 64.0521 241.187Z" fill="#3F3D56"/>
<path d="M64.0521 237.161C65.44 237.161 66.5652 235.687 66.5652 233.869C66.5652 232.052 65.44 230.578 64.0521 230.578C62.6642 230.578 61.5391 232.052 61.5391 233.869C61.5391 235.687 62.6642 237.161 64.0521 237.161Z" fill="#3F3D56"/>
<path d="M64.0521 233.139C65.44 233.139 66.5652 231.666 66.5652 229.848C66.5652 228.03 65.44 226.557 64.0521 226.557C62.6642 226.557 61.5391 228.03 61.5391 229.848C61.5391 231.666 62.6642 233.139 64.0521 233.139Z" fill="#3F3D56"/>
<path d="M64.0521 229.113C65.44 229.113 66.5652 227.64 66.5652 225.822C66.5652 224.004 65.44 222.531 64.0521 222.531C62.6642 222.531 61.5391 224.004 61.5391 225.822C61.5391 227.64 62.6642 229.113 64.0521 229.113Z" fill="#3F3D56"/>
<path d="M64.0521 225.087C65.44 225.087 66.5652 223.613 66.5652 221.796C66.5652 219.978 65.44 218.504 64.0521 218.504C62.6642 218.504 61.5391 219.978 61.5391 221.796C61.5391 223.613 62.6642 225.087 64.0521 225.087Z" fill="#3F3D56"/>
<path d="M64.0521 221.065C65.44 221.065 66.5652 219.591 66.5652 217.774C66.5652 215.956 65.44 214.482 64.0521 214.482C62.6642 214.482 61.5391 215.956 61.5391 217.774C61.5391 219.591 62.6642 221.065 64.0521 221.065Z" fill="#3F3D56"/>
<path d="M73.4786 190.235C73.8198 189.796 74.132 189.336 74.4133 188.857L67.8047 187.77L74.9525 187.822C75.6421 186.328 76.0183 184.708 76.058 183.063C76.0976 181.418 75.7998 179.782 75.1829 178.257L65.596 183.231L74.4394 176.709C73.6114 175.277 72.4973 174.031 71.1666 173.048C69.8359 172.065 68.317 171.367 66.7047 170.997C65.0924 170.627 63.4212 170.593 61.7952 170.897C60.1692 171.201 58.6232 171.837 57.2536 172.765C55.8839 173.692 54.72 174.892 53.8343 176.289C52.9486 177.686 52.3601 179.251 52.1055 180.885C51.8509 182.52 51.9356 184.189 52.3543 185.789C52.7731 187.39 53.5169 188.887 54.5394 190.187C54.0022 190.866 53.5414 191.603 53.1655 192.383L61.7394 196.887L52.609 193.8C51.969 195.698 51.8116 197.725 52.1509 199.698C52.4902 201.672 53.3156 203.53 54.5525 205.104C53.1547 206.882 52.2852 209.016 52.0433 211.264C51.8015 213.512 52.1971 215.783 53.1849 217.817C54.1728 219.85 55.7129 221.565 57.6293 222.765C59.5458 223.964 61.7611 224.601 64.022 224.601C66.283 224.601 68.4983 223.964 70.4148 222.765C72.3312 221.565 73.8713 219.85 74.8592 217.817C75.847 215.783 76.2426 213.512 76.0008 211.264C75.7589 209.016 74.8894 206.882 73.4916 205.104C75.1616 202.981 76.0695 200.358 76.0695 197.657C76.0695 194.955 75.1616 192.332 73.4916 190.209L73.4786 190.235Z" fill="#6C63FF"/>
<path opacity="0.1" d="M51.9522 197.683C51.9482 200.385 52.8567 203.009 54.5304 205.131C53.1326 206.908 52.2631 209.042 52.0213 211.29C51.7794 213.538 52.175 215.809 53.1629 217.843C54.1507 219.876 55.6909 221.591 57.6073 222.791C59.5237 223.991 61.739 224.627 64 224.627C66.2609 224.627 68.4763 223.991 70.3927 222.791C72.3091 221.591 73.8493 219.876 74.8371 217.843C75.8249 215.809 76.2205 213.538 75.9787 211.29C75.7369 209.042 74.8673 206.908 73.4695 205.131C75.0826 203.083 51.9522 196.331 51.9522 197.683Z" fill="black"/>
<path d="M85.5873 261.557H43.109C42.6305 261.557 42.1716 261.366 41.8332 261.028C41.4948 260.69 41.3047 260.231 41.3047 259.752V238.583C41.3046 238.278 41.3816 237.979 41.5285 237.712C41.6753 237.445 41.8873 237.22 42.1447 237.057C42.402 236.894 42.6964 236.799 43.0003 236.781C43.3042 236.763 43.6079 236.822 43.8829 236.952C56.0873 242.744 65.7656 249.496 84.7525 237.044C85.8786 236.304 87.3612 237.313 87.3612 238.657V259.744C87.3636 260.218 87.1787 260.675 86.8466 261.014C86.5145 261.354 86.0621 261.549 85.5873 261.557Z" fill="#6C63FF"/>
<path d="M400.796 255.57L338.126 263.861L334.992 264.274L304.353 247.909V244.078L400.1 233.635L400.796 255.57Z" fill="#9C9CA1"/>
<path d="M322.109 249.648L390.001 241.644L389.305 254.178L336.422 258.057L322.109 249.648Z" fill="#939498"/>
<path opacity="0.4" d="M338.126 259.743V263.856L334.991 264.291L304.348 247.909V244.078L333.596 259.73C333.596 259.73 337.43 260.091 338.126 259.743Z" fill="black"/>
<path d="M350.157 194.461L336.087 259.7C335.945 260.353 335.963 261.031 336.138 261.676C336.313 262.321 336.641 262.914 337.094 263.406C337.547 263.897 338.111 264.273 338.739 264.5C339.368 264.728 340.042 264.801 340.704 264.713L429.717 252.93C430.493 252.828 431.224 252.51 431.827 252.012C432.429 251.513 432.88 250.855 433.126 250.113L452.331 192.2C452.543 191.557 452.596 190.873 452.484 190.205C452.373 189.538 452.101 188.907 451.692 188.368C451.283 187.829 450.749 187.398 450.136 187.111C449.523 186.824 448.85 186.69 448.174 186.722L354.035 191.191C353.119 191.235 352.243 191.578 351.542 192.169C350.841 192.76 350.354 193.566 350.157 194.461V194.461Z" fill="#3F3D56"/>
<path d="M399.068 218.528C399.286 216.451 398.381 214.653 397.046 214.513C395.711 214.372 394.452 215.943 394.233 218.02C394.015 220.098 394.92 221.896 396.255 222.036C397.59 222.177 398.849 220.606 399.068 218.528Z" fill="white"/>
</g>
<defs>
<clipPath id="clip0">
<rect width="500" height="272.822" fill="white"/>
</clipPath>
</defs>
</svg>
