<svg width="600" height="491" viewBox="0 0 600 491" fill="none" xmlns="http://www.w3.org/2000/svg">
<g clip-path="url(#clip0)">
<path opacity="0.1" d="M585.411 284.168C585.411 284.54 585.411 284.913 585.411 285.279C585.345 291.701 584.965 298.107 584.269 304.496C584.272 304.535 584.272 304.573 584.269 304.612C584.214 305.143 584.153 305.668 584.092 306.199C583.988 307.096 583.878 307.988 583.756 308.885C582.333 319.808 579.978 330.589 576.718 341.11C572.35 355.328 566.174 368.926 558.343 381.571C555.934 385.437 553.368 389.179 550.646 392.797C549.193 394.714 547.709 396.588 546.177 398.431C545.103 399.721 544.008 400.991 542.893 402.24L542.197 403.009C536.33 409.451 530.006 415.462 523.273 420.993C512.285 430.101 500.455 438.025 488.435 445.374C487.752 445.796 487.062 446.211 486.372 446.595C486.324 446.63 486.273 446.661 486.219 446.687C469.884 456.564 452.944 465.476 435.491 472.612C416.384 480.444 396.655 486.14 376.413 488.63C348.198 492.098 319.641 489.278 291.597 484.431C268.274 480.423 245.233 474.918 222.617 467.949L218.893 466.783C216.964 466.168 215.037 465.541 213.112 464.902C201.486 461.057 189.989 456.784 178.622 452.083C150.075 440.325 122.803 425.682 97.2317 408.381C93.976 406.192 90.7671 403.954 87.605 401.667C83.1854 398.484 78.8187 395.208 74.5049 391.838L71.8433 389.775C60.5541 380.935 49.9771 371.221 40.2101 360.724C27.0733 346.427 15.8472 330.299 8.46697 311.888C7.30305 308.995 6.23681 306.046 5.26824 303.043L5.17667 302.744C4.68831 301.218 4.23658 299.692 3.82148 298.105C3.21104 295.834 2.67588 293.534 2.21601 291.207C2.11834 290.761 2.03288 290.315 1.95352 289.864C0.49449 282.03 -0.14991 274.066 0.030621 266.099C0.183296 259.119 1.00092 252.169 2.4724 245.344C3.9785 238.269 6.29943 231.392 9.38874 224.851C12.1806 218.97 15.7377 213.483 19.9677 208.534C22.9402 205.074 26.283 201.95 29.9363 199.219C36.5596 194.286 43.9033 190.849 51.5155 188.133C55.0927 186.851 58.7188 185.728 62.3631 184.684C64.9453 183.939 67.5397 183.231 70.1219 182.535L77.7402 180.478C82.6238 179.147 87.5073 177.78 92.3177 176.303C105.43 172.298 118.28 167.451 130.165 160.223C132.045 159.082 133.962 157.83 135.879 156.488C138.321 154.79 140.726 152.947 143.107 150.957C145.512 148.942 147.868 146.788 150.115 144.504C150.463 144.15 150.804 143.796 151.146 143.436C152.978 141.507 154.754 139.487 156.402 137.387C157.208 136.361 157.989 135.317 158.734 134.255C159.766 132.784 160.742 131.288 161.646 129.75C166.175 122.058 168.971 113.573 168.642 104.63C168.593 103.157 168.461 101.687 168.245 100.229C167.451 94.8387 166.688 89.5767 166.127 84.4306C163.77 63.1444 164.765 43.8421 180.741 25.7058C200.604 3.16211 231.78 -1.43454 260.159 0.366275C342.209 5.55505 416.903 52.4006 482.544 108.171C488.222 112.989 493.83 117.873 499.368 122.821C500.764 124.067 502.162 125.32 503.562 126.582C513.94 135.928 524.158 145.622 533.675 156.005C534.444 156.848 535.214 157.69 535.971 158.539C536.435 159.064 536.905 159.582 537.362 160.114C540.329 163.471 543.208 166.91 546 170.43C553.479 179.775 560.083 189.788 565.73 200.342C574.376 216.904 580.229 234.78 583.054 253.249C584.116 259.956 584.815 266.715 585.148 273.498C585.252 275.494 585.319 277.496 585.356 279.492C585.356 280.133 585.356 280.768 585.356 281.409C585.417 282.337 585.417 283.24 585.411 284.168Z" fill="#274970"/>
<path d="M240.503 273.931L230.736 447.779L240.503 447.908L248.439 271.489L240.503 273.931Z" fill="#3F3D56"/>
<path d="M204.487 362.012H83.6187V388.261H204.487V362.012Z" fill="#274970"/>
<path d="M212.423 385.203V401.685H87.5684C83.1488 398.502 78.7821 395.226 74.4683 391.857V385.203H212.423Z" fill="#3F3D56"/>
<path d="M237.353 347.691C237.011 349.272 236.566 350.835 236.096 352.391C234.71 356.89 233.043 361.328 232.72 366.004C232.286 372.182 233.941 379.367 229.668 383.854C228.569 385.014 227.134 385.88 226.151 387.12C226 387.314 225.861 387.518 225.736 387.73C224.857 389.183 224.753 390.953 224.741 392.614C224.752 396.155 224.982 399.692 225.431 403.205C226.878 415.292 229.735 427.403 225.98 438.812C225.3 440.791 224.507 442.729 223.606 444.617C221.775 448.646 219.778 452.62 219.18 456.985C218.741 460.22 218.875 463.553 218.85 466.844C216.921 466.229 214.995 465.602 213.07 464.964C201.443 461.118 189.946 456.845 178.579 452.144C178.61 451.979 178.641 451.808 178.665 451.644C179.538 446.211 178.341 440.656 176.889 435.357C173.836 424.131 169.514 413.015 166.957 401.709C165.927 397.294 165.251 392.803 164.936 388.279C164.863 387.266 164.82 386.247 164.814 385.227C164.783 383.896 164.814 382.566 164.869 381.223C164.997 378.543 165.113 375.362 162.97 373.733C161.792 372.847 160.236 372.695 158.862 372.158C156.213 371.126 154.4 368.733 152.3 366.816C151.298 365.844 150.075 365.131 148.736 364.738C147.397 364.344 145.982 364.282 144.614 364.558C130.892 367.701 120.807 379.343 108.036 385.227C107.542 385.459 107.048 385.679 106.547 385.887C104.895 386.491 103.323 387.295 101.865 388.279C100.84 388.991 100.097 390.038 99.7649 391.24C99.4414 392.534 99.7222 393.889 99.8809 395.22C100.138 397.384 100.045 399.575 99.6062 401.709C99.4407 402.536 99.2225 403.352 98.953 404.151C98.4647 405.598 97.8115 407.014 97.1889 408.424C93.9332 406.235 90.7243 403.996 87.5622 401.709C83.1425 398.527 78.7758 395.251 74.462 391.881L71.8432 389.775C60.5539 380.935 49.977 371.221 40.21 360.724C41.5102 357.061 43.3904 353.655 44.2938 349.901C44.8066 347.746 44.9958 345.506 45.704 343.412C46.5206 341.241 47.6563 339.204 49.0736 337.368C54.2645 330.129 60.603 323.787 67.8387 318.591C75.4021 313.17 84.1376 308.824 90.944 302.671C93.7062 300.252 96.0873 297.431 98.0069 294.301C98.1229 294.112 98.2327 293.911 98.3304 293.691C98.8617 292.586 99.2298 291.41 99.4231 290.199C99.9115 287.465 99.8382 284.461 100.082 281.836C108.374 283.272 116.827 283.526 125.19 282.593C134.927 281.5 144.449 278.796 154.186 277.746C154.919 277.661 155.657 277.594 156.396 277.533C159.515 277.282 162.641 277.227 165.772 277.264C168.391 277.264 171.01 277.38 173.629 277.465L202.46 278.442C205.653 278.552 208.912 278.674 211.885 279.84C215.414 281.226 218.24 283.985 220.505 287.019C220.792 287.41 221.079 287.8 221.347 288.203C223.211 290.922 224.705 293.876 225.791 296.987C225.907 297.305 226.017 297.598 226.121 297.946C226.396 298.794 226.634 299.649 226.847 300.516C227.012 301.193 227.159 301.871 227.293 302.555C227.964 305.937 228.361 309.392 229.423 312.658C229.497 312.896 229.576 313.134 229.661 313.366C230.937 316.943 233.056 320.148 234.655 323.585C235.808 326.072 236.688 328.678 237.28 331.355C238.475 336.732 238.5 342.304 237.353 347.691Z" fill="#35323E"/>
<path d="M149.718 129.231C147.142 127.18 143.406 128.682 140.39 130.006C137.862 131.123 135.259 132.063 132.601 132.821C132.057 133.03 131.467 133.091 130.892 132.998C129.671 132.705 129.158 131.258 128.248 130.379C126.667 128.859 124.079 129.219 122.04 130.043C120.001 130.867 117.987 132.057 115.801 131.874C113.47 131.691 111.443 129.97 109.087 129.915C104.936 129.817 101.45 134.933 97.5248 133.578C95.1318 132.753 93.2517 129.64 90.8953 130.525C89.064 131.221 88.8992 133.755 87.7943 135.409C86.494 137.338 83.9607 137.881 81.7936 138.736C74.9627 141.434 70.4393 149.046 71.3306 156.335C71.825 160.358 73.7724 164.045 75.0604 167.885C78.8818 179.05 77.5693 191.643 82.3857 202.411C82.9962 201.837 83.338 201.624 83.9302 201.056C82.4073 204.215 82.1135 207.826 83.1061 211.189C83.6127 212.88 84.4368 214.455 85.0595 216.11C85.7063 217.965 86.2284 219.862 86.6222 221.787L91.9331 245.216C94.0086 254.372 96.0902 263.529 96.4504 272.905C96.6746 279.002 96.2077 285.105 95.0586 291.097C104.679 289.503 113.482 285.236 123.231 285.291C126.808 285.291 130.354 285.902 133.901 286.39C144.242 287.837 154.672 288.545 165.113 288.508C166.737 288.601 168.363 288.373 169.899 287.837C171.242 287.263 172.341 286.244 173.611 285.505C176.095 284.04 179.105 283.674 181.968 283.674C195.025 283.436 207.606 288.215 220.578 289.9C225.7 279.15 226.005 266.27 222.074 255.032C220.908 251.692 219.339 248.439 218.875 244.929C218.689 242.771 218.64 240.604 218.729 238.44C218.708 232.9 217.71 227.407 215.78 222.214C215.023 220.181 214.114 218.112 214.193 215.945C214.272 213.778 215.341 211.757 216.391 209.84C218.521 205.934 220.664 201.99 223.673 198.694C226.756 195.287 230.614 192.693 234.429 190.147L243.848 183.823C242.56 175.686 240.9 167.115 237.451 159.631C234.002 152.147 228.844 145.268 221.866 140.891C219.514 139.475 217.052 138.251 214.504 137.228C210.939 135.726 207.228 134.402 203.364 134.176C198.968 133.925 194.64 135.104 190.3 135.836C176.638 138.138 160.559 137.857 149.718 129.231Z" fill="#274970"/>
<path d="M252.712 270.439L248.231 276.098L239.783 286.762L230.016 299.087L227.287 302.53H221.995L90.9381 302.683L8.86384 302.774H5.20117C4.71282 301.248 4.26109 299.722 3.84599 298.135C3.23554 295.864 2.70039 293.565 2.24052 291.237C2.14285 290.791 2.05739 290.346 1.97803 289.894L31.7555 270.427L42.9511 270.366L77.197 270.171L96.3223 270.061H99.814H102.005L114.752 269.994L211.898 269.438L216.867 269.408H219.022L224.729 269.377L245.967 269.255L250.044 267.704L250.344 268.022L252.712 270.439Z" fill="#3F3D56"/>
<path d="M250.881 267.387L250.374 267.997L247.041 271.923L240.18 280.023L225.791 296.987L98.3305 293.734L2.21601 291.292C2.11834 290.846 2.03288 290.401 1.95352 289.949C0.49449 282.115 -0.14991 274.151 0.030621 266.184L10.689 260.727L13.1308 259.47L32.1339 249.702L48.8113 241.156L92.3115 246.809L101.944 248.06L106.303 248.622L112.682 249.452L113.219 249.525L213.253 262.497L224.308 263.932L230.797 264.774L250.795 267.375L250.881 267.387Z" fill="#504F60"/>
<path d="M230.125 296.688L230.022 299.087L229.411 312.633L226.127 387.107L225.431 403.205L223.6 444.617L222.568 468.01L218.844 466.844C216.915 466.229 214.988 465.602 213.063 464.964L221.994 302.585L222.184 299.179L226.115 297.958L230.125 296.688Z" fill="#3F3D56"/>
<path d="M9.14437 296.511L8.86967 302.781L8.46677 311.937C7.30286 309.044 6.23662 306.095 5.26804 303.092L5.17648 302.793C4.68812 301.267 4.23639 299.741 3.82129 298.153L9.14437 296.511Z" fill="#3F3D56"/>
<path d="M168.776 204.212C184.284 204.212 196.856 187.267 196.856 166.364C196.856 145.462 184.284 128.517 168.776 128.517C153.267 128.517 140.695 145.462 140.695 166.364C140.695 187.267 153.267 204.212 168.776 204.212Z" fill="#A1616A"/>
<path opacity="0.1" d="M168.776 204.212C184.284 204.212 196.856 187.267 196.856 166.364C196.856 145.462 184.284 128.517 168.776 128.517C153.267 128.517 140.695 145.462 140.695 166.364C140.695 187.267 153.267 204.212 168.776 204.212Z" fill="black"/>
<path d="M172.744 182.541C194.321 182.541 211.812 165.05 211.812 143.473C211.812 121.896 194.321 104.404 172.744 104.404C151.167 104.404 133.675 121.896 133.675 143.473C133.675 165.05 151.167 182.541 172.744 182.541Z" fill="#A1616A"/>
<path d="M173.519 83.2585C171.133 83.4487 168.765 83.8098 166.431 84.339C160.254 85.8407 154.912 89.1738 149.711 92.4457C147.379 93.9169 144.98 95.4491 143.534 97.6101C140.933 101.486 141.94 106.419 140.481 110.722C139.724 112.932 138.333 114.916 137.155 116.973C133.913 122.614 132.216 128.81 130.549 134.945C130.208 136.215 130.11 137.936 131.496 138.424C132.294 138.59 133.124 138.496 133.864 138.156C138.241 136.709 143.802 136.294 147.05 139.23C150.297 142.166 150.023 147.374 153.887 149.608C158.313 152.19 165.223 149.071 169.239 152.117C170.961 153.423 171.584 155.517 172.994 157.092C176.278 160.754 182.596 160.577 187.852 159.839C190.868 159.412 194.567 159.125 196.398 161.243C197.277 162.244 197.527 163.617 198.547 164.521C200.378 166.157 203.73 165.327 205.518 163.648C207.307 161.969 208.161 159.698 209.651 157.812C212.551 154.149 217.648 152.153 220.639 148.533C223.142 145.481 223.899 141.66 224.582 137.973L227.128 124.305C228.16 118.762 229.1 112.706 225.98 107.823C224.869 106.065 223.276 104.551 222.318 102.732C221.677 101.511 221.317 100.223 220.572 99.0691C219.689 97.8672 218.633 96.8017 217.44 95.907L211.415 90.9196C209.355 89.1165 207.152 87.4833 204.828 86.0361C196.227 81.0243 183.347 82.3429 173.519 83.2585Z" fill="#464353"/>
<path d="M44.8371 183.896C43.3903 185.435 42.0534 187.095 40.5029 188.536C39.1389 189.749 37.7126 190.89 36.2298 191.954C33.8369 193.745 31.4968 195.599 29.2097 197.515C26.8236 199.402 24.6644 201.559 22.7756 203.943C19.5158 208.32 17.9714 213.766 14.9192 218.289C12.221 222.3 8.41795 225.468 5.67705 229.448C4.47461 231.121 3.58148 232.996 3.03993 234.985C2.6357 236.909 2.45341 238.873 2.49663 240.839C2.44169 244.062 2.39286 247.322 3.05214 250.478C3.71142 253.634 5.15817 256.735 7.63658 258.804C9.93795 260.727 12.9108 261.612 15.8226 262.345C17.3243 262.717 18.9481 263.065 20.3766 262.473C21.4218 261.945 22.3291 261.18 23.0259 260.239L30.455 251.692C35.424 245.954 40.5884 240.094 47.4071 236.737C49.5436 235.693 51.7962 234.905 53.9388 233.892C63.0222 229.515 69.4441 220.554 71.9347 210.787C72.5452 208.4 72.9358 205.964 73.3326 203.528L74.407 196.85C74.4895 196.515 74.4895 196.165 74.407 195.831C74.2388 195.454 73.968 195.133 73.6256 194.903C68.451 190.724 63.606 186.152 59.1337 181.229C58.0715 180.057 57.0765 178.451 55.8495 177.468C54.3112 176.248 54.4272 176.339 52.5775 177.468C49.7322 179.27 47.1306 181.43 44.8371 183.896Z" fill="#A1616A"/>
<path d="M95.6567 228.337C95.5949 228.195 95.5051 228.067 95.3927 227.961C95.2803 227.855 95.1475 227.772 95.0025 227.719C94.8574 227.665 94.703 227.641 94.5485 227.649C94.3941 227.656 94.2427 227.695 94.1036 227.763C93.9644 227.83 93.8404 227.925 93.7388 228.042C93.6373 228.158 93.5604 228.294 93.5127 228.442C93.4651 228.589 93.4477 228.744 93.4615 228.898C93.4754 229.052 93.5202 229.202 93.5934 229.338L92.9829 229.637L111.186 266.947L114.477 265.342L96.2732 228.007L95.6567 228.337Z" fill="#3F3D56"/>
<path opacity="0.04" d="M44.8371 183.896C43.3903 185.435 42.0534 187.095 40.5029 188.536C39.1389 189.749 37.7126 190.89 36.2298 191.954C33.8369 193.745 31.4968 195.599 29.2097 197.515C26.8236 199.402 24.6644 201.559 22.7756 203.943C19.5158 208.32 17.9714 213.766 14.9192 218.289C12.221 222.3 8.41795 225.468 5.67705 229.448C4.47461 231.121 3.58148 232.996 3.03993 234.985C2.6357 236.909 2.45341 238.873 2.49663 240.839C2.44169 244.062 2.39286 247.322 3.05214 250.478C3.71142 253.634 5.15817 256.735 7.63658 258.804C9.93795 260.727 12.9108 261.612 15.8226 262.345C17.3243 262.717 18.9481 263.065 20.3766 262.473C21.4218 261.945 22.3291 261.18 23.0259 260.239L30.455 251.692C35.424 245.954 40.5884 240.094 47.4071 236.737C49.5436 235.693 51.7962 234.905 53.9388 233.892C63.0222 229.515 69.4441 220.554 71.9347 210.787C72.5452 208.4 72.9358 205.964 73.3326 203.528L74.407 196.85C74.4895 196.515 74.4895 196.165 74.407 195.831C74.2388 195.454 73.968 195.133 73.6256 194.903C68.451 190.724 63.606 186.152 59.1337 181.229C58.0715 180.057 57.0765 178.451 55.8495 177.468C54.3112 176.248 54.4272 176.339 52.5775 177.468C49.7322 179.27 47.1306 181.43 44.8371 183.896Z" fill="black"/>
<path d="M255.282 252.657C255.221 256.552 255.068 260.562 253.45 264.115C252.755 265.653 251.674 267.167 250.056 267.674C249.077 267.9 248.064 267.937 247.071 267.784C235.095 266.731 223.027 267.689 211.366 270.616C214.48 264.39 212.691 256.924 213.552 250.014C213.79 248.127 214.223 246.272 214.388 244.379C214.999 237.664 212.123 231.145 210.805 224.515C209.66 218.777 209.66 212.869 210.805 207.13C211.029 205.653 211.537 204.233 212.3 202.948C213.194 201.699 214.37 200.676 215.731 199.963C220.676 197.149 226.505 196.826 232.06 197.198C235.802 197.448 243.305 197.094 246.424 199.396C249.837 201.917 250.917 210.384 251.839 214.297C253.219 220.298 254.158 226.392 254.647 232.531C255.245 239.221 255.373 245.942 255.282 252.657Z" fill="#A1616A"/>
<path d="M36.6143 266.172L58.5903 280.823L157.482 277.16L92.1647 266.172H36.6143Z" fill="white"/>
<path d="M65.5922 149.767C61.9845 152.947 58.9262 156.695 55.5077 160.083C50.8195 164.735 45.4903 168.69 40.1855 172.628C42.0876 173.159 43.8189 174.176 45.21 175.578C46.6011 176.979 47.6043 178.718 48.1213 180.624C48.3533 181.522 48.4693 182.456 48.7318 183.335C49.3422 185.416 50.6852 187.211 52.1258 188.829C58.3158 195.806 66.978 200.971 70.6284 209.584C70.7475 210.003 71.0059 210.369 71.3609 210.622C71.658 210.753 71.9879 210.792 72.3071 210.732C75.6096 210.384 78.1369 207.722 80.2429 205.134C84.6381 199.64 88.4534 193.572 90.6205 186.869C92.7876 180.167 93.1355 172.756 90.7731 166.114C89.5949 162.806 87.7758 159.766 85.9689 156.756C84.3858 154.123 82.8068 151.494 81.2318 148.869C80.4077 147.483 79.3578 144.669 77.7401 143.986C74.2483 142.484 67.8326 147.526 65.5922 149.767Z" fill="#274970"/>
<path d="M245.393 189.22L250.588 201.428C244.933 199.452 238.888 198.851 232.955 199.674C227.021 200.496 221.368 202.719 216.464 206.159C213.503 208.278 210.787 210.939 209.45 214.321C208.79 214.446 208.108 214.383 207.483 214.138C206.858 213.893 206.314 213.476 205.915 212.935C205.134 211.839 204.681 210.543 204.609 209.199C204.127 204.511 205.903 199.914 207.661 195.532C208.479 193.48 209.322 191.387 210.775 189.72C212.227 188.054 214.156 186.955 216.085 185.917C222.239 182.514 228.685 179.666 235.345 177.407C238.153 176.498 241.095 176.516 242.67 179.141C244.495 182.273 243.964 185.886 245.393 189.22Z" fill="#274970"/>
<path d="M36.7429 225.852C38.0431 226.89 39.1847 228.117 40.5215 229.106C41.9354 230.088 43.4398 230.932 45.0144 231.627L51.0334 234.521C52.8986 235.49 54.8503 236.283 56.8631 236.889C59.4392 237.579 62.1435 237.646 64.7318 238.287C67.9977 239.093 70.9827 240.772 74.1998 241.742C77.4168 242.713 81.1833 242.872 83.8692 240.851C85.5479 239.587 86.8177 237.5 88.8993 237.188C90.2423 237.011 91.5364 237.658 92.7329 238.287L108.397 246.522C110.509 247.633 112.743 248.866 113.848 250.984C114.953 253.103 114.208 256.32 111.883 256.869C111.072 256.962 110.257 257.009 109.441 257.009C108.635 257.107 107.756 257.583 107.646 258.395C107.642 258.899 107.775 259.395 108.031 259.83C108.733 261.441 108.94 263.37 108.122 264.933C107.304 266.496 105.296 267.466 103.69 266.764C103.965 269.127 101.395 270.781 99.1059 271.41C93.3311 272.991 87.2084 272.02 81.3054 271.019C78.9857 270.628 76.6293 270.226 74.5172 269.188C73.5039 268.693 72.5638 268.058 71.5382 267.601C68.7241 266.349 65.5254 266.514 62.4487 266.569C48.2193 266.819 34.1119 264.182 20.1205 261.557C17.5261 261.069 14.8584 260.55 12.6425 259.115C8.36942 256.332 6.78227 250.618 7.48428 245.564C8.18629 240.509 10.7502 235.931 13.2713 231.487L16.5372 225.73C16.9641 224.848 17.5617 224.06 18.2953 223.411C23.0995 219.742 32.6285 222.544 36.7429 225.852Z" fill="#A1616A"/>
<path opacity="0.04" d="M36.7429 225.852C38.0431 226.89 39.1847 228.117 40.5215 229.106C41.9354 230.088 43.4398 230.932 45.0144 231.627L51.0334 234.521C52.8986 235.49 54.8503 236.283 56.8631 236.889C59.4392 237.579 62.1435 237.646 64.7318 238.287C67.9977 239.093 70.9827 240.772 74.1998 241.742C77.4168 242.713 81.1833 242.872 83.8692 240.851C85.5479 239.587 86.8177 237.5 88.8993 237.188C90.2423 237.011 91.5364 237.658 92.7329 238.287L108.397 246.522C110.509 247.633 112.743 248.866 113.848 250.984C114.953 253.103 114.208 256.32 111.883 256.869C111.072 256.962 110.257 257.009 109.441 257.009C108.635 257.107 107.756 257.583 107.646 258.395C107.642 258.899 107.775 259.395 108.031 259.83C108.733 261.441 108.94 263.37 108.122 264.933C107.304 266.496 105.296 267.466 103.69 266.764C103.965 269.127 101.395 270.781 99.1059 271.41C93.3311 272.991 87.2084 272.02 81.3054 271.019C78.9857 270.628 76.6293 270.226 74.5172 269.188C73.5039 268.693 72.5638 268.058 71.5382 267.601C68.7241 266.349 65.5254 266.514 62.4487 266.569C48.2193 266.819 34.1119 264.182 20.1205 261.557C17.5261 261.069 14.8584 260.55 12.6425 259.115C8.36942 256.332 6.78227 250.618 7.48428 245.564C8.18629 240.509 10.7502 235.931 13.2713 231.487L16.5372 225.73C16.9641 224.848 17.5617 224.06 18.2953 223.411C23.0995 219.742 32.6285 222.544 36.7429 225.852Z" fill="black"/>
<path d="M223.087 236.401C219.907 237.903 216.256 238.049 212.936 239.203C209.615 240.356 206.794 242.432 203.748 244.123C195.813 248.555 186.656 250.227 177.664 251.821C172.213 252.797 166.676 253.774 161.182 253.542C153.747 253.225 146.605 250.746 139.401 248.878C132.198 247.01 124.513 245.753 117.377 247.853C113.65 248.987 110.244 250.984 107.433 253.681C104.622 256.378 102.487 259.7 101.2 263.376C99.7041 267.765 99.4966 272.496 99.7835 277.124C101.285 278.229 103.385 276.696 104.203 275.018C105.021 273.339 105.467 271.282 107.054 270.305C109.807 271.239 110.479 274.908 112.749 276.721C114.166 277.856 116.058 278.155 117.859 278.412L127.138 279.73C129.372 280.048 131.966 280.261 133.584 278.686C134.371 277.923 134.805 276.855 135.525 276.037C137.002 274.401 139.469 274.12 141.666 274.34C148.528 275.024 154.962 279.474 161.774 278.418C164.118 278.058 166.298 277.056 168.532 276.269C181.772 271.593 196.484 274.438 210.262 271.758C215.518 270.738 220.578 268.931 225.578 267.027C228.294 265.995 231.041 264.915 233.361 263.169C235.559 261.479 237.292 259.259 238.398 256.717C239.504 254.175 239.947 251.394 239.685 248.634C239.174 244.428 237.076 240.576 233.819 237.866C232.744 236.95 231.334 235.198 230.046 234.624C227.586 233.544 225.175 235.418 223.087 236.401Z" fill="#A1616A"/>
<g opacity="0.1">
<path opacity="0.1" d="M205.25 158.417C204.23 157.513 203.98 156.14 203.101 155.138C201.27 153.02 197.571 153.307 194.555 153.734C189.299 154.473 182.956 154.644 179.697 150.987C178.287 149.412 177.664 147.325 175.942 146.012C171.926 142.96 165.015 146.086 160.59 143.503C156.726 141.251 156.976 136.025 153.753 133.126C150.53 130.226 144.944 130.605 140.567 132.051C139.827 132.392 138.997 132.486 138.199 132.32C136.813 131.832 136.911 130.11 137.252 128.84C138.919 122.706 140.616 116.509 143.857 110.869C145.036 108.812 146.427 106.828 147.184 104.618C148.509 100.748 147.831 96.3709 149.571 92.7083C147.703 93.9291 145.909 95.2599 144.755 96.9814C142.154 100.858 143.162 105.79 141.703 110.094C140.946 112.304 139.554 114.287 138.376 116.345C135.134 121.985 133.437 128.181 131.771 134.316C131.429 135.586 131.331 137.307 132.717 137.796C133.515 137.961 134.345 137.867 135.085 137.527C139.462 136.08 145.023 135.665 148.271 138.601C151.519 141.538 151.244 146.745 155.108 148.979C159.534 151.561 166.444 148.442 170.461 151.488C172.182 152.794 172.805 154.888 174.215 156.463C177.499 160.126 183.817 159.949 189.073 159.21C192.089 158.783 195.788 158.496 197.619 160.614C198.498 161.615 198.749 162.989 199.768 163.892C201.599 165.528 204.951 164.698 206.739 163.019C207.886 161.825 208.868 160.482 209.657 159.027C208.07 159.509 206.379 159.436 205.25 158.417Z" fill="black"/>
<path opacity="0.1" d="M216.372 151.702C215.979 152.208 215.614 152.736 215.279 153.283C217.623 151.61 220.108 150.047 221.86 147.917C222.315 147.366 222.723 146.778 223.081 146.159C220.645 147.905 218.106 149.51 216.372 151.702Z" fill="black"/>
</g>
<path d="M339.7 272.582L341.532 447.779L350.078 446.559L348.246 272.582H339.7Z" fill="#3F3D56"/>
<path d="M390.978 304.325L392.809 479.523L401.355 478.302L399.524 304.325H390.978Z" fill="#3F3D56"/>
<path d="M550.627 392.827L550.591 389.464V387.461L550.267 356.646L549.761 308.47L549.675 304.313H541.129L541.172 308.317L541.44 334.121L541.556 345.292L541.654 354.339L541.813 369.978L541.91 379.202V380.179L542.038 392.302L542.148 402.991L542.844 402.222C543.963 400.973 545.058 399.703 546.128 398.413L550.627 392.827Z" fill="#3F3D56"/>
<path d="M381.516 332.711L376.632 340.012L381.516 373.275L423.026 384.635H490.175L530.464 387.071L549.657 373.934L546.336 351.372L531.685 332.711H381.516Z" fill="#274970"/>
<path d="M376.632 340.012L374.191 360.291C374.191 360.291 361.371 400.049 464.536 397.613C567.702 395.178 549.999 387.065 549.999 387.065L549.388 363.538C549.388 363.538 552.984 374.673 500.553 373.165C448.122 371.657 399.219 366.786 399.219 366.786C399.219 366.786 380.905 370.027 376.632 340.012Z" fill="#3F3D56"/>
<path d="M462.583 158.246C456.698 160.925 452.242 166.12 449.257 171.865C446.272 177.609 444.593 183.915 442.939 190.178C441.193 196.783 439.441 203.406 438.538 210.176C436.926 222.214 438.135 234.869 443.665 245.68C449.196 256.491 459.415 265.214 471.379 267.295C476.001 268.107 480.75 267.943 485.42 267.46C493.86 266.566 502.175 264.734 510.21 261.997C518.603 259.158 527.339 254.787 531.075 246.736C533.242 242.066 533.425 236.743 533.321 231.603C533.033 217.594 530.917 203.682 527.028 190.221C525.898 186.314 524.586 182.376 522.193 179.086C519.8 175.796 516.528 173.385 513.189 171.15C498.91 161.536 480.145 150.261 462.583 158.246Z" fill="#FBBEBE"/>
<path opacity="0.05" d="M462.583 158.246C456.698 160.925 452.242 166.12 449.257 171.865C446.272 177.609 444.593 183.915 442.939 190.178C441.193 196.783 439.441 203.406 438.538 210.176C436.926 222.214 438.135 234.869 443.665 245.68C449.196 256.491 459.415 265.214 471.379 267.295C476.001 268.107 480.75 267.943 485.42 267.46C493.86 266.566 502.175 264.734 510.21 261.997C518.603 259.158 527.339 254.787 531.075 246.736C533.242 242.066 533.425 236.743 533.321 231.603C533.033 217.594 530.917 203.682 527.028 190.221C525.898 186.314 524.586 182.376 522.193 179.086C519.8 175.796 516.528 173.385 513.189 171.15C498.91 161.536 480.145 150.261 462.583 158.246Z" fill="black"/>
<path d="M455.972 235.082C457.675 237.423 459.735 239.483 462.076 241.187C467.887 245.203 475.347 245.747 482.404 245.966C488.069 246.137 494.564 245.814 498.117 241.394C499.716 239.404 500.436 236.865 501.083 234.392C505.077 219.211 507.913 203.749 509.569 188.139L525.733 188.194C532.729 218.148 532.155 249.287 531.545 280.048L530.659 324.903L520.245 323.798C495.516 321.179 470.75 318.561 445.887 318.109C431.319 317.841 416.747 318.322 402.228 319.549L424.906 252.12C427.848 243.354 430.821 234.472 431.511 225.26C432.506 211.898 428.758 197.79 433.953 185.429C434.368 184.434 434.893 183.402 435.839 182.883C436.785 182.364 437.982 182.492 439.068 182.633C441.119 182.908 447.389 182.633 448.878 183.945C451.076 185.85 449.623 186.137 448.848 189.207C447.462 194.701 446.149 199.786 446.168 205.512C446.186 215.908 449.409 226.884 455.972 235.082Z" fill="#274970"/>
<path d="M550.627 392.827C553.35 389.213 555.916 385.471 558.325 381.601C557.104 378.989 555.761 376.437 554.693 373.769C553.057 369.679 552.117 365.345 551.189 361.041C550.871 359.576 550.556 358.111 550.242 356.646C546.824 340.708 543.613 324.543 542.948 308.384C542.887 307.042 542.848 305.699 542.832 304.356C542.832 304.16 542.832 303.971 542.832 303.745C542.832 302.274 542.832 300.803 542.832 299.338C542.905 295.675 543.137 291.982 543.558 288.307C543.637 287.587 543.729 286.866 543.827 286.146C543.827 285.987 543.863 285.835 543.888 285.676L585.398 284.162L588.89 284.034C591.289 283.948 593.828 283.814 595.806 282.453C599.133 280.17 599.524 275.488 599.469 271.465C599.267 261.297 598.114 251.17 596.026 241.217C594.451 233.733 592.204 226.084 587.162 220.334C583.023 215.609 577.029 212.172 574.874 206.294C574.074 204.108 573.873 201.709 572.835 199.622C571.797 197.534 570.082 196.002 568.464 194.39C562.771 188.749 558.048 182.206 554.485 175.027C552.013 170.046 549.333 164.552 546.104 161.109C545.945 160.932 545.786 160.767 545.621 160.608C542.874 157.892 539.731 156.701 536.007 158.551C535.337 158.887 534.7 159.283 534.102 159.735C532.775 160.749 531.562 161.903 530.482 163.178C526.721 167.503 523.421 172.208 520.636 177.218C518.678 180.745 516.996 184.419 515.606 188.206C514.509 191.198 513.601 194.257 512.889 197.363C512.364 199.664 511.949 201.99 511.62 204.322C510.399 213.088 510.399 222.025 510.57 230.901C510.753 239.056 511.113 247.23 511.852 255.355C512.035 257.321 512.238 259.284 512.462 261.246C512.91 265.124 513.463 268.99 514.122 272.844C514.385 274.316 514.654 275.787 514.953 277.252C515.026 277.643 515.105 278.033 515.185 278.418L515.221 278.583C516.028 281.988 516.653 285.434 517.095 288.905C517.144 289.341 517.181 289.774 517.205 290.205C517.308 292.201 517.292 294.201 517.156 296.194C517.016 298.55 516.796 300.9 516.686 303.257C516.686 303.672 516.686 304.081 516.644 304.478C516.613 305.668 516.644 306.858 516.644 308.049C516.767 310.897 517.106 313.731 517.657 316.528C518.687 321.73 520.465 326.755 522.937 331.447C523.169 331.887 523.407 332.32 523.645 332.747C526.74 338.278 530.647 343.351 533.51 349.01C535.98 354.102 537.824 359.474 539.004 365.009C539.411 366.837 539.798 368.668 540.164 370.503C540.732 373.433 541.238 376.388 541.757 379.343C541.806 379.636 541.861 379.953 541.916 380.222C542.606 384.141 543.332 388.041 544.266 391.869C544.81 394.097 545.42 396.295 546.134 398.456L550.627 392.827Z" fill="#464353"/>
<path d="M542.472 344.712C542.472 345.261 542.435 345.811 542.41 346.366C542.302 349.045 542.055 351.716 541.672 354.369C541.166 357.991 540.28 361.549 539.029 364.985C538.199 367.244 537.144 369.414 535.879 371.462C534.757 373.28 533.443 374.972 531.96 376.51C528.297 380.319 523.023 381.534 517.919 383.14C515.571 383.819 513.302 384.746 511.15 385.905C510.765 386.118 510.387 386.35 510.02 386.595L503.635 390.825C501.645 392.137 499.612 393.499 498.245 395.446C498.021 395.777 497.817 396.122 497.634 396.478C496.77 398.27 496.138 400.166 495.754 402.118C492.433 415.951 489.106 429.796 486.829 443.836C486.677 444.764 486.53 445.698 486.372 446.632L486.317 446.925C486.289 446.855 486.257 446.788 486.219 446.723C469.884 456.6 452.944 465.513 435.491 472.649L431.7 440.906C431.305 438.325 431.174 435.711 431.31 433.104C431.67 428.996 433.342 425.101 433.794 421.005C434.222 416.995 433.464 412.948 431.615 409.364C430.894 407.972 429.991 406.605 429.826 405.048C429.661 403.492 430.559 402.069 432.121 401.911C433.342 400.556 433.44 398.706 433.08 396.875C432.889 395.918 432.602 394.984 432.225 394.085C431.187 391.533 429.875 388.756 430.766 386.149C431.002 385.677 431.107 385.15 431.071 384.623C431.078 384.591 431.078 384.557 431.071 384.525C430.864 383.842 430.052 383.542 429.631 382.962C428.837 381.882 429.631 380.411 430.119 379.166C430.594 377.827 430.87 376.427 430.937 375.008C431.004 374.221 431.053 373.427 431.139 372.646C431.258 371.589 431.447 370.54 431.706 369.508C433.189 363.661 436.756 358.555 441.736 355.151C444.111 353.551 446.754 352.385 449.177 350.878C451.66 349.204 454.029 347.369 456.271 345.384C461.647 340.907 467.236 336.687 473.04 332.723C479.28 328.461 485.743 324.537 492.403 320.966C493.827 320.197 495.252 319.448 496.676 318.719C498.226 317.905 499.787 317.134 501.358 316.406C506.388 314.007 512.096 314.904 517.657 316.503C519.989 317.169 522.29 317.962 524.512 318.683C526.682 319.388 528.77 320.325 530.739 321.478C535.665 324.372 539.737 328.645 541.428 334.041C541.43 334.076 541.43 334.111 541.428 334.145C542.502 337.527 542.569 341.153 542.472 344.712Z" fill="#F86D70"/>
<path opacity="0.1" d="M542.472 344.712C542.472 345.261 542.435 345.811 542.41 346.366C542.302 349.045 542.055 351.716 541.672 354.369C541.166 357.991 540.28 361.549 539.029 364.985C538.199 367.244 537.144 369.414 535.879 371.462C534.757 373.28 533.443 374.972 531.96 376.51C528.297 380.319 523.023 381.534 517.919 383.14C515.571 383.819 513.302 384.746 511.15 385.905C510.765 386.118 510.387 386.35 510.02 386.595L503.635 390.825C501.645 392.137 499.612 393.499 498.245 395.446C498.021 395.777 497.817 396.122 497.634 396.478C496.77 398.27 496.138 400.166 495.754 402.118C492.433 415.951 489.106 429.796 486.829 443.836C486.677 444.764 486.53 445.698 486.372 446.632L486.317 446.925C486.289 446.855 486.257 446.788 486.219 446.723C469.884 456.6 452.944 465.513 435.491 472.649L431.7 440.906C431.305 438.325 431.174 435.711 431.31 433.104C431.67 428.996 433.342 425.101 433.794 421.005C434.222 416.995 433.464 412.948 431.615 409.364C430.894 407.972 429.991 406.605 429.826 405.048C429.661 403.492 430.559 402.069 432.121 401.911C433.342 400.556 433.44 398.706 433.08 396.875C432.889 395.918 432.602 394.984 432.225 394.085C431.187 391.533 429.875 388.756 430.766 386.149C431.002 385.677 431.107 385.15 431.071 384.623C431.078 384.591 431.078 384.557 431.071 384.525C430.864 383.842 430.052 383.542 429.631 382.962C428.837 381.882 429.631 380.411 430.119 379.166C430.594 377.827 430.87 376.427 430.937 375.008C431.004 374.221 431.053 373.427 431.139 372.646C431.258 371.589 431.447 370.54 431.706 369.508C433.189 363.661 436.756 358.555 441.736 355.151C444.111 353.551 446.754 352.385 449.177 350.878C451.66 349.204 454.029 347.369 456.271 345.384C461.647 340.907 467.236 336.687 473.04 332.723C479.28 328.461 485.743 324.537 492.403 320.966C493.827 320.197 495.252 319.448 496.676 318.719C498.226 317.905 499.787 317.134 501.358 316.406C506.388 314.007 512.096 314.904 517.657 316.503C519.989 317.169 522.29 317.962 524.512 318.683C526.682 319.388 528.77 320.325 530.739 321.478C535.665 324.372 539.737 328.645 541.428 334.041C541.43 334.076 541.43 334.111 541.428 334.145C542.502 337.527 542.569 341.153 542.472 344.712Z" fill="black"/>
<path d="M484.51 243.598C484.448 243.456 484.358 243.328 484.246 243.222C484.133 243.116 484.001 243.034 483.856 242.98C483.71 242.926 483.556 242.903 483.402 242.91C483.247 242.918 483.096 242.956 482.957 243.024C482.817 243.091 482.693 243.186 482.592 243.303C482.49 243.42 482.413 243.556 482.366 243.703C482.318 243.85 482.301 244.005 482.315 244.159C482.328 244.313 482.373 244.463 482.446 244.599L481.836 244.898L500.039 282.209L503.33 280.603L485.126 243.268L484.51 243.598Z" fill="#3F3D56"/>
<path d="M507.267 204.517C528.844 204.517 546.336 187.026 546.336 165.449C546.336 143.872 528.844 126.38 507.267 126.38C485.69 126.38 468.199 143.872 468.199 165.449C468.199 187.026 485.69 204.517 507.267 204.517Z" fill="#FBBEBE"/>
<path d="M558.832 141.263C558.649 138.157 558.187 135.074 557.452 132.051C555.157 122.18 550.963 112.462 543.741 105.375C543.296 103.642 542.765 101.933 542.148 100.253C542.137 100.212 542.122 100.171 542.105 100.131C539.951 94.2147 536.837 88.6936 532.888 83.7896C530.598 80.945 527.632 78.1369 523.981 78.027C522.956 77.9904 521.869 78.1674 520.929 77.6974C520.238 77.2504 519.656 76.6537 519.226 75.9515C517.418 73.6671 515.021 71.9201 512.292 70.8991C509.564 69.8781 506.608 69.622 503.745 70.1584L503.367 70.2378C503.153 70.2805 502.939 70.3293 502.756 70.3843C502.573 70.4392 502.243 70.5308 501.987 70.6101C502.268 71.0741 502.542 71.5441 502.811 72.0203C503.535 73.3103 504.207 74.6289 504.826 75.9759C505.338 77.0992 505.812 78.2407 506.248 79.4005C499.997 80.1148 494.906 84.5527 490.254 88.777L479.303 98.715C479.283 98.7317 479.265 98.7501 479.248 98.7699L478.93 99.0752C478.851 99.1545 478.772 99.2339 478.698 99.3193C478.669 99.3448 478.642 99.3735 478.619 99.4048C478.528 99.5025 478.442 99.6063 478.357 99.71C478.204 99.9023 478.067 100.106 477.948 100.32C477.888 100.412 477.835 100.508 477.789 100.607C477.772 100.637 477.758 100.667 477.746 100.699C477.706 100.782 477.672 100.868 477.642 100.955C477.64 100.967 477.64 100.98 477.642 100.992C477.625 101.042 477.611 101.093 477.6 101.145C477.475 101.574 477.512 102.034 477.703 102.439L484.925 102.518H485.774C485.81 103.483 485.841 104.453 485.877 105.418C484.731 106.275 483.631 107.192 482.581 108.165C481.436 109.225 480.361 110.358 479.364 111.559C472.85 119.427 469.45 129.591 469.108 139.822C469.108 140.14 469.108 140.433 469.108 140.762C469.108 141.696 469.108 142.63 469.108 143.558C469.108 144.169 469.163 144.779 469.212 145.39C469.215 146.185 469.426 146.965 469.823 147.654C469.875 147.731 469.932 147.805 469.994 147.874C470.36 148.272 470.799 148.595 471.288 148.826L471.813 149.083C472.075 149.211 472.325 149.333 472.57 149.473C474.871 150.774 476.232 153.283 478.326 154.894C478.448 154.986 478.57 155.077 478.692 155.157L478.967 155.34L479.138 155.45L479.37 155.584C479.522 155.676 479.679 155.759 479.84 155.834L480.133 155.981H480.182C480.426 156.091 480.67 156.194 480.92 156.286L481.268 156.408L481.372 156.445C481.47 156.475 481.574 156.512 481.677 156.536C481.885 156.597 482.088 156.652 482.288 156.701L482.898 156.835C483.136 156.878 483.381 156.921 483.625 156.951L483.985 157L484.351 157.037C484.933 157.09 485.519 157.12 486.109 157.128C487.961 157.117 489.81 156.989 491.646 156.744L507.225 154.913C510.759 154.504 514.367 154.095 517.852 154.815C520.807 155.425 523.53 156.829 526.399 157.824C527.046 158.05 527.693 158.258 528.346 158.435C528.584 158.502 528.828 158.575 529.072 158.636L529.408 158.722L530.189 158.911C530.47 158.978 530.751 159.045 531.032 159.1C531.429 159.186 531.819 159.259 532.216 159.332C532.485 159.387 532.759 159.43 533.034 159.479H533.089L533.87 159.601H534.06L534.64 159.68C534.92 159.723 535.201 159.759 535.488 159.79C536.111 159.867 536.733 159.934 537.356 159.991C538.363 160.089 539.377 160.162 540.408 160.223L541.422 160.284L542.435 160.333L545.487 160.468H545.622H546.049C547.318 160.556 548.593 160.49 549.846 160.272C550.066 160.23 550.279 160.181 550.493 160.12C550.707 160.059 550.884 159.998 551.103 159.924C553.392 159.045 555.065 157.025 556.225 154.864C556.469 154.406 556.695 153.948 556.903 153.478C557.11 153.008 557.299 152.532 557.47 152.056C557.684 151.445 557.867 150.865 558.026 150.255C558.075 150.09 558.117 149.925 558.154 149.754C558.191 149.583 558.276 149.248 558.325 148.991C558.477 148.289 558.593 147.581 558.679 146.867C558.679 146.641 558.734 146.409 558.758 146.183C558.813 145.573 558.856 145.005 558.88 144.407C558.88 143.955 558.88 143.497 558.88 143.039C558.874 142.545 558.832 141.892 558.832 141.263ZM543.18 104.819C542.685 104.356 542.179 103.91 541.666 103.489C542.236 103.849 542.745 104.298 543.174 104.819H543.18Z" fill="#464353"/>
<path d="M432.287 163.3C427.69 162.732 423.13 160.718 418.594 161.707C415.756 162.317 413.314 164.081 411.043 165.894C402.592 172.668 395.406 180.883 389.818 190.16C388.87 191.547 388.204 193.106 387.858 194.75C387.565 196.655 388.084 198.59 388.701 200.415C392.876 212.752 401.807 223.057 405.873 235.43C410.146 248.445 408.662 262.668 405.512 276C401.608 292.459 395.262 308.241 386.686 322.821C385.522 324.99 384.063 326.986 382.352 328.755C380.13 330.892 377.145 332.418 375.827 335.213C375.216 336.434 375.039 337.826 374.606 339.133C373.385 342.795 370.43 345.933 370.143 349.797C369.93 352.745 371.328 355.535 372.176 358.343C373.607 363.168 373.455 368.323 371.743 373.055C368.648 381.54 360.553 389.256 362.903 397.979C368.147 396.472 373.959 394.512 376.431 389.647C377.304 387.925 377.737 385.874 379.208 384.617C382.145 382.12 387.144 384.379 390.264 382.083C392.62 380.338 392.705 376.76 391.655 374.013C390.605 371.266 388.798 368.849 387.993 366.023C386.589 360.925 388.835 355.535 388.42 350.267C388.225 347.825 387.474 345.487 387.419 343.058C387.315 338.339 389.928 333.901 393.401 330.696C396.875 327.491 401.166 325.367 405.39 323.273L421.36 315.337C427.153 312.468 433.501 308.97 435.4 302.793C436.12 300.479 436.126 298.013 436.163 295.596C436.706 258.658 445.96 222.464 455.16 186.686C456.588 181.143 458.041 175.576 460.166 170.253C462.29 164.93 466.447 160.657 468.565 155.712C456.277 154.272 445.051 164.899 432.287 163.3Z" fill="#464353"/>
<path d="M520.319 395.031C521.729 403.577 522.59 412.307 523.261 420.993C512.273 430.101 500.443 438.025 488.423 445.374C487.739 445.796 487.05 446.211 486.36 446.595L486.305 446.888C486.277 446.819 486.245 446.751 486.207 446.687C485.275 444.672 483.644 443.063 481.617 442.157C477.112 432.695 472.611 423.233 468.114 413.772C465.672 408.662 463.23 403.504 462.009 397.992C462.009 397.876 461.954 397.754 461.936 397.638C461.008 393.364 460.794 388.927 460.178 384.598C459.865 382.12 459.307 379.678 458.511 377.31C457.779 375.204 456.771 373.159 455.88 371.102C454.781 368.562 453.86 365.992 453.817 363.251C453.817 362.378 453.872 361.42 453.445 360.687C452.988 360.057 452.424 359.511 451.778 359.076C450.972 358.361 450.361 357.454 450.002 356.438C449.644 355.423 449.549 354.333 449.727 353.27C446.064 353.46 444.001 357.397 442.53 360.736C441.192 364.002 439.436 367.08 437.304 369.893C435.751 371.902 433.775 373.546 431.517 374.709C431.316 374.807 431.114 374.905 430.907 374.99C425.81 377.237 419.858 376.443 414.333 375.43C409.505 374.544 404.511 373.446 400.629 370.442L400.214 370.113C399.064 369.157 398.039 368.062 397.162 366.853C393.908 362.409 392.467 356.555 391.668 350.981C391.594 350.456 391.521 349.931 391.454 349.406C390.899 345.468 390.745 341.484 390.996 337.515C391.069 336.538 391.173 335.561 391.301 334.591C391.387 333.98 391.478 333.321 391.582 332.686C391.579 332.668 391.579 332.65 391.582 332.631C391.741 331.624 391.912 330.611 392.083 329.579C392.693 326.118 393.304 322.565 395.135 319.586C396.34 317.733 397.861 316.105 399.628 314.776C400.287 314.257 400.965 313.762 401.648 313.286C402.759 312.517 403.901 311.785 405.061 311.095C407.979 309.348 411.042 307.857 414.217 306.639C414.974 306.346 415.743 306.071 416.513 305.808C419.502 304.745 422.72 304.49 425.84 305.07C428.605 305.47 431.399 305.633 434.191 305.558C441.352 305.418 448.543 304.05 455.691 303.165C465.617 301.944 476.281 301.798 484.937 306.828C485.353 307.066 485.755 307.316 486.158 307.579C490.431 310.375 493.874 314.294 496.652 318.67C497.262 319.592 497.793 320.538 498.318 321.497C499.528 323.697 500.623 325.958 501.596 328.273C502.173 329.409 502.484 330.661 502.506 331.935C502.492 332.178 502.459 332.418 502.408 332.656C502.244 333.523 501.914 334.365 501.798 335.244C501.413 338.571 504.24 341.348 505.296 344.517C505.979 346.58 505.906 348.79 506.291 350.963C506.846 354.015 508.342 356.762 509.685 359.509C511.807 363.931 513.622 368.494 515.118 373.165C516.18 376.418 517.09 379.721 517.889 383.054C518.15 384.124 518.396 385.197 518.628 386.271C519.293 389.226 519.837 392.119 520.319 395.031Z" fill="#F86D70"/>
<path d="M585.404 304.63V308.903L584.617 308.891L583.738 308.879L573.922 308.757L549.736 308.439L542.948 308.354L541.19 308.33L531.002 308.201L516.644 308.012L486.183 307.615L433.324 306.932L414.248 306.687L406.593 306.59L399.548 306.498L395.159 306.437L391.002 306.382L360.181 305.985L351.635 305.876L349.773 305.851L348.564 302.732L339.78 280.078L338.174 275.939L339.395 271.056L344.889 274.718L348.271 275.14L403.95 282.062L414.401 283.362L436.56 286.122L458.267 288.82L466.777 289.876L517.132 296.139L531.203 297.891L542.85 299.338L584.263 304.49L585.404 304.63Z" fill="#3F3D56"/>
<path d="M339.395 271.056L350.383 299.747L585.404 304.63V273.498L339.395 271.056Z" fill="#504F60"/>
<path d="M351.604 302.799L353.435 477.996L361.982 476.776L360.15 302.799H351.604Z" fill="#3F3D56"/>
<path d="M584.617 308.885H583.738C582.314 319.808 579.96 330.589 576.699 341.11L573.922 308.757L573.806 307.377L584.073 306.193L584.415 306.156L584.617 308.885Z" fill="#3F3D56"/>
<path d="M551.22 288.148L461.789 289.98L434.014 280.823L508.488 276.55L551.22 288.148Z" fill="white"/>
<path d="M439.038 252.547C438.09 252.911 437.25 253.509 436.596 254.287C436.085 255.129 435.774 256.077 435.687 257.058L434.185 266.014C433.956 266.833 433.997 267.704 434.301 268.498C434.692 269.249 435.827 269.64 436.395 269.017C436.321 270.769 436.474 272.637 437.494 274.065C438.513 275.494 440.65 276.245 442.09 275.25C442.316 275.618 442.619 275.932 442.979 276.172C443.338 276.411 443.746 276.569 444.173 276.635C444.599 276.701 445.036 276.674 445.451 276.555C445.866 276.436 446.25 276.228 446.577 275.945C445.71 276.238 445.649 277.563 446.266 278.235C446.956 278.844 447.836 279.196 448.756 279.23C459.483 280.742 470.42 279.366 480.438 275.243C481.384 274.853 478.894 263.187 478.644 261.991C478.033 259.177 477.728 255.74 475.353 253.847C469.676 249.318 459.592 248.427 452.675 248.964C447.95 249.321 443.329 250.535 439.038 252.547Z" fill="#FBBEBE"/>
<path opacity="0.1" d="M530.031 253.902C507.951 254.324 485.413 254.684 464.341 248.073C466.354 255.873 466.215 264.073 463.938 271.801L567.176 280.347C571.553 280.707 589.702 282.758 593.969 281.726C598.236 280.695 558.166 267.497 559.784 263.413C564.234 252.163 579.141 245.57 568.403 245.149C554.852 244.611 543.686 253.646 530.031 253.902Z" fill="black"/>
<path d="M530.641 255.123C508.561 255.544 486.024 255.905 464.951 249.293C466.964 257.094 466.825 265.294 464.548 273.021L567.787 281.568C572.164 281.928 590.312 284.009 594.579 282.947C598.846 281.885 597.845 276.654 599.463 272.57C603.913 261.319 579.752 246.791 569.014 246.369C555.462 245.832 544.297 254.867 530.641 255.123Z" fill="#464353"/>
<path d="M495.534 256.82C496.483 257.183 497.323 257.782 497.976 258.56C498.486 259.403 498.799 260.35 498.892 261.331L500.394 270.287C500.62 271.106 500.579 271.976 500.278 272.771C499.887 273.522 498.745 273.913 498.184 273.29C498.251 275.042 498.104 276.91 497.085 278.338C496.065 279.767 493.929 280.518 492.482 279.523C492.256 279.891 491.953 280.205 491.593 280.445C491.234 280.684 490.827 280.842 490.4 280.908C489.973 280.975 489.537 280.947 489.122 280.828C488.707 280.709 488.322 280.501 487.995 280.219C488.862 280.512 488.929 281.836 488.313 282.508C487.62 283.117 486.738 283.469 485.816 283.503C475.091 285.015 464.156 283.639 454.14 279.517C453.194 279.126 455.678 267.46 455.935 266.264C456.545 263.45 456.851 260.013 459.225 258.12C464.896 253.591 474.987 252.7 481.903 253.237C486.627 253.595 491.245 254.809 495.534 256.82Z" fill="#FBBEBE"/>
<path d="M349.638 237.378C347.611 239.99 345.579 242.658 344.272 245.704C341.776 251.515 342.142 258.096 342.557 264.408C342.673 266.239 342.819 268.107 343.778 269.627C344.606 270.776 345.699 271.707 346.964 272.344C352.251 275.347 358.441 276.245 364.484 276.916C373.738 277.942 383.025 278.566 392.345 278.79C415.432 279.352 438.873 277.465 461.362 282.697C458.578 278.467 458.584 272.869 460.141 268.046C461.697 263.224 464.695 259.024 467.631 254.891C457.339 251.631 446.302 256.723 435.522 256.216C424.454 255.697 414.211 249.3 403.131 249.306C400.751 249.306 398.327 249.605 396.014 249.031C393.7 248.457 391.46 246.711 391.246 244.337C394.201 245.002 397.003 242.475 398.223 239.703C399.444 236.932 399.664 233.8 400.848 231.011C403.797 224.07 411.763 220.853 416.72 215.139C417.501 214.236 418.24 213.167 418.216 211.971C418.099 210.957 417.673 210.004 416.995 209.242C412.874 203.748 406.666 200.696 401.508 196.423C399.713 194.933 396.093 189.317 394.078 188.798C390.343 187.84 387.174 193.236 384.745 195.867C372.479 209.195 360.777 223.032 349.638 237.378Z" fill="#464353"/>
<path opacity="0.07" d="M472.387 235.827C473.934 236.975 475.309 238.337 476.471 239.874C477.049 240.646 477.461 241.53 477.681 242.469C477.901 243.408 477.923 244.383 477.746 245.332C477.557 243.562 477.951 241.78 478.869 240.255C479.787 238.731 481.179 237.549 482.831 236.889L472.387 235.827Z" fill="black"/>
<g opacity="0.1">
<path opacity="0.1" d="M506.242 75.744C505.524 73.836 504.696 71.9711 503.763 70.1584C503.16 70.2743 502.565 70.4272 501.981 70.6162C503.028 72.3558 503.972 74.1557 504.807 76.0064C505.277 75.8844 505.753 75.7989 506.242 75.744Z" fill="black"/>
<path opacity="0.1" d="M541.66 99.8138C541.825 99.9481 541.984 100.101 542.142 100.241C542.131 100.201 542.117 100.163 542.1 100.125C541.961 100.023 541.815 99.9196 541.66 99.8138Z" fill="black"/>
<path opacity="0.1" d="M484.913 102.5C485.23 102.249 485.523 101.987 485.865 101.743L485.767 98.8432L479.248 98.776C478.192 99.7466 477.069 101.138 477.691 102.439L484.913 102.5Z" fill="black"/>
<path opacity="0.1" d="M556.188 151.311C555.029 153.472 553.356 155.499 551.067 156.371C549.303 157.043 547.361 156.982 545.475 156.896C539.041 156.634 532.497 156.347 526.417 154.217C523.572 153.215 520.85 151.818 517.871 151.201C514.385 150.481 510.777 150.89 507.243 151.305L491.664 153.136C487.068 153.673 481.946 154.076 478.277 151.256C476.177 149.644 474.822 147.135 472.521 145.841C471.55 145.292 470.397 144.938 469.768 144.01C469.371 143.321 469.16 142.54 469.157 141.745C469.109 141.104 469.078 140.463 469.054 139.822C468.987 141.685 469.022 143.549 469.157 145.408C469.16 146.203 469.371 146.984 469.768 147.673C470.378 148.594 471.55 148.948 472.521 149.504C474.822 150.798 476.184 153.307 478.277 154.919C481.94 157.739 487.068 157.36 491.664 156.799L507.243 154.967C510.777 154.552 514.385 154.143 517.871 154.864C520.825 155.474 523.548 156.878 526.417 157.879C532.522 160.01 539.041 160.321 545.475 160.559C547.361 160.639 549.303 160.706 551.067 160.034C553.356 159.161 555.029 157.135 556.188 154.974C558.435 150.792 559.064 146.049 558.826 141.269C558.695 144.769 557.794 148.198 556.188 151.311Z" fill="black"/>
</g>
<path opacity="0.1" d="M506.065 79.6691L514.611 87.6049C514.611 87.6049 507.286 84.5527 506.065 79.6691Z" fill="black"/>
</g>
<defs>
<clipPath id="clip0">
<rect width="600" height="490.205" fill="white"/>
</clipPath>
</defs>
</svg>
