<svg width="500" height="409" viewBox="0 0 500 409" fill="none" xmlns="http://www.w3.org/2000/svg">
<g clip-path="url(#clip0)">
<path opacity="0.1" d="M487.843 236.807C487.843 237.117 487.843 237.427 487.843 237.733C487.789 243.084 487.472 248.422 486.892 253.747C486.895 253.779 486.895 253.811 486.892 253.843C486.846 254.286 486.795 254.723 486.744 255.166C486.658 255.914 486.566 256.656 486.465 257.404C485.279 266.507 483.316 275.491 480.599 284.259C476.959 296.107 471.813 307.438 465.287 317.976C463.28 321.197 461.141 324.316 458.872 327.331C457.662 328.928 456.426 330.49 455.149 332.026C454.253 333.101 453.341 334.159 452.412 335.2L451.832 335.841C446.943 341.21 441.672 346.218 436.062 350.828C426.906 358.418 417.047 365.021 407.03 371.145C406.461 371.496 405.886 371.842 405.311 372.163C405.271 372.192 405.228 372.217 405.184 372.239C391.571 380.47 377.454 387.897 362.911 393.844C346.988 400.37 330.547 405.117 313.678 407.192C290.166 410.082 266.369 407.731 242.999 403.692C223.563 400.353 204.362 395.765 185.515 389.957L182.412 388.986C180.805 388.474 179.199 387.951 177.595 387.419C167.906 384.214 158.325 380.653 148.853 376.736C125.064 366.938 102.337 354.735 81.0276 340.318C78.3145 338.493 75.6404 336.628 73.0053 334.722C69.3223 332.07 65.6834 329.34 62.0885 326.532L59.8706 324.813C50.4629 317.446 41.6487 309.351 33.5095 300.603C22.5622 288.69 13.2072 275.25 7.05694 259.907C6.08702 257.496 5.19848 255.039 4.39134 252.536L4.31503 252.287C3.90807 251.015 3.53163 249.743 3.18571 248.421C2.677 246.528 2.23104 244.612 1.84782 242.672C1.76643 242.301 1.69521 241.93 1.62907 241.553C0.413215 235.025 -0.123785 228.388 0.0266568 221.749C0.153886 215.932 0.835239 210.141 2.06147 204.453C3.31655 198.557 5.25066 192.827 7.82509 187.376C10.1516 182.475 13.1159 177.903 16.6409 173.778C19.1179 170.895 21.9036 168.292 24.9481 166.016C30.4675 161.905 36.5872 159.041 42.9307 156.778C45.9118 155.709 48.9335 154.773 51.9704 153.903C54.1222 153.283 56.2842 152.693 58.436 152.113L64.7847 150.398C68.8543 149.289 72.9239 148.15 76.9325 146.919C87.8595 143.582 98.5677 139.543 108.472 133.52C110.039 132.568 111.636 131.525 113.234 130.406C115.268 128.992 117.273 127.456 119.257 125.797C121.261 124.119 123.225 122.323 125.097 120.42C125.387 120.125 125.671 119.83 125.956 119.53C127.482 117.923 128.963 116.239 130.336 114.489C131.008 113.634 131.659 112.764 132.279 111.879C133.139 110.653 133.953 109.407 134.706 108.125C138.481 101.715 140.81 94.6445 140.536 87.1919C140.496 85.9641 140.385 84.7395 140.205 83.5242C139.544 79.0323 138.908 74.6473 138.44 70.3589C136.476 52.6204 137.305 36.5352 150.618 21.4216C167.172 2.63518 193.151 -1.19536 216.801 0.30532C285.176 4.6293 347.421 43.6672 402.121 90.1424C406.852 94.1578 411.526 98.2274 416.141 102.351C417.305 103.389 418.47 104.434 419.636 105.485C428.284 113.273 436.8 121.351 444.73 130.004C445.371 130.706 446.012 131.408 446.643 132.116C447.03 132.553 447.422 132.985 447.803 133.428C450.275 136.226 452.675 139.092 455.001 142.025C461.233 149.813 466.737 158.157 471.443 166.952C478.648 180.754 483.526 195.65 485.88 211.041C486.765 216.63 487.347 222.263 487.624 227.915C487.711 229.578 487.767 231.247 487.797 232.91C487.797 233.444 487.797 233.973 487.797 234.508C487.848 235.281 487.848 236.034 487.843 236.807Z" fill="#6C63FF"/>
<path d="M200.419 228.276L192.279 373.149L200.419 373.256L207.032 226.241L200.419 228.276Z" fill="#3F3D56"/>
<path d="M170.405 301.677H69.6816V323.551H170.405V301.677Z" fill="#6C63FF"/>
<path d="M177.019 321.002V334.737H72.9734C69.2904 332.085 65.6515 329.355 62.0566 326.547V321.002H177.019Z" fill="#3F3D56"/>
<path d="M197.794 289.743C197.509 291.06 197.138 292.362 196.746 293.66C195.591 297.409 194.202 301.107 193.933 305.004C193.572 310.152 194.95 316.139 191.389 319.878C190.473 320.845 189.278 321.567 188.459 322.6C188.333 322.762 188.217 322.932 188.113 323.109C187.381 324.319 187.294 325.795 187.284 327.178C187.292 330.129 187.484 333.077 187.859 336.004C189.064 346.077 191.445 356.169 188.317 365.677C187.75 367.326 187.089 368.941 186.338 370.515C184.812 373.872 183.148 377.184 182.65 380.821C182.283 383.517 182.395 386.295 182.375 389.037C180.767 388.524 179.162 388.002 177.557 387.47C167.868 384.265 158.288 380.704 148.816 376.787C148.841 376.65 148.867 376.507 148.887 376.37C149.614 371.842 148.617 367.213 147.407 362.798C144.863 353.443 141.261 344.179 139.13 334.758C138.272 331.078 137.709 327.336 137.446 323.566C137.385 322.722 137.35 321.872 137.344 321.023C137.319 319.914 137.344 318.805 137.39 317.686C137.497 315.453 137.594 312.802 135.808 311.444C134.826 310.706 133.529 310.579 132.385 310.132C130.177 309.272 128.666 307.278 126.916 305.68C126.081 304.871 125.062 304.276 123.946 303.948C122.83 303.62 121.652 303.569 120.511 303.798C109.076 306.418 100.672 316.119 90.0299 321.023C89.6179 321.216 89.2058 321.399 88.7887 321.572C87.4121 322.076 86.1019 322.746 84.8869 323.566C84.0332 324.159 83.414 325.032 83.137 326.034C82.8674 327.112 83.1014 328.241 83.2336 329.35C83.4477 331.153 83.3704 332.979 83.0047 334.758C82.8668 335.447 82.685 336.127 82.4604 336.793C82.0534 337.998 81.5091 339.178 80.9902 340.354C78.2772 338.529 75.6031 336.664 72.968 334.758C69.285 332.106 65.646 329.376 62.0512 326.568L59.8689 324.813C50.4611 317.446 41.647 309.351 33.5078 300.603C34.5914 297.551 36.1582 294.713 36.911 291.584C37.3384 289.788 37.4961 287.921 38.0861 286.177C38.7666 284.368 39.7131 282.67 40.8942 281.14C45.2199 275.108 50.502 269.822 56.5317 265.493C62.8346 260.975 70.1141 257.353 75.7862 252.226C78.088 250.211 80.0723 247.859 81.6719 245.251C81.7686 245.094 81.8601 244.926 81.9415 244.743C82.3843 243.822 82.691 242.842 82.8521 241.833C83.2591 239.554 83.198 237.051 83.4015 234.864C90.3112 236.06 97.3553 236.272 104.324 235.494C112.438 234.584 120.374 232.33 128.488 231.455C129.098 231.384 129.714 231.328 130.329 231.277C132.929 231.069 135.533 231.023 138.143 231.053C140.325 231.053 142.508 231.15 144.69 231.221L168.716 232.035C171.377 232.127 174.093 232.229 176.571 233.2C179.511 234.355 181.866 236.654 183.754 239.183C183.993 239.508 184.232 239.834 184.456 240.169C186.008 242.435 187.254 244.896 188.159 247.49C188.256 247.754 188.347 247.998 188.434 248.288C188.663 248.995 188.861 249.708 189.039 250.43C189.176 250.995 189.298 251.559 189.41 252.129C189.97 254.947 190.301 257.827 191.186 260.548C191.247 260.747 191.313 260.945 191.384 261.138C192.447 264.119 194.212 266.79 195.545 269.654C196.506 271.727 197.24 273.898 197.733 276.13C198.729 280.61 198.75 285.253 197.794 289.743Z" fill="#35323E"/>
<path d="M124.764 107.693C122.617 105.983 119.504 107.235 116.991 108.339C114.884 109.269 112.715 110.053 110.499 110.684C110.046 110.858 109.555 110.909 109.075 110.831C108.058 110.587 107.63 109.381 106.872 108.649C105.555 107.382 103.398 107.682 101.699 108.369C99.9998 109.056 98.3211 110.048 96.4999 109.895C94.5567 109.743 92.8678 108.308 90.9042 108.262C87.445 108.181 84.5403 112.444 81.2693 111.315C79.2752 110.628 77.7084 108.033 75.7448 108.771C74.2187 109.351 74.0813 111.462 73.1606 112.841C72.077 114.448 69.9659 114.901 68.16 115.613C62.4676 117.862 58.6981 124.205 59.4408 130.279C59.8529 133.631 61.4757 136.704 62.549 139.904C65.7335 149.208 64.6398 159.702 68.6535 168.676C69.1622 168.198 69.447 168.02 69.9405 167.547C68.6714 170.179 68.4266 173.189 69.2537 175.991C69.676 177.4 70.3627 178.713 70.8816 180.091C71.4206 181.638 71.8557 183.218 72.1839 184.822L76.6096 204.346C78.3392 211.977 80.0739 219.607 80.374 227.421C80.5609 232.502 80.1718 237.587 79.2142 242.58C87.2313 241.253 94.5669 237.697 102.691 237.743C105.672 237.743 108.627 238.251 111.583 238.658C120.2 239.864 128.892 240.454 137.593 240.424C138.946 240.501 140.301 240.31 141.581 239.864C142.7 239.386 143.616 238.536 144.674 237.921C146.745 236.7 149.253 236.395 151.638 236.395C162.52 236.196 173.004 240.179 183.814 241.583C188.082 232.625 188.336 221.892 185.06 212.526C184.089 209.744 182.781 207.032 182.395 204.107C182.239 202.309 182.199 200.503 182.272 198.7C182.256 194.083 181.424 189.506 179.815 185.178C179.185 183.484 178.427 181.76 178.493 179.954C178.559 178.148 179.449 176.464 180.324 174.867C182.1 171.611 183.885 168.325 186.393 165.578C188.962 162.739 192.177 160.577 195.356 158.456L203.206 153.186C202.132 146.405 200.749 139.263 197.874 133.026C195 126.789 190.702 121.056 184.887 117.409C182.927 116.23 180.875 115.209 178.752 114.357C175.781 113.105 172.689 112.001 169.468 111.813C165.806 111.605 162.199 112.586 158.582 113.197C147.197 115.115 133.798 114.881 124.764 107.693Z" fill="#6C63FF"/>
<path d="M210.594 225.366L206.86 230.082L199.819 238.969L191.68 249.239L189.406 252.108H184.995L75.7819 252.236L7.38662 252.312H4.33439C3.92743 251.04 3.55099 249.768 3.20507 248.446C2.69637 246.553 2.2504 244.637 1.86718 242.697C1.78579 242.326 1.71457 241.955 1.64844 241.578L26.463 225.356L35.7926 225.305L64.3309 225.142L80.2686 225.051H83.1784H85.0047L95.6264 224.995L176.582 224.532L180.722 224.506H182.518L187.275 224.481L204.972 224.379L208.37 223.087L208.62 223.351L210.594 225.366Z" fill="#3F3D56"/>
<path d="M209.068 222.823L208.646 223.332L205.869 226.603L200.151 233.353L188.161 247.49L81.9432 244.779L1.84782 242.744C1.76643 242.372 1.69521 242.001 1.62907 241.625C0.413215 235.096 -0.123785 228.46 0.0266568 221.821L8.90863 217.273L10.9434 216.225L26.7794 208.086L40.6772 200.964L76.9274 205.674L84.9548 206.717L88.5869 207.185L93.9029 207.877L94.3505 207.938L177.712 218.748L186.924 219.944L192.332 220.646L208.997 222.813L209.068 222.823Z" fill="#504F60"/>
<path d="M191.771 247.24L191.685 249.239L191.176 260.528L188.439 322.589L187.859 336.004L186.333 370.514L185.473 390.008L182.37 389.036C180.763 388.524 179.157 388.002 177.553 387.47L184.995 252.154L185.153 249.316L188.429 248.298L191.771 247.24Z" fill="#3F3D56"/>
<path d="M7.62145 247.093L7.39253 252.317L7.05678 259.948C6.08686 257.536 5.19832 255.079 4.39118 252.577L4.31487 252.327C3.90791 251.056 3.53147 249.784 3.18555 248.461L7.62145 247.093Z" fill="#3F3D56"/>
<path d="M140.646 170.177C153.57 170.177 164.047 156.056 164.047 138.637C164.047 121.218 153.57 107.098 140.646 107.098C127.723 107.098 117.246 121.218 117.246 138.637C117.246 156.056 127.723 170.177 140.646 170.177Z" fill="#A1616A"/>
<path opacity="0.1" d="M140.646 170.177C153.57 170.177 164.047 156.056 164.047 138.637C164.047 121.218 153.57 107.098 140.646 107.098C127.723 107.098 117.246 121.218 117.246 138.637C117.246 156.056 127.723 170.177 140.646 170.177Z" fill="black"/>
<path d="M143.954 152.118C161.934 152.118 176.511 137.542 176.511 119.561C176.511 101.58 161.934 87.0039 143.954 87.0039C125.973 87.0039 111.396 101.58 111.396 119.561C111.396 137.542 125.973 152.118 143.954 152.118Z" fill="#A1616A"/>
<path d="M144.599 69.3818C142.612 69.5403 140.638 69.8412 138.693 70.2822C133.545 71.5336 129.094 74.3111 124.76 77.0378C122.817 78.2637 120.817 79.5406 119.612 81.3414C117.445 84.5717 118.284 88.682 117.068 92.2684C116.438 94.1099 115.278 95.7631 114.296 97.4775C111.595 102.178 110.18 107.341 108.792 112.454C108.507 113.512 108.425 114.946 109.58 115.353C110.245 115.491 110.937 115.413 111.554 115.13C115.201 113.924 119.836 113.578 122.542 116.025C125.248 118.472 125.019 122.811 128.239 124.673C131.928 126.825 137.686 124.225 141.033 126.764C142.468 127.852 142.987 129.597 144.162 130.909C146.899 133.962 152.164 133.814 156.544 133.199C159.057 132.843 162.14 132.603 163.666 134.369C164.398 135.203 164.607 136.348 165.456 137.1C166.982 138.464 169.775 137.772 171.266 136.373C172.756 134.974 173.468 133.082 174.71 131.51C177.126 128.458 181.374 126.794 183.866 123.777C185.952 121.234 186.583 118.049 187.152 114.977L189.274 103.587C190.133 98.968 190.917 93.9216 188.317 89.852C187.392 88.3869 186.064 87.1254 185.265 85.6094C184.731 84.592 184.431 83.5186 183.81 82.5572C183.074 81.5556 182.195 80.6677 181.201 79.9221L176.18 75.766C174.463 74.2634 172.627 72.9024 170.691 71.6964C163.523 67.5199 152.79 68.6187 144.599 69.3818Z" fill="#464353"/>
<path d="M37.3648 153.247C36.1592 154.529 35.0451 155.913 33.753 157.113C32.6164 158.124 31.4278 159.075 30.1921 159.962C28.198 161.454 26.2479 162.999 24.342 164.596C22.3535 166.168 20.5543 167.966 18.9802 169.953C16.2638 173.6 14.9767 178.138 12.4332 181.908C10.1848 185.25 7.01553 187.89 4.73145 191.207C3.72941 192.601 2.98514 194.164 2.53384 195.821C2.19698 197.424 2.04508 199.061 2.0811 200.699C2.03531 203.385 1.99462 206.101 2.54402 208.731C3.09342 211.361 4.29905 213.946 6.36438 215.67C8.2822 217.273 10.7596 218.01 13.1861 218.621C14.4375 218.931 15.7907 219.221 16.981 218.727C17.8521 218.288 18.6081 217.65 19.1888 216.866L25.3797 209.744C29.5206 204.962 33.8242 200.078 39.5065 197.281C41.2869 196.411 43.164 195.754 44.9496 194.91C52.5191 191.263 57.8707 183.795 59.9462 175.656C60.4549 173.667 60.7804 171.637 61.1111 169.607L62.0064 164.042C62.0752 163.763 62.0752 163.471 62.0064 163.192C61.8662 162.879 61.6406 162.611 61.3553 162.419C57.0431 158.937 53.0056 155.127 49.2787 151.024C48.3935 150.047 47.5643 148.709 46.5418 147.89C45.2599 146.873 45.3565 146.949 43.8152 147.89C41.4441 149.392 39.2761 151.192 37.3648 153.247Z" fill="#A1616A"/>
<path d="M79.7145 190.281C79.663 190.163 79.5882 190.056 79.4945 189.968C79.4008 189.879 79.2902 189.811 79.1693 189.766C79.0484 189.721 78.9197 189.701 78.791 189.708C78.6623 189.714 78.5362 189.746 78.4202 189.802C78.3042 189.859 78.2009 189.938 78.1163 190.035C78.0317 190.132 77.9676 190.246 77.9279 190.368C77.8881 190.491 77.8736 190.62 77.8852 190.749C77.8967 190.877 77.9341 191.002 77.995 191.115L77.4863 191.364L92.6559 222.456L95.3978 221.119L80.2282 190.006L79.7145 190.281Z" fill="#3F3D56"/>
<path opacity="0.04" d="M37.3648 153.247C36.1592 154.529 35.0451 155.913 33.753 157.113C32.6164 158.124 31.4278 159.075 30.1921 159.962C28.198 161.454 26.2479 162.999 24.342 164.596C22.3535 166.168 20.5543 167.966 18.9802 169.953C16.2638 173.6 14.9767 178.138 12.4332 181.908C10.1848 185.25 7.01553 187.89 4.73145 191.207C3.72941 192.601 2.98514 194.164 2.53384 195.821C2.19698 197.424 2.04508 199.061 2.0811 200.699C2.03531 203.385 1.99462 206.101 2.54402 208.731C3.09342 211.361 4.29905 213.946 6.36438 215.67C8.2822 217.273 10.7596 218.01 13.1861 218.621C14.4375 218.931 15.7907 219.221 16.981 218.727C17.8521 218.288 18.6081 217.65 19.1888 216.866L25.3797 209.744C29.5206 204.962 33.8242 200.078 39.5065 197.281C41.2869 196.411 43.164 195.754 44.9496 194.91C52.5191 191.263 57.8707 183.795 59.9462 175.656C60.4549 173.667 60.7804 171.637 61.1111 169.607L62.0064 164.042C62.0752 163.763 62.0752 163.471 62.0064 163.192C61.8662 162.879 61.6406 162.611 61.3553 162.419C57.0431 158.937 53.0056 155.127 49.2787 151.024C48.3935 150.047 47.5643 148.709 46.5418 147.89C45.2599 146.873 45.3565 146.949 43.8152 147.89C41.4441 149.392 39.2761 151.192 37.3648 153.247Z" fill="black"/>
<path d="M212.735 210.547C212.684 213.793 212.557 217.135 211.209 220.096C210.629 221.378 209.728 222.639 208.38 223.061C207.564 223.25 206.72 223.281 205.893 223.153C195.912 222.276 185.856 223.074 176.138 225.513C178.733 220.324 177.242 214.103 177.96 208.345C178.158 206.773 178.519 205.226 178.657 203.649C179.165 198.053 176.769 192.62 175.67 187.096C174.717 182.314 174.717 177.39 175.67 172.608C175.858 171.377 176.281 170.194 176.917 169.123C177.662 168.082 178.641 167.23 179.776 166.636C183.896 164.291 188.754 164.021 193.384 164.331C196.502 164.54 202.754 164.245 205.353 166.163C208.197 168.264 209.097 175.319 209.866 178.58C211.016 183.581 211.798 188.66 212.206 193.775C212.704 199.351 212.811 204.951 212.735 210.547Z" fill="#A1616A"/>
<path d="M30.5117 221.811L48.8251 234.019L131.235 230.967L76.8038 221.811H30.5117Z" fill="white"/>
<path d="M54.6605 124.806C51.6541 127.456 49.1055 130.579 46.2567 133.403C42.3499 137.279 37.9089 140.575 33.4883 143.857C35.0733 144.3 36.5161 145.147 37.6753 146.315C38.8346 147.483 39.6706 148.932 40.1014 150.521C40.2947 151.268 40.3914 152.047 40.6101 152.779C41.1188 154.514 42.238 156.009 43.4385 157.358C48.5968 163.172 55.8153 167.476 58.8573 174.653C58.9566 175.003 59.1719 175.308 59.4678 175.518C59.7153 175.628 59.9902 175.66 60.2563 175.61C63.0084 175.32 65.1144 173.102 66.8694 170.945C70.5321 166.367 73.7115 161.31 75.5174 155.725C77.3233 150.139 77.6132 143.963 75.6446 138.429C74.6628 135.672 73.1468 133.138 71.6411 130.63C70.3218 128.436 69.006 126.245 67.6935 124.058C67.0068 122.903 66.1318 120.558 64.7837 119.988C61.8739 118.737 56.5275 122.939 54.6605 124.806Z" fill="#6C63FF"/>
<path d="M204.493 157.683L208.822 167.857C204.109 166.21 199.072 165.709 194.128 166.395C189.183 167.08 184.472 168.933 180.385 171.8C177.918 173.565 175.654 175.783 174.54 178.601C173.99 178.705 173.422 178.653 172.901 178.448C172.38 178.244 171.927 177.897 171.595 177.446C170.944 176.533 170.566 175.453 170.506 174.333C170.104 170.426 171.585 166.596 173.05 162.943C173.732 161.234 174.434 159.489 175.644 158.1C176.855 156.711 178.462 155.796 180.07 154.931C185.198 152.095 190.57 149.722 196.12 147.84C198.46 147.082 200.912 147.097 202.224 149.284C203.745 151.894 203.302 154.906 204.493 157.683Z" fill="#6C63FF"/>
<path d="M30.6191 188.21C31.7026 189.075 32.6539 190.098 33.768 190.922C34.9461 191.74 36.1999 192.443 37.512 193.023L42.5278 195.434C44.0822 196.242 45.7086 196.903 47.386 197.408C49.5327 197.982 51.7862 198.038 53.9431 198.573C56.6647 199.244 59.1523 200.643 61.8331 201.452C64.514 202.261 67.6527 202.393 69.891 200.709C71.29 199.656 72.3481 197.916 74.0827 197.657C75.2019 197.509 76.2803 198.049 77.2774 198.573L90.3307 205.435C92.0909 206.361 93.9527 207.388 94.8735 209.154C95.7942 210.919 95.1736 213.6 93.2354 214.058C92.5599 214.135 91.8806 214.174 91.2006 214.175C90.5291 214.256 89.7966 214.653 89.705 215.329C89.7016 215.749 89.8124 216.163 90.0255 216.525C90.6105 217.868 90.7835 219.475 90.1018 220.777C89.4202 222.08 87.7465 222.889 86.4086 222.304C86.6376 224.272 84.4959 225.651 82.5883 226.175C77.7759 227.492 72.6736 226.684 67.7545 225.849C65.8214 225.524 63.8578 225.188 62.0977 224.323C61.2532 223.911 60.4698 223.382 59.6152 223.001C57.2701 221.958 54.6045 222.095 52.0406 222.141C40.1827 222.349 28.4266 220.152 16.7671 217.964C14.6051 217.557 12.382 217.125 10.5354 215.93C6.97452 213.61 5.65189 208.848 6.2369 204.636C6.82191 200.424 8.95846 196.609 11.0594 192.906L13.781 188.109C14.1368 187.374 14.6347 186.717 15.246 186.175C19.2495 183.118 27.1904 185.453 30.6191 188.21Z" fill="#A1616A"/>
<path opacity="0.04" d="M30.6191 188.21C31.7026 189.075 32.6539 190.098 33.768 190.922C34.9461 191.74 36.1999 192.443 37.512 193.023L42.5278 195.434C44.0822 196.242 45.7086 196.903 47.386 197.408C49.5327 197.982 51.7862 198.038 53.9431 198.573C56.6647 199.244 59.1523 200.643 61.8331 201.452C64.514 202.261 67.6527 202.393 69.891 200.709C71.29 199.656 72.3481 197.916 74.0827 197.657C75.2019 197.509 76.2803 198.049 77.2774 198.573L90.3307 205.435C92.0909 206.361 93.9527 207.388 94.8735 209.154C95.7942 210.919 95.1736 213.6 93.2354 214.058C92.5599 214.135 91.8806 214.174 91.2006 214.175C90.5291 214.256 89.7966 214.653 89.705 215.329C89.7016 215.749 89.8124 216.163 90.0255 216.525C90.6105 217.868 90.7835 219.475 90.1018 220.777C89.4202 222.08 87.7465 222.889 86.4086 222.304C86.6376 224.272 84.4959 225.651 82.5883 226.175C77.7759 227.492 72.6736 226.684 67.7545 225.849C65.8214 225.524 63.8578 225.188 62.0977 224.323C61.2532 223.911 60.4698 223.382 59.6152 223.001C57.2701 221.958 54.6045 222.095 52.0406 222.141C40.1827 222.349 28.4266 220.152 16.7671 217.964C14.6051 217.557 12.382 217.125 10.5354 215.93C6.97452 213.61 5.65189 208.848 6.2369 204.636C6.82191 200.424 8.95846 196.609 11.0594 192.906L13.781 188.109C14.1368 187.374 14.6347 186.717 15.246 186.175C19.2495 183.118 27.1904 185.453 30.6191 188.21Z" fill="black"/>
<path d="M185.905 197.001C183.255 198.252 180.213 198.374 177.446 199.336C174.678 200.297 172.328 202.027 169.79 203.436C163.177 207.129 155.546 208.523 148.053 209.85C143.51 210.664 138.896 211.478 134.318 211.285C128.122 211.02 122.17 208.955 116.167 207.398C110.165 205.842 103.76 204.794 97.8132 206.544C94.7078 207.489 91.869 209.153 89.5269 211.401C87.1847 213.649 85.4052 216.416 84.3325 219.48C83.0862 223.138 82.9133 227.08 83.1524 230.936C84.4038 231.857 86.1537 230.58 86.8354 229.181C87.517 227.782 87.8884 226.068 89.211 225.254C91.5053 226.032 92.0648 229.09 93.9572 230.6C95.1374 231.547 96.7144 231.796 98.2151 232.01L105.947 233.108C107.809 233.373 109.971 233.551 111.319 232.238C111.976 231.603 112.337 230.712 112.937 230.031C114.168 228.667 116.223 228.433 118.055 228.617C123.772 229.186 129.134 232.895 134.811 232.015C136.765 231.715 138.581 230.88 140.443 230.224C151.476 226.327 163.736 228.698 175.218 226.465C179.598 225.615 183.815 224.109 187.981 222.522C190.245 221.663 192.534 220.762 194.467 219.307C196.298 217.899 197.743 216.049 198.664 213.931C199.586 211.813 199.955 209.495 199.737 207.195C199.311 203.69 197.562 200.48 194.848 198.221C193.953 197.458 192.778 195.998 191.705 195.52C189.655 194.62 187.645 196.182 185.905 197.001Z" fill="#A1616A"/>
<g opacity="0.1">
<path opacity="0.1" d="M171.042 132.014C170.192 131.261 169.984 130.116 169.251 129.282C167.725 127.517 164.642 127.756 162.129 128.112C157.75 128.727 152.464 128.87 149.748 125.823C148.573 124.51 148.054 122.771 146.619 121.677C143.272 119.133 137.513 121.738 133.825 119.586C130.605 117.709 130.814 113.354 128.128 110.938C125.442 108.522 120.787 108.837 117.14 110.043C116.523 110.326 115.831 110.405 115.166 110.267C114.011 109.86 114.093 108.425 114.377 107.367C115.766 102.255 117.18 97.0912 119.882 92.3908C120.863 90.6764 122.023 89.0232 122.654 87.1816C123.758 83.9565 123.193 80.3091 124.643 77.2568C123.086 78.2742 121.591 79.3832 120.629 80.8178C118.462 84.048 119.302 88.1584 118.086 91.7447C117.455 93.5862 116.295 95.2395 115.313 96.9539C112.612 101.654 111.198 106.818 109.809 111.93C109.524 112.988 109.443 114.423 110.598 114.83C111.263 114.968 111.954 114.889 112.572 114.606C116.219 113.4 120.853 113.054 123.56 115.501C126.266 117.948 126.037 122.287 129.257 124.149C132.945 126.301 138.704 123.702 142.051 126.24C143.485 127.329 144.004 129.073 145.179 130.386C147.916 133.438 153.181 133.291 157.561 132.675C160.074 132.319 163.157 132.08 164.683 133.845C165.416 134.679 165.624 135.824 166.474 136.577C168 137.94 170.793 137.248 172.283 135.849C173.239 134.854 174.057 133.735 174.715 132.522C173.392 132.924 171.983 132.863 171.042 132.014Z" fill="black"/>
<path opacity="0.1" d="M180.311 126.418C179.983 126.84 179.679 127.28 179.4 127.735C181.354 126.342 183.424 125.039 184.884 123.264C185.263 122.804 185.603 122.314 185.902 121.799C183.872 123.254 181.756 124.592 180.311 126.418Z" fill="black"/>
</g>
<path d="M283.084 227.152L284.61 373.15L291.732 372.133L290.206 227.152H283.084Z" fill="#3F3D56"/>
<path d="M325.814 253.604L327.341 399.602L334.462 398.585L332.936 253.604H325.814Z" fill="#3F3D56"/>
<path d="M458.855 327.356L458.824 324.553V322.885L458.555 297.205L458.133 257.059L458.061 253.594H450.939L450.975 256.931L451.199 278.434L451.296 287.744L451.377 295.283L451.509 308.316L451.591 316.002V316.816L451.697 326.919L451.789 335.826L452.369 335.185C453.302 334.144 454.214 333.086 455.106 332.011L458.855 327.356Z" fill="#3F3D56"/>
<path d="M317.929 277.259L313.859 283.343L317.929 311.062L352.521 320.529H408.478L442.053 322.559L458.046 311.612L455.279 292.81L443.07 277.259H317.929Z" fill="#6C63FF"/>
<path d="M313.86 283.343L311.826 300.242C311.826 300.242 301.143 333.374 387.114 331.344C473.085 329.314 458.332 322.554 458.332 322.554L457.824 302.948C457.824 302.948 460.82 312.227 417.127 310.97C373.435 309.714 332.682 305.655 332.682 305.655C332.682 305.655 317.421 308.356 313.86 283.343Z" fill="#3F3D56"/>
<path d="M385.486 131.871C380.582 134.105 376.868 138.434 374.381 143.221C371.893 148.007 370.494 153.262 369.115 158.482C367.661 163.986 366.201 169.505 365.448 175.147C364.105 185.178 365.112 195.724 369.721 204.733C374.33 213.742 382.845 221.012 392.816 222.746C396.667 223.423 400.625 223.285 404.516 222.884C411.55 222.139 418.479 220.612 425.175 218.331C432.169 215.965 439.449 212.323 442.562 205.613C444.368 201.721 444.521 197.286 444.434 193.002C444.194 181.328 442.431 169.735 439.189 158.517C438.248 155.262 437.155 151.98 435.16 149.238C433.166 146.497 430.44 144.487 427.657 142.625C415.758 134.613 400.121 125.217 385.486 131.871Z" fill="#FBBEBE"/>
<path opacity="0.05" d="M385.486 131.871C380.582 134.105 376.868 138.434 374.381 143.221C371.893 148.007 370.494 153.262 369.115 158.482C367.661 163.986 366.201 169.505 365.448 175.147C364.105 185.178 365.112 195.724 369.721 204.733C374.33 213.742 382.845 221.012 392.816 222.746C396.667 223.423 400.625 223.285 404.516 222.884C411.55 222.139 418.479 220.612 425.175 218.331C432.169 215.965 439.449 212.323 442.562 205.613C444.368 201.721 444.521 197.286 444.434 193.002C444.194 181.328 442.431 169.735 439.189 158.517C438.248 155.262 437.155 151.98 435.16 149.238C433.166 146.497 430.44 144.487 427.657 142.625C415.758 134.613 400.121 125.217 385.486 131.871Z" fill="black"/>
<path d="M379.976 195.902C381.395 197.853 383.112 199.569 385.063 200.989C389.906 204.336 396.122 204.789 402.003 204.972C406.723 205.114 412.136 204.845 415.097 201.162C416.429 199.503 417.03 197.387 417.569 195.327C420.897 182.676 423.26 169.791 424.64 156.782L438.11 156.828C443.94 181.79 443.462 207.739 442.953 233.373L442.216 270.752L433.537 269.832C412.93 267.649 392.291 265.467 371.572 265.091C359.432 264.867 347.288 265.268 335.189 266.291L354.088 210.1C356.54 202.795 359.017 195.393 359.592 187.717C360.421 176.581 357.298 164.825 361.627 154.524C361.973 153.695 362.41 152.835 363.199 152.402C363.987 151.97 364.984 152.077 365.89 152.194C367.599 152.423 372.823 152.194 374.065 153.288C375.896 154.875 374.685 155.114 374.039 157.673C372.884 162.251 371.791 166.488 371.806 171.26C371.821 179.923 374.507 189.07 379.976 195.902Z" fill="#6C63FF"/>
<path d="M458.856 327.356C461.125 324.344 463.263 321.226 465.271 318.001C464.254 315.824 463.135 313.697 462.244 311.474C460.881 308.066 460.098 304.454 459.324 300.868C459.06 299.647 458.797 298.426 458.536 297.205C455.687 283.923 453.011 270.452 452.457 256.987C452.406 255.868 452.374 254.749 452.36 253.629C452.36 253.467 452.36 253.309 452.36 253.121C452.36 251.895 452.36 250.669 452.36 249.448C452.421 246.396 452.615 243.318 452.966 240.256C453.032 239.655 453.108 239.055 453.189 238.455C453.189 238.323 453.22 238.195 453.24 238.063L487.832 236.801L490.742 236.695C492.741 236.623 494.857 236.512 496.506 235.377C499.278 233.475 499.604 229.573 499.558 226.22C499.389 217.747 498.429 209.308 496.689 201.014C495.376 194.777 493.504 188.403 489.302 183.611C485.853 179.674 480.858 176.81 479.062 171.911C478.396 170.09 478.228 168.091 477.363 166.351C476.498 164.611 475.069 163.334 473.721 161.992C468.976 157.29 465.04 151.838 462.071 145.855C460.011 141.704 457.778 137.126 455.087 134.257C454.955 134.109 454.822 133.972 454.685 133.84C452.396 131.576 449.776 130.584 446.673 132.126C446.115 132.405 445.584 132.736 445.086 133.112C443.98 133.957 442.968 134.919 442.069 135.981C438.935 139.586 436.185 143.507 433.864 147.682C432.232 150.621 430.83 153.682 429.672 156.838C428.758 159.332 428.002 161.88 427.408 164.469C426.971 166.387 426.625 168.325 426.35 170.268C425.333 177.573 425.333 185.021 425.475 192.417C425.628 199.213 425.928 206.025 426.543 212.796C426.696 214.434 426.866 216.07 427.052 217.705C427.425 220.937 427.886 224.159 428.436 227.37C428.655 228.596 428.878 229.822 429.128 231.043C429.189 231.369 429.255 231.694 429.321 232.015L429.352 232.152C430.024 234.99 430.545 237.861 430.913 240.754C430.954 241.117 430.984 241.478 431.005 241.838C431.09 243.5 431.077 245.167 430.964 246.828C430.847 248.792 430.664 250.75 430.572 252.714C430.572 253.06 430.572 253.401 430.537 253.731C430.511 254.723 430.537 255.715 430.537 256.707C430.64 259.08 430.922 261.442 431.381 263.773C432.239 268.108 433.721 272.296 435.782 276.206C435.975 276.572 436.173 276.933 436.372 277.289C438.951 281.898 442.207 286.125 444.592 290.841C446.65 295.085 448.188 299.562 449.171 304.174C449.51 305.697 449.832 307.223 450.137 308.753C450.61 311.194 451.033 313.656 451.465 316.119C451.506 316.363 451.551 316.627 451.597 316.851C452.172 320.117 452.777 323.368 453.556 326.557C454.008 328.414 454.517 330.245 455.112 332.046L458.856 327.356Z" fill="#464353"/>
<path d="M452.061 287.26C452.061 287.718 452.03 288.176 452.01 288.639C451.919 290.871 451.714 293.097 451.394 295.308C450.973 298.326 450.235 301.291 449.192 304.154C448.5 306.037 447.621 307.845 446.567 309.552C445.632 311.067 444.537 312.477 443.301 313.759C440.249 316.933 435.853 317.945 431.601 319.283C429.644 319.85 427.753 320.622 425.959 321.587C425.639 321.766 425.323 321.959 425.018 322.162L419.697 325.688C418.039 326.781 416.345 327.916 415.205 329.539C415.018 329.815 414.849 330.102 414.696 330.398C413.976 331.892 413.45 333.472 413.13 335.099C410.362 346.626 407.59 358.163 405.692 369.863C405.565 370.637 405.443 371.415 405.311 372.193L405.265 372.438C405.242 372.38 405.215 372.324 405.184 372.27C391.571 380.5 377.454 387.928 362.91 393.874L359.751 367.422C359.422 365.271 359.313 363.093 359.426 360.92C359.726 357.497 361.12 354.251 361.496 350.838C361.853 347.496 361.221 344.123 359.68 341.137C359.08 339.977 358.327 338.838 358.19 337.54C358.052 336.243 358.8 335.058 360.102 334.926C361.12 333.796 361.201 332.255 360.901 330.729C360.742 329.932 360.503 329.153 360.189 328.404C359.324 326.278 358.23 323.963 358.973 321.791C359.169 321.397 359.257 320.958 359.227 320.519C359.233 320.492 359.233 320.465 359.227 320.438C359.054 319.868 358.378 319.619 358.027 319.136C357.366 318.235 358.027 317.009 358.434 315.971C358.83 314.856 359.059 313.689 359.115 312.507C359.171 311.851 359.212 311.19 359.283 310.538C359.382 309.657 359.54 308.784 359.756 307.924C360.992 303.051 363.964 298.796 368.114 295.959C370.093 294.626 372.296 293.655 374.316 292.398C376.384 291.003 378.359 289.474 380.227 287.82C384.707 284.089 389.365 280.572 394.201 277.269C399.401 273.718 404.787 270.447 410.337 267.472C411.524 266.831 412.711 266.207 413.898 265.599C415.19 264.921 416.49 264.279 417.8 263.672C421.991 261.672 426.748 262.42 431.382 263.753C433.325 264.307 435.243 264.969 437.095 265.569C438.903 266.157 440.643 266.938 442.283 267.899C446.389 270.31 449.782 273.871 451.191 278.368C451.193 278.397 451.193 278.426 451.191 278.454C452.086 281.273 452.142 284.294 452.061 287.26Z" fill="#F86D70"/>
<path opacity="0.1" d="M452.061 287.26C452.061 287.718 452.03 288.176 452.01 288.639C451.919 290.871 451.714 293.097 451.394 295.308C450.973 298.326 450.235 301.291 449.192 304.154C448.5 306.037 447.621 307.845 446.567 309.552C445.632 311.067 444.537 312.477 443.301 313.759C440.249 316.933 435.853 317.945 431.601 319.283C429.644 319.85 427.753 320.622 425.959 321.587C425.639 321.766 425.323 321.959 425.018 322.162L419.697 325.688C418.039 326.781 416.345 327.916 415.205 329.539C415.018 329.815 414.849 330.102 414.696 330.398C413.976 331.892 413.45 333.472 413.13 335.099C410.362 346.626 407.59 358.163 405.692 369.863C405.565 370.637 405.443 371.415 405.311 372.193L405.265 372.438C405.242 372.38 405.215 372.324 405.184 372.27C391.571 380.5 377.454 387.928 362.91 393.874L359.751 367.422C359.422 365.271 359.313 363.093 359.426 360.92C359.726 357.497 361.12 354.251 361.496 350.838C361.853 347.496 361.221 344.123 359.68 341.137C359.08 339.977 358.327 338.838 358.19 337.54C358.052 336.243 358.8 335.058 360.102 334.926C361.12 333.796 361.201 332.255 360.901 330.729C360.742 329.932 360.503 329.153 360.189 328.404C359.324 326.278 358.23 323.963 358.973 321.791C359.169 321.397 359.257 320.958 359.227 320.519C359.233 320.492 359.233 320.465 359.227 320.438C359.054 319.868 358.378 319.619 358.027 319.136C357.366 318.235 358.027 317.009 358.434 315.971C358.83 314.856 359.059 313.689 359.115 312.507C359.171 311.851 359.212 311.19 359.283 310.538C359.382 309.657 359.54 308.784 359.756 307.924C360.992 303.051 363.964 298.796 368.114 295.959C370.093 294.626 372.296 293.655 374.316 292.398C376.384 291.003 378.359 289.474 380.227 287.82C384.707 284.089 389.365 280.572 394.201 277.269C399.401 273.718 404.787 270.447 410.337 267.472C411.524 266.831 412.711 266.207 413.898 265.599C415.19 264.921 416.49 264.279 417.8 263.672C421.991 261.672 426.748 262.42 431.382 263.753C433.325 264.307 435.243 264.969 437.095 265.569C438.903 266.157 440.643 266.938 442.283 267.899C446.389 270.31 449.782 273.871 451.191 278.368C451.193 278.397 451.193 278.426 451.191 278.454C452.086 281.273 452.142 284.294 452.061 287.26Z" fill="black"/>
<path d="M403.757 202.998C403.706 202.88 403.631 202.774 403.537 202.685C403.444 202.596 403.333 202.528 403.212 202.483C403.091 202.438 402.963 202.419 402.834 202.425C402.705 202.431 402.579 202.463 402.463 202.52C402.347 202.576 402.244 202.655 402.159 202.752C402.075 202.85 402.011 202.963 401.971 203.086C401.931 203.208 401.917 203.337 401.928 203.466C401.94 203.594 401.977 203.719 402.038 203.832L401.529 204.082L416.699 235.174L419.441 233.836L404.271 202.724L403.757 202.998Z" fill="#3F3D56"/>
<path d="M422.723 170.431C440.704 170.431 455.28 155.855 455.28 137.874C455.28 119.894 440.704 105.317 422.723 105.317C404.742 105.317 390.166 119.894 390.166 137.874C390.166 155.855 404.742 170.431 422.723 170.431Z" fill="#FBBEBE"/>
<path d="M465.693 117.719C465.541 115.131 465.156 112.562 464.543 110.043C462.631 101.817 459.136 93.7188 453.118 87.8128C452.747 86.3688 452.304 84.9443 451.79 83.5447C451.781 83.5101 451.769 83.4761 451.755 83.443C449.959 78.5126 447.364 73.9116 444.073 69.825C442.166 67.4544 439.693 65.1144 436.651 65.0228C435.797 64.9923 434.891 65.1398 434.108 64.7481C433.532 64.3756 433.047 63.8784 432.688 63.2932C431.182 61.3896 429.184 59.9337 426.91 59.0828C424.637 58.232 422.174 58.0186 419.788 58.4656L419.472 58.5318C419.294 58.5674 419.116 58.6081 418.964 58.6538C418.811 58.6996 418.536 58.7759 418.323 58.8421C418.557 59.2287 418.786 59.6204 419.009 60.0172C419.613 61.0922 420.173 62.191 420.688 63.3136C421.115 64.2496 421.51 65.2009 421.873 66.1674C416.664 66.7626 412.422 70.4609 408.545 73.9811L399.419 82.2628C399.403 82.2767 399.387 82.2921 399.373 82.3086L399.109 82.5629C399.043 82.6291 398.977 82.6952 398.916 82.7664C398.891 82.7876 398.869 82.8115 398.849 82.8376C398.773 82.919 398.702 83.0055 398.631 83.092C398.504 83.2522 398.39 83.4223 398.29 83.6007C398.24 83.677 398.196 83.757 398.158 83.8398C398.144 83.8642 398.132 83.8897 398.122 83.9161C398.089 83.9855 398.06 84.0568 398.035 84.1297C398.033 84.1398 398.033 84.1502 398.035 84.1603C398.021 84.202 398.009 84.2444 398 84.2874C397.896 84.6454 397.927 85.029 398.086 85.3659L404.104 85.432H404.811C404.842 86.2358 404.867 87.0446 404.898 87.8484C403.943 88.5631 403.026 89.3272 402.151 90.1375C401.197 91.0209 400.301 91.9657 399.47 92.9659C394.042 99.5231 391.209 107.993 390.924 116.519C390.924 116.783 390.924 117.028 390.924 117.302C390.924 118.081 390.924 118.859 390.924 119.632C390.924 120.141 390.97 120.65 391.01 121.158C391.013 121.821 391.188 122.471 391.519 123.046C391.562 123.11 391.61 123.171 391.661 123.229C391.967 123.56 392.333 123.829 392.74 124.022L393.177 124.236C393.396 124.343 393.605 124.445 393.808 124.562C395.726 125.645 396.86 127.736 398.605 129.079C398.707 129.155 398.809 129.231 398.91 129.298L399.139 129.45L399.282 129.542L399.475 129.654C399.602 129.73 399.733 129.8 399.867 129.862L400.111 129.984H400.152C400.355 130.076 400.559 130.162 400.767 130.239L401.057 130.34L401.144 130.371C401.225 130.396 401.312 130.427 401.398 130.447C401.571 130.498 401.741 130.544 401.907 130.585L402.415 130.697C402.614 130.732 402.817 130.768 403.021 130.793L403.321 130.834L403.626 130.864C404.111 130.908 404.599 130.934 405.091 130.941C406.634 130.931 408.175 130.824 409.705 130.62L422.687 129.094C425.633 128.753 428.639 128.412 431.544 129.013C434.006 129.521 436.275 130.691 438.666 131.521C439.205 131.709 439.744 131.882 440.288 132.029C440.487 132.085 440.69 132.146 440.894 132.197L441.174 132.268L441.825 132.426C442.059 132.482 442.293 132.538 442.527 132.584C442.857 132.655 443.183 132.716 443.514 132.777C443.737 132.823 443.966 132.858 444.195 132.899H444.241L444.892 133.001H445.05L445.533 133.067C445.767 133.103 446.001 133.133 446.24 133.159C446.759 133.223 447.278 133.279 447.797 133.326C448.636 133.408 449.481 133.469 450.34 133.52L451.185 133.571L452.029 133.611L454.573 133.723H454.685H455.041C456.098 133.797 457.161 133.742 458.205 133.561C458.388 133.525 458.566 133.484 458.744 133.433C458.922 133.382 459.07 133.332 459.253 133.271C461.161 132.538 462.554 130.854 463.521 129.053C463.724 128.672 463.913 128.29 464.086 127.899C464.259 127.507 464.416 127.11 464.559 126.713C464.737 126.205 464.889 125.721 465.022 125.213C465.062 125.075 465.098 124.938 465.128 124.796C465.159 124.653 465.23 124.373 465.271 124.16C465.398 123.575 465.495 122.985 465.566 122.389C465.566 122.201 465.612 122.008 465.632 121.82C465.678 121.311 465.713 120.838 465.734 120.339C465.734 119.963 465.734 119.581 465.734 119.2C465.729 118.788 465.693 118.243 465.693 117.719ZM452.65 87.3498C452.238 86.9632 451.816 86.5919 451.388 86.2409C451.864 86.5409 452.288 86.9153 452.645 87.3498H452.65Z" fill="#464353"/>
<path d="M360.239 136.083C356.409 135.61 352.609 133.932 348.829 134.756C346.464 135.264 344.429 136.735 342.536 138.245C335.494 143.89 329.506 150.736 324.849 158.466C324.059 159.622 323.504 160.922 323.216 162.292C322.972 163.879 323.404 165.492 323.918 167.013C327.397 177.293 334.84 185.88 338.228 196.192C341.789 207.037 340.552 218.89 337.928 230C334.674 243.716 329.386 256.867 322.239 269.018C321.269 270.825 320.053 272.489 318.627 273.962C316.776 275.743 314.288 277.015 313.189 279.345C312.681 280.362 312.533 281.522 312.172 282.61C311.154 285.663 308.692 288.277 308.453 291.497C308.275 293.954 309.44 296.279 310.147 298.619C311.34 302.64 311.213 306.936 309.786 310.879C307.207 317.95 300.461 324.38 302.42 331.649C306.79 330.393 311.633 328.76 313.693 324.706C314.42 323.271 314.781 321.562 316.007 320.514C318.454 318.433 322.621 320.316 325.22 318.403C327.184 316.948 327.255 313.967 326.38 311.678C325.505 309.389 323.999 307.374 323.328 305.019C322.158 300.771 324.03 296.279 323.684 291.889C323.521 289.854 322.895 287.906 322.85 285.881C322.763 281.949 324.94 278.251 327.835 275.58C330.729 272.909 334.306 271.139 337.826 269.394L351.133 262.781C355.961 260.39 361.252 257.475 362.834 252.327C363.434 250.399 363.439 248.344 363.469 246.33C363.922 215.548 371.634 185.387 379.3 155.572C380.491 150.953 381.701 146.313 383.472 141.878C385.242 137.442 388.706 133.881 390.471 129.76C380.231 128.56 370.876 137.416 360.239 136.083Z" fill="#464353"/>
<path d="M433.599 329.192C434.774 336.314 435.491 343.589 436.051 350.827C426.894 358.417 417.035 365.02 407.019 371.145C406.449 371.496 405.874 371.842 405.299 372.162L405.254 372.407C405.231 372.349 405.203 372.293 405.172 372.239C404.395 370.56 403.036 369.219 401.347 368.464C397.593 360.579 393.842 352.694 390.094 344.809C388.059 340.552 386.025 336.253 385.007 331.659C385.007 331.563 384.961 331.461 384.946 331.364C384.173 327.803 383.995 324.105 383.481 320.498C383.221 318.433 382.756 316.398 382.092 314.425C381.482 312.67 380.642 310.965 379.9 309.251C378.984 307.135 378.216 304.993 378.18 302.709C378.18 301.982 378.226 301.183 377.87 300.573C377.489 300.047 377.019 299.592 376.481 299.23C375.81 298.634 375.301 297.878 375.002 297.032C374.703 296.185 374.624 295.277 374.772 294.392C371.72 294.55 370 297.831 368.774 300.613C367.66 303.335 366.196 305.9 364.42 308.244C363.125 309.918 361.479 311.288 359.597 312.257C359.43 312.339 359.262 312.42 359.089 312.491C354.841 314.364 349.881 313.702 345.277 312.858C341.254 312.12 337.092 311.204 333.857 308.702L333.511 308.427C332.553 307.631 331.699 306.718 330.968 305.71C328.256 302.007 327.056 297.129 326.389 292.484C326.328 292.047 326.267 291.609 326.211 291.172C325.749 287.89 325.621 284.57 325.83 281.262C325.891 280.448 325.977 279.634 326.084 278.825C326.155 278.317 326.232 277.767 326.318 277.238C326.316 277.223 326.316 277.208 326.318 277.193C326.45 276.353 326.593 275.509 326.735 274.649C327.244 271.765 327.753 268.804 329.279 266.322C330.283 264.777 331.55 263.42 333.023 262.313C333.572 261.881 334.137 261.469 334.707 261.072C335.632 260.431 336.584 259.82 337.55 259.245C339.982 257.79 342.535 256.547 345.181 255.532C345.812 255.288 346.452 255.059 347.093 254.84C349.585 253.954 352.266 253.742 354.866 254.225C357.17 254.558 359.498 254.694 361.826 254.632C367.793 254.515 373.785 253.375 379.742 252.637C388.014 251.62 396.901 251.498 404.114 255.69C404.46 255.888 404.796 256.097 405.132 256.315C408.692 258.645 411.562 261.911 413.876 265.558C414.385 266.327 414.827 267.115 415.265 267.914C416.273 269.747 417.185 271.632 417.997 273.56C418.477 274.507 418.736 275.551 418.755 276.613C418.743 276.814 418.716 277.015 418.673 277.213C418.536 277.935 418.261 278.637 418.165 279.37C417.844 282.142 420.199 284.457 421.079 287.097C421.649 288.816 421.588 290.658 421.909 292.469C422.371 295.012 423.618 297.302 424.737 299.591C426.505 303.276 428.018 307.078 429.264 310.97C430.15 313.682 430.908 316.434 431.574 319.211C431.791 320.103 431.996 320.997 432.189 321.892C432.744 324.354 433.197 326.766 433.599 329.192Z" fill="#F86D70"/>
<path d="M487.836 253.859V257.42L487.179 257.409L486.447 257.399L478.267 257.297L458.112 257.033L452.455 256.962L450.99 256.941L442.5 256.835L430.535 256.677L405.151 256.346L361.102 255.776L345.205 255.573L338.826 255.492L332.956 255.415L329.298 255.364L325.834 255.319L300.149 254.988L293.027 254.896L291.476 254.876L290.469 252.277L283.148 233.399L281.811 229.95L282.828 225.88L287.406 228.932L290.225 229.283L336.623 235.052L345.332 236.135L363.798 238.435L381.888 240.683L388.979 241.563L430.942 246.783L442.668 248.243L452.374 249.448L486.884 253.742L487.836 253.859Z" fill="#3F3D56"/>
<path d="M282.828 225.88L291.985 249.789L487.836 253.859V227.915L282.828 225.88Z" fill="#504F60"/>
<path d="M293.004 252.333L294.53 398.331L301.652 397.313L300.126 252.333H293.004Z" fill="#3F3D56"/>
<path d="M487.181 257.404H486.449C485.263 266.506 483.3 275.49 480.583 284.258L478.268 257.297L478.172 256.147L486.728 255.16L487.013 255.13L487.181 257.404Z" fill="#3F3D56"/>
<path d="M459.349 240.124L384.824 241.65L361.678 234.019L423.74 230.458L459.349 240.124Z" fill="white"/>
<path d="M365.865 210.456C365.075 210.759 364.375 211.258 363.831 211.906C363.405 212.607 363.145 213.397 363.073 214.215L361.821 221.678C361.63 222.36 361.664 223.086 361.918 223.748C362.243 224.374 363.19 224.699 363.663 224.181C363.602 225.641 363.729 227.197 364.578 228.388C365.428 229.578 367.208 230.204 368.409 229.374C368.597 229.681 368.85 229.943 369.15 230.143C369.449 230.342 369.789 230.474 370.144 230.529C370.5 230.584 370.863 230.561 371.209 230.462C371.555 230.363 371.876 230.19 372.148 229.954C371.426 230.198 371.375 231.302 371.888 231.862C372.464 232.37 373.197 232.663 373.964 232.691C382.903 233.951 392.017 232.805 400.366 229.369C401.154 229.044 399.079 219.322 398.87 218.325C398.361 215.98 398.107 213.116 396.128 211.539C391.397 207.765 382.993 207.022 377.23 207.47C373.292 207.767 369.441 208.779 365.865 210.456Z" fill="#FBBEBE"/>
<path opacity="0.1" d="M441.693 211.585C423.293 211.937 404.511 212.237 386.951 206.727C388.628 213.228 388.512 220.061 386.615 226.501L472.647 233.623C476.295 233.923 491.418 235.632 494.974 234.772C498.53 233.912 465.139 222.914 466.487 219.511C470.195 210.136 482.618 204.642 473.67 204.291C462.377 203.843 453.072 211.372 441.693 211.585Z" fill="black"/>
<path d="M442.2 212.603C423.801 212.954 405.019 213.254 387.459 207.744C389.136 214.245 389.02 221.078 387.123 227.518L473.155 234.64C476.802 234.94 491.926 236.675 495.482 235.789C499.038 234.904 498.204 230.545 499.552 227.141C503.26 217.766 483.126 205.659 474.178 205.308C462.884 204.86 453.58 212.389 442.2 212.603Z" fill="#464353"/>
<path d="M412.945 214.017C413.735 214.319 414.436 214.818 414.98 215.467C415.405 216.169 415.666 216.959 415.743 217.776L416.994 225.239C417.183 225.922 417.149 226.647 416.898 227.309C416.572 227.935 415.621 228.26 415.153 227.742C415.209 229.202 415.087 230.758 414.237 231.949C413.387 233.139 411.607 233.765 410.401 232.935C410.213 233.242 409.96 233.504 409.661 233.704C409.361 233.903 409.022 234.035 408.666 234.09C408.31 234.145 407.947 234.122 407.601 234.023C407.255 233.924 406.935 233.751 406.662 233.515C407.385 233.76 407.441 234.863 406.927 235.423C406.35 235.931 405.615 236.224 404.846 236.252C395.909 237.512 386.797 236.366 378.45 232.93C377.661 232.605 379.732 222.883 379.945 221.886C380.454 219.541 380.708 216.677 382.687 215.1C387.413 211.326 395.822 210.583 401.586 211.031C405.522 211.329 409.371 212.341 412.945 214.017Z" fill="#FBBEBE"/>
<path d="M291.364 197.815C289.675 199.992 287.981 202.215 286.893 204.754C284.812 209.596 285.117 215.08 285.463 220.34C285.56 221.866 285.682 223.423 286.481 224.69C287.171 225.647 288.082 226.423 289.136 226.953C293.542 229.456 298.7 230.204 303.736 230.764C311.448 231.618 319.187 232.139 326.953 232.325C346.192 232.793 365.727 231.221 384.467 235.581C382.148 232.056 382.153 227.391 383.45 223.372C384.747 219.353 387.245 215.853 389.692 212.41C381.115 209.693 371.918 213.936 362.934 213.513C353.711 213.081 345.175 207.75 335.942 207.755C333.958 207.755 331.939 208.004 330.011 207.526C328.083 207.048 326.216 205.593 326.038 203.614C328.5 204.169 330.835 202.063 331.852 199.753C332.869 197.443 333.053 194.834 334.039 192.509C336.496 186.725 343.135 184.044 347.266 179.283C347.917 178.53 348.532 177.64 348.512 176.643C348.415 175.798 348.06 175.004 347.495 174.369C344.061 169.79 338.887 167.247 334.589 163.686C333.093 162.445 330.077 157.765 328.398 157.332C325.285 156.534 322.644 161.03 320.62 163.223C310.398 174.33 300.646 185.86 291.364 197.815Z" fill="#464353"/>
<path opacity="0.07" d="M393.656 196.522C394.946 197.479 396.092 198.614 397.059 199.895C397.542 200.538 397.885 201.275 398.068 202.058C398.251 202.84 398.27 203.653 398.123 204.443C397.965 202.969 398.293 201.483 399.058 200.213C399.824 198.943 400.983 197.957 402.36 197.408L393.656 196.522Z" fill="black"/>
<g opacity="0.1">
<path opacity="0.1" d="M421.869 63.12C421.271 61.53 420.581 59.9759 419.804 58.4653C419.301 58.5619 418.805 58.6893 418.318 58.8469C419.191 60.2965 419.978 61.7964 420.674 63.3387C421.065 63.237 421.462 63.1658 421.869 63.12Z" fill="black"/>
<path opacity="0.1" d="M451.385 83.1782C451.522 83.2901 451.654 83.4173 451.787 83.5343C451.777 83.5013 451.765 83.469 451.751 83.4377C451.636 83.3529 451.514 83.2664 451.385 83.1782Z" fill="black"/>
<path opacity="0.1" d="M404.095 85.4166C404.359 85.208 404.603 84.9893 404.888 84.7858L404.807 82.3694L399.374 82.3135C398.494 83.1223 397.558 84.2822 398.077 85.3657L404.095 85.4166Z" fill="black"/>
<path opacity="0.1" d="M463.491 126.092C462.525 127.893 461.131 129.582 459.223 130.309C457.753 130.869 456.135 130.818 454.563 130.747C449.202 130.528 443.748 130.289 438.682 128.514C436.311 127.679 434.042 126.515 431.56 126.001C428.655 125.401 425.649 125.741 422.703 126.087L409.721 127.613C405.891 128.061 401.623 128.397 398.565 126.047C396.815 124.704 395.686 122.613 393.768 121.534C392.959 121.077 391.998 120.781 391.474 120.008C391.143 119.434 390.968 118.784 390.965 118.121C390.924 117.587 390.899 117.053 390.879 116.519C390.824 118.071 390.852 119.624 390.965 121.173C390.968 121.836 391.143 122.486 391.474 123.06C391.983 123.829 392.959 124.124 393.768 124.587C395.686 125.665 396.82 127.756 398.565 129.099C401.617 131.449 405.891 131.134 409.721 130.666L422.703 129.139C425.649 128.794 428.655 128.453 431.56 129.053C434.022 129.562 436.291 130.732 438.682 131.566C443.769 133.341 449.202 133.601 454.563 133.799C456.135 133.865 457.753 133.921 459.223 133.362C461.131 132.634 462.525 130.945 463.491 129.145C465.363 125.66 465.887 121.707 465.689 117.724C465.58 120.641 464.829 123.498 463.491 126.092Z" fill="black"/>
</g>
<path opacity="0.1" d="M421.721 66.3911L428.843 73.0043C428.843 73.0043 422.738 70.4607 421.721 66.3911Z" fill="black"/>
</g>
<defs>
<clipPath id="clip0">
<rect width="500" height="408.505" fill="white"/>
</clipPath>
</defs>
</svg>
