<svg width="50" height="100" viewBox="0 0 50 100" fill="none" xmlns="http://www.w3.org/2000/svg">
<path d="M68.457 49.9025L98.0469 79.59C99.349 80.8921 100 82.4384 100 84.2287C100 86.0191 99.349 87.5328 98.0469 88.7697L88.8672 97.9495C87.6302 99.2515 86.1003 99.9026 84.2774 99.9026C82.4544 99.9026 80.9245 99.2515 79.6875 97.9495L50 68.3595L20.3125 97.9495C19.0755 99.2515 17.5456 99.9026 15.7227 99.9026C13.8997 99.9026 12.3698 99.2515 11.1328 97.9495L1.95313 88.7697C0.651042 87.5328 0 86.0191 0 84.2287C0 82.4384 0.651042 80.8921 1.95313 79.59L31.543 49.9025L1.95313 20.3125C0.651042 19.0105 0 17.4642 0 15.6739C0 13.8835 0.651042 12.3373 1.95313 11.0352L11.1328 1.85547C12.3698 0.618491 13.8997 0 15.7227 0C17.5456 0 19.0755 0.618491 20.3125 1.85547L50 31.543L79.6875 1.85547C80.9245 0.618491 82.4544 0 84.2774 0C86.1003 0 87.6302 0.618491 88.8672 1.85547L98.0469 11.0352C99.349 12.3373 100 13.8835 100 15.6739C100 17.4642 99.349 19.0105 98.0469 20.3125L68.457 49.9025Z" fill="#274970"/>
</svg>
